<?xml version="1.0" standalone="no"?>
<!DOCTYPE svg PUBLIC "-//W3C//DTD SVG 1.1//EN" "http://www.w3.org/Graphics/SVG/1.1/DTD/svg11.dtd" >
<svg xmlns="http://www.w3.org/2000/svg">
<metadata>
Created by FontPrep 20130207 at Tue Apr 11 17:39:43 2017
 By Martin Campillo
Generated with Fons http://osp.kitchen/tools/fons/ from hd scan found in Specimen de caracteres Plantin, MIB G 158 B, KRB Brussels.
Prepared by Paol Darcel et Ludi in April 2016 - zigzaganimal.be
</metadata>
<defs>
<font id="4a21c27783d610037ab0c2a28fbbfd65" horiz-adv-x='1024' >
  <font-face 
    font-family="AntiqueNobleBold"
    font-weight="700"
    font-stretch="normal"
    units-per-em="2048"
    panose-1="2 0 8 3 0 0 0 0 0 0"
    ascent="1597"
    descent="-451"
    x-height="922"
    cap-height="1575"
    bbox="42.5 -446.75 2122.31 2085.25"
    underline-thickness="51"
    underline-position="-105"
    unicode-range="U+0020-FEFF"
  />
<missing-glyph horiz-adv-x="1024" 
d="M205 102h614v861h-614v-861zM102 0v1065h820v-1065h-820z" />
    <glyph glyph-name=".notdef" horiz-adv-x="1024" 
d="M205 102h614v861h-614v-861zM102 0v1065h820v-1065h-820z" />
    <glyph glyph-name=".null" horiz-adv-x="0" 
 />
    <glyph glyph-name="nonmarkingreturn" horiz-adv-x="681" 
 />
    <glyph glyph-name="space" unicode=" " horiz-adv-x="614" 
 />
    <glyph glyph-name="exclam" unicode="!" horiz-adv-x="587" 
d="M125 121v94q0 4 4 12q4 9 6 17t-13 42t5 48q8 11 23 13q14 1 30 7t68 3t70 2t33 1t22 -4l30 2q7 -6 15 -6t20 4q26 9 33 -30v-4h1q1 -9 1 -21l-8 -78l4 -71l6 -83q0 -51 -33 -63q-4 -6 -28 -3t-64 1q-41 -2 -110 4q-8 0 -24 -7t-25 -6t-29 10t-33 24t-10 33q2 18 4 35
t2 24zM231 1569h74q63 0 101 4q85 9 57 -84q-2 -10 -4 -78l-4 -31q0 -6 5 -20t0 -24q-5 -11 -5 -15l8 -27l-8 -131l6 -57q2 -6 -1 -17t-3 -18l6 -80q-8 -24 -11 -99t-6 -87l-14 -31q-2 -4 4 -13q14 -19 0 -175l-8 -54q4 -47 -7 -81q-11 -33 -15 -37t-24 -7t-38 3
q-16 6 -25 6l-79 -10l-23 4q-4 2 -8 2h-7q-30 0 -30 60v26l-12 30q-6 32 -6 46t1 19t2 9q3 11 -5 26q-7 15 -1 34q5 20 -5 105t-15 157l4 57l-14 90l8 66q0 14 -3 62t2 68t-4 62q-9 41 -7 66t0 61t0 44q2 10 2 18v15q0 18 10 30q16 8 26 8l29 2q8 2 22 -1t25 -3zM471 268v6
l2 -6h-2zM472 322q0 2 -1 4v2l2 -6h-1z" />
    <glyph glyph-name="quotedbl" unicode="&#x22;" horiz-adv-x="1062" 
d="M477 1475v-54l-8 -32l-2 -111l6 -29l-8 -37q-2 -4 0 -21t-11 -37q-16 -28 -16 -45q0 -18 -26 -44q-6 -9 -16 -27t-13 -25q-4 -7 -11 -26t-23 -36l-19 -19q-25 -29 -39 -31q-15 -2 -19 -4t-20 5t-32 15q-15 9 -20 11t-59 33q-43 1 -45 45q-1 22 19 53q26 42 26 63v21
q0 2 9 33q8 31 6 47q-14 184 -14 197t-5 40q-4 27 13 47q12 18 65 15l145 10l35 -4q6 0 32 3t37 -10t12 -19t1 -27zM623 961q-45 1 -45 45q0 20 19 52q26 45 26 64v21q0 2 8 33t6 47q-14 184 -14 197t-4 41t12 46q12 18 65 15l146 10l35 -4q6 0 23 2q16 2 28 0t20 -12
q10 -12 10 -43v-54q0 -2 -5 -13t-3 -19l-2 -111l6 -30l-8 -36q-2 -4 -1 -17t-10 -38q-15 -33 -15 -49t-27 -43q-6 -9 -15 -27q-10 -18 -14 -24q-8 -10 -12 -28q-4 -16 -22 -34l-19 -20q-25 -29 -39 -31t-18 -4t-20 5t-32 15q-16 9 -24 12q-9 3 -55 32z" />
    <glyph glyph-name="percent" unicode="%" horiz-adv-x="1841" 
d="M1589 1153q16 -49 10 -111l15 -66q16 -67 17 -120t11 -85q9 -32 10 -38t1 -17t2 -16l8 -20q3 -11 0 -38t7 -58q11 -31 13 -41l-6 -39l11 -27q0 -6 -1 -25q-1 -25 9 -46q10 -22 9 -46t-1 -34l14 -50q0 -4 5 -55t21 -102q22 -72 8 -96q-14 -25 -43 -25h-46l-41 4l-33 -4
q-29 10 -43 10t-27 -4t-33 -7t-71 13q-16 6 -23 30q-8 24 -10 102t-5 90t-7 21t-6 15l6 47q0 7 -2 15t-3 13l-2 10t-2 9t-2 10t-2 10q-1 5 -2 9t-2 9t-3 10l2 34q0 10 -5 30l-7 28t0 30q1 22 1 29l-12 51l6 50l-12 71l6 31q3 35 -24 37q-7 -33 -22 -47q-15 -15 -18 -20
t-5 -27t-28 -65q-26 -44 -37 -52t-36 -61q-26 -53 -36 -65q-11 -12 -14 -26q-6 -28 -77 -127q-12 -21 -19 -43t-27 -45t-19 -32l-2 -21q-14 -31 -37 -43t-51 6q-21 17 -39 69t-26 64t-31 44q-24 32 -38 69t-19 46t-26 40q-2 6 -4 20q-2 13 -11 27t-23 28q-16 16 -23 37
t-19 31t-16 14q-6 7 -6 18q0 10 -15 34t-20 35q-14 33 -29 32q-24 0 -24 -57q-8 -23 -10 -57q-2 -35 -4 -45l-13 -35l8 -27q2 -8 -4 -34t-10 -79t-6 -71l-10 -31q-2 -6 -1 -18t-3 -41t-11 -86q0 -7 5 -27q-3 -29 -9 -55t-7 -37q-2 -27 -31 -34q-28 -7 -46 -3q-8 6 -100 5
t-99 0t-35 -2t-32 3q-18 4 -18 34l8 58q26 91 22 108q-4 18 9 54q12 36 16 47q2 12 2 62l6 45v17q0 14 7 28q10 21 9 46t5 40t9 31t4 54t6 65q5 28 7 38q2 11 1 31q-2 32 5 47t6 28t1 17t7 13q8 14 6 61q-2 48 8 93t17 58q4 23 9 64q4 41 6 50t0 21t0 55t11 65t7 50l-2 27
l8 53q0 14 1 30t0 34q-5 88 53 108q6 6 13 2t11 -2q4 0 8 -9t10 -16t5 -20q4 -10 13 -23q9 -12 12 -18t6 -18q4 -12 12 -24t20 -35t22 -41t21 -43q13 -25 25 -47t45 -67t40 -59q9 -17 13 -30q4 -12 21 -30q17 -19 21 -35q3 -16 18 -23q6 -19 22 -44q15 -26 21 -38t16 -24
q10 -11 13 -18t7 -22q5 -23 21 -37q15 -14 35 -59q20 -44 49 -87q30 -44 41 -81t26 -51q-1 -6 7 -10t13 -7t9 1q19 8 13 16q-7 8 -16 17t-4 29t7 25t11 15t11 15t10 31q7 26 12 33q4 7 16 17t14 17q8 10 16 31t39 64q31 42 39 55t20 39q12 27 22 45t42 67q43 63 46 77
q4 14 84 139q81 127 88 149t11 37q12 44 33 65l18 18q9 12 21 12q21 6 35 -13t15 -37t1 -82q0 -63 6 -79t8 -25t2 -37q1 -28 5 -42l10 -53q0 -22 7 -50t6 -44t-1 -25z" />
    <glyph glyph-name="ampersand" unicode="&#x26;" horiz-adv-x="1615" 
d="M935 30q-5 -1 -11 -1t-34 -11q-28 -12 -43 -16t-35 -13t-40 -6t-26 3t-18 -6q-13 -6 -78 -7q-65 0 -206 39q-38 0 -59 17t-41 23q-20 5 -30 15q-10 11 -14 14q-5 3 -19 8t-21 11q-6 6 -12 24t-14 24q-8 8 -24 18q-17 10 -26 18q-4 9 -6 16q-4 15 -20 31q-24 24 -26 48
t-12 41q-16 24 -16 40v15q-18 94 7 211h6q0 2 8 20t11 33q3 14 19 33q17 18 37 56t66 83q45 45 47 45q35 18 35 29q4 13 -5 23q-9 11 -11 14t-16 16q-13 12 -16 22t-7 16q-112 140 -62 355q11 44 56 96q6 9 13 19t24 26t52 35q36 19 52 30t27 15t63 13l88 14l91 -6l40 -4
q4 0 13 3q10 3 18 1t21 -14q13 -11 21 -15t22 -3q15 1 24 -3q102 -51 172 -172q16 -28 21 -59q5 -32 13 -59t7 -34l-12 -40q-18 -90 -52 -138q-13 -38 -23 -46q-11 -9 -19 -14t-26 -29q-19 -23 -43 -36q-25 -13 -33 -22q-7 -7 -16 -17q-29 -31 -10 -45q5 -8 19 -21t24 -28
t27 -25q18 -11 43 -45q26 -36 32 -42t38 -40t50 -64t50 -32q18 0 41 52q2 4 27 24q6 10 22 34t24 42q8 20 19 27q33 25 62 2q6 -3 12 -17t9 -18t7 -7t9 -6q16 -10 35 -36q18 -27 59 -60t51 -75q2 -20 -35 -54q-6 -6 -18 -21t-20 -21t-30 -22q-24 -16 -28 -22t-12 -12
t-12 -11q-3 -5 -10 -13t-7 -23q9 -27 53 -60q32 -32 80 -88q26 -17 47 -36q10 -13 18 -27q7 -14 18 -27t7 -26t-24 -29t-29 -14t-17 7t-13 6t-15 0t-15 -1l-36 8q-19 2 -53 -1t-40 -3l-41 4q-12 0 -60 -1t-74 6q-25 7 -48 40t-47 31q-8 0 -33 -21q-5 -2 -29 -16t-29 -15z
M675 1324q-7 3 -16 1t-30 -4t-37 -8t-34 -30q-40 -52 -9 -126q2 -6 10 -15t10 -16q31 -73 84 -55q7 2 13 8t9 8q1 1 12 14t28 27q31 35 35 78q5 16 -7 33q0 4 3 19t-11 24q-14 8 -17 11t-8 7l-8 8t-9 7q-5 4 -8 5t-10 4zM817 316q2 3 7 7t5 19t-20 35q-19 20 -29 32t-47 46
t-48 52q-11 19 -19 30t-54 49q-14 14 -14 26q-18 27 -39 34t-31 4t-16 -9t-11 -16t-9 -15q-45 -53 -46 -102l11 -35q0 -66 7 -76t15 -16q9 -5 27 -27t34 -32t64 -23l23 -10q6 -2 19 -1t18 1q72 -6 120 12q2 0 8 3t14 6q9 3 11 6z" />
    <glyph glyph-name="quotesingle" unicode="'" horiz-adv-x="581" 
d="M477 1475v-54l-8 -32l-2 -111l6 -29l-8 -37q-2 -4 0 -21t-11 -37q-16 -28 -16 -45q0 -18 -26 -44q-6 -9 -16 -27t-13 -25q-4 -7 -11 -26t-23 -36l-19 -19q-25 -29 -39 -31q-15 -2 -19 -4t-20 5t-32 15q-15 9 -20 11t-59 33q-43 1 -45 45q-1 22 19 53q26 42 26 63v21
q0 2 9 33q8 31 6 47q-14 184 -14 197t-5 40q-4 27 13 47q12 18 65 15l145 10l35 -4q6 0 32 3t37 -10t12 -19t1 -27z" />
    <glyph glyph-name="parenleft" unicode="(" horiz-adv-x="843" 
d="M737 1247q0 -38 -29 -59q-11 -8 -16 -14q-6 -10 -16 -32t-17 -32q-6 -3 -15 -15t-9 -20t-2 -12q-3 -4 -15 -14q-16 -14 -19 -26t-5 -19t-2 -11q-35 -52 -35 -73t-4 -31q-4 -9 -11 -29t-17 -45t-8 -43q1 -18 1 -27l-14 -24q-2 -6 -2 -16t-2 -13l-8 -30q-2 -4 -2 -108v-111
q2 -8 8 -36t8 -37q2 -10 0 -20t-2 -14l12 -45q4 -10 7 -36t12 -44q57 -160 118 -250q8 -14 41 -45t41 -51q6 -3 5 -21t-1 -24l9 -41q-11 -33 -11 -49l6 -23q0 -6 -1 -23t10 -47q11 -29 -7 -53t-36 -20q-55 8 -69 19t-24 25t-18 19q-4 3 -10 7t-18 9t-17 9q-4 4 -13 15
q-11 13 -55 43t-79 81q-6 4 -32 35t-30 33t-12 7t-12 21q-5 17 -10 23t-32 38q-28 32 -40 50q-51 84 -91 235q-4 12 -16 40t-14 46q-25 150 -6 332v62l10 32v35q13 50 31 93q18 44 28 71t14 35t4 19q2 21 17 34t26 41q16 39 29 49t22 28q10 18 17 29q9 11 15 16t10 9t10 9
t9 11l8 16q5 11 8 15q10 10 30 29t44 47q24 29 35 38t35 21t31 16q7 5 13 15t10 15q13 10 65 40t77 21q35 -10 34 -59l-6 -41l6 -35l-8 -45l2 -48v-22z" />
    <glyph glyph-name="parenright" unicode=")" horiz-adv-x="833" 
d="M352 554q0 103 -2 108l-8 30q-2 2 -2 8v13q0 4 -2 8l-14 24v48q-4 14 -22 59t-19 74q-2 29 -33 67q-2 6 -6 24t-18 30q-13 12 -17 16q-2 4 -2 12t-2 12q-4 5 -11 13t-12 10q-6 10 -16 32q-16 35 -35 48t-22 35q-4 22 -6 31q-1 9 1 32t2 29l-8 45l6 35l-6 41q0 49 35 59
q25 10 82 -24t66 -46q14 -22 47 -37q33 -14 57 -44q23 -30 31 -36t19 -18q11 -10 21 -19q22 -21 31 -50q8 -8 27 -24t28 -34q9 -17 14 -23t14 -16q17 -18 30 -51t29 -46q16 -14 16 -46q19 -38 28 -67t25 -71t23 -65v-35l10 -32q2 -8 1 -30t-1 -32q18 -182 -6 -332
q-2 -18 -14 -46t-17 -40q-54 -210 -140 -296q-27 -29 -31 -43q-3 -15 -7 -20t-12 -11q-8 -7 -34 -37t-34 -36q-6 -6 -24 -30q-18 -23 -59 -52q-42 -29 -53 -43q-11 -15 -23 -20q-11 -5 -26 -12t-25 -23q-12 -14 -26 -26t-50 -18t-49 12q-26 36 -3 82q2 6 1 24t-1 23l6 23
q0 14 -10 49l8 41q0 6 -1 23t5 22q7 19 41 51q33 32 41 45q61 90 119 250q7 17 11 43t6 34t7 23q5 14 7 25l-2 29q0 22 14 78q2 8 2 111z" />
    <glyph glyph-name="plus" unicode="+" horiz-adv-x="1325" 
d="M524 150q11 44 11 96t2 69l6 97q0 4 3 21t-9 24q-4 8 -32 0t-56 -8h-76l-76 -13l-45 8q-20 2 -59 1t-51 23q-3 9 3 21t7 19l-7 36q0 4 3 30t-1 30l-8 33q1 19 13 27t30 12q10 8 104 6t106 -1q10 1 22 2t22 2t20 0q11 -1 41 -11q31 -10 46 8q4 8 1 23t-3 24v107
q0 14 -7 52t-2 53t6 29t1 40q0 27 11 49t28 14q18 -8 24 -8l37 6l61 -4l33 8q21 0 28 -12t11 -31q8 -12 5 -109t-3 -114l-2 -35q0 -10 2 -26t-2 -42t4 -30t40 -2t58 2h31l64 10l47 -4q12 0 33 7t112 -9q2 -2 4 -6q1 -4 9 -14t8 -17l-13 -35l9 -16q2 -8 1 -40t-1 -40l4 -33
q0 -30 -61 -30h-34q-4 1 -21 -5t-28 -4l-59 9h-83q-32 0 -66 4q-35 4 -46 2q-12 -10 -14 -45t-1 -46q1 -10 1 -26v-21l4 -100q0 -8 -3 -24t-1 -23l6 -37q4 -43 -8 -113q-6 -4 -17 -12t-22 -8l-35 12q-16 -8 -18 -8h-78q-2 0 -20 -3t-32 7t-12 45q1 35 -2 43z" />
    <glyph glyph-name="comma" unicode="," horiz-adv-x="614" 
d="M147 294q0 56 61 51q17 -1 28 2t28 3l40 -6h14l40 6q6 2 16 -1t15 -3l27 8q14 6 44 2t38 -18q4 -4 3 -18t0 -18q1 -3 1 -63v-65l-4 -55q0 -5 3 -17t1 -18t-8 -15t-7 -16l2 -20l-16 -76q0 -16 -12 -38t-23 -64q-11 -43 -22 -64q-12 -19 -20 -37t-16 -29q-7 -11 -44 -37
t-61 -19q-25 7 -53 29l-27 21q-9 5 -21 5q-54 2 -78 51q-8 24 25 84t33 72v16l12 30q2 23 0 64t-1 77t-11 138z" />
    <glyph glyph-name="hyphen" unicode="-" horiz-adv-x="907" 
d="M753 240h-22q-17 -17 -31 -13l-38 13h-66l-59 8l-29 -8l-25 8q-14 4 -51 0l-29 -8l-34 8l-31 -8q-8 -2 -33 -1t-33 1l-49 -17l-28 10q-6 2 -30 1t-28 10q-17 20 -11 46q5 25 5 32l-4 52q0 7 2 42q2 34 -3 50t-3 48t27 45q25 12 69 8q44 -5 68 -2l39 6l59 -8l158 10l50 -8
l62 6l30 -6q5 0 12 5t12 8q26 3 69 -13l13 -53l-7 -49l4 -23q7 -41 0 -110l5 -47q1 -25 -13 -34t-27 -9z" />
    <glyph glyph-name="period" unicode="." horiz-adv-x="589" 
d="M119 219l4 35q0 8 -5 40t6 49t37 23t36 0q10 -4 28 -11t35 5q91 -6 117 0t44 9t35 -11t17 -84l-6 -53l8 -99q0 -11 -2 -48q-8 -53 -31 -66q-41 -20 -82 -12l-47 10l-51 -8l-29 6l-26 -4q-53 -2 -80 29q-12 13 -10 45t2 145z" />
    <glyph glyph-name="slash" unicode="/" horiz-adv-x="1576" 
d="M1370 1595q10 0 12 -2t14 3t15 2q2 -3 11 -2q10 1 16 -4t21 1t27 2t15 -12q2 -8 -3 -34t-35 -72q-29 -46 -53 -82t-58 -102q-35 -66 -46 -80t-21 -35q-9 -21 -16 -34q-8 -16 -24 -38q-15 -23 -20 -40t-20 -34q-14 -17 -46 -76q-31 -58 -40 -74t-20 -29q-22 -26 -34 -62
q-7 -11 -21 -31t-19 -30t-12 -25q-13 -29 -28 -46q-21 -24 -34 -52t-56 -99q-43 -70 -55 -99q-11 -29 -32 -59t-39 -66q-17 -36 -45 -80t-37 -60t-17 -32q-8 -18 -12 -25t-18 -29q-12 -22 -18 -30t-11 -25q-9 -29 -30 -54t-30 -51q-10 -25 -13 -31q-2 -6 -54 -96t-78 -150
t-58 -65q-20 -4 -55 1t-48 2t-25 -3l-62 8q-4 0 -20 -3q-58 -11 -66 28q-3 17 12 35q16 16 26 28t23 32q12 20 11 23q-2 3 12 25t31 39t27 45q11 27 35 56q23 28 32 44l13 30q16 38 39 71t52 88t66 100t41 53t18 40t17 38t41 68q46 75 50 96q5 21 42 76q51 75 64 110
q12 35 32 59t27 42t13 26t20 31q16 23 22 32t14 29t22 40q15 19 22 31t17 37q10 26 17 34q4 10 15 25q18 24 26 45t33 58t54 99t45 82q16 19 24 37q7 18 23 38t32 62q16 43 28 60t19 30q2 8 13 10t18 4t32 1t29 -4t18 1q13 4 17 2t14 -2z" />
    <glyph glyph-name="zero" unicode="0" horiz-adv-x="1398" 
d="M808 1549q4 -3 12 -8t32 -5t31 -6q6 -6 49 -24t52 -22q9 -5 17 -16q15 -11 29 -14t27 -19t33 -24q10 -9 18 -27t31 -44t57 -80t45 -93v-30q7 -42 27 -87t18 -58t-2 -52t10 -64t4 -131q-2 -6 -7 -18t-5 -21t6 -36t4 -39l-10 -41q-2 -12 -2 -38t-3 -54t-15 -73
q-12 -46 -25 -64q-12 -18 -13 -46q-2 -31 -20 -45t-35 -51q-18 -37 -30 -45q-13 -8 -19 -11q-21 -10 -32 -29q-12 -19 -20 -28q-8 -8 -70 -42t-90 -46t-35 -19t-13 -9t-22 -1t-22 0t-20 -8q-12 -7 -24 -9t-38 1q-26 4 -33 4l-39 -6q-10 0 -30 5q-20 4 -28 6q-6 2 -20 1
t-22 1t-18 12q-17 15 -39 12q-42 -6 -173 113q-4 4 -16 8t-18 18q-7 14 -12 18q-6 3 -14 6t-12 5q-4 4 -8 14t-34 50t-37 50q-5 9 -8 25q-4 20 -22 51q-18 32 -18 87q-19 86 -29 117q-9 30 1 89q-1 9 -5 23t-2 23l7 26l-11 35l11 33l-7 24q-7 40 7 76v49q0 78 8 98t15 35
q11 23 10 45t7 32q8 11 27 64q19 52 35 77t30 37q13 13 43 48q30 34 54 52t46 28t55 35q40 30 101 36q60 6 78 16q18 9 54 -1l49 9l29 -11q8 0 23 4t23 2t12 -5zM563 1233l-4 -8l2 -2h4zM926 578q0 4 -1 9t-2 9t0 7t3 7t3 8t4 14t3 48l6 29l-4 28q-8 24 -8 92t4 82
q4 15 3 23t-11 21q-14 19 -23 71q-9 53 -28 81t-21 43t-6 21q-6 7 -12 13t-12 11t-15 9q-10 4 -14 6q-3 2 -17 6t-16 6q-2 1 -18 4q-18 4 -35 11q-17 8 -37 8q-105 -37 -117 -68q-2 -5 -4 -13q-4 -16 -27 -38q-2 -6 -5 -14t-8 -23q-5 -13 -18 -35t-18 -36v-35
q-12 -72 -12 -82l4 -29l-6 -32l6 -33q-10 -30 -10 -37l6 -33l-6 -51l12 -35l-2 -37q2 -35 14 -92q4 -14 37 -84q63 -133 160 -143q12 0 36 4t30 3q12 -2 28 11q16 12 29 17q20 6 29 21q9 14 37 49q39 49 43 97q4 49 10 63t6 18z" />
    <glyph glyph-name="one" unicode="1" horiz-adv-x="890" 
d="M772 102v-23q0 -55 -11 -65t-19 -13t-34 0q-24 3 -34 0t-17 -3q-29 10 -39 10t-40 -10l-68 6l-32 -4h-16q-46 0 -55 43q-4 17 3 42q6 25 7 33t-3 24q-4 15 -4 22q10 60 10 84l-2 63l6 31l-4 25q-4 27 -4 170l8 43l-6 31l4 32l-2 57q0 2 10 97l-4 47l6 33l-6 34q0 10 2 32
q7 77 -13 85t-45 -10q-24 -18 -42 -28t-80 -36q-63 -24 -83 -24h-36q-37 0 -37 31q0 20 4 24q2 23 0 68l-8 43l8 53q0 41 2 45q16 25 60 29t51 6q6 2 17 9q20 12 43 15q24 3 36 12t24 17t24 21q17 17 36 26q18 10 33 41q4 4 16 14t18 18t16 33q11 23 17 35q18 35 56 48
q12 2 59 -7h55q27 9 61 5t45 -24t8 -48q-3 -30 -4 -56t-3 -37t0 -21t1 -23q-1 -11 -3 -75t-5 -105t-1 -78l6 -37l-4 -43l6 -33q-6 -42 -6 -94l6 -35q-10 -40 -10 -51l6 -41l-8 -64l10 -35q0 -26 -10 -86v-75q14 -41 8 -56t-2 -120l-4 -34l8 -24q8 -37 4 -53t-3 -22t2 -15
q1 -8 3 -16q2 -9 2 -13z" />
    <glyph glyph-name="two" unicode="2" horiz-adv-x="1261" 
d="M94 28q0 11 1 16t5 11q4 7 6 11t9 11q6 7 20 27t55 61q57 59 106 132q49 72 70 94q21 21 26 29t10 17q7 12 23 24t41 49t29 49t36 49q31 37 41 53q10 17 34 49q23 32 41 58q17 26 29 40q12 13 22 30t21 24q0 6 9 20t12 19q2 6 16 31t14 36v17q2 6 8 18t6 27l2 62
q0 14 -4 28l-8 21q-2 6 -2 13t-6 28q-12 20 -59 44t-103 18t-100 -50q-61 -64 -53 -112t-31 -68q-26 -11 -61 -5q-34 5 -56 5h-59q-2 0 -12 2t-17 1q-6 -1 -21 -6t-24 -5q-66 0 -74 45q-4 22 6 46q11 25 26 97t95 171q16 19 38 47t28 33t24 13t30 23q12 14 34 22q21 8 27 8
t20 -2t18 1q4 2 14 10t15 11q6 3 17 2q12 -1 16 1q82 36 108 10q4 -2 72 0t82 0t21 -6t13 -5t19 0t21 -1t24 -12t32 -14t30 -18q13 -14 43 -33q43 -27 57 -48l12 -18q12 -6 23 -17q27 -41 30 -50q3 -8 5 -24q3 -24 21 -44t18 -36v-20l6 -20l-6 -31l12 -76q-3 -65 -17 -111
t-18 -67t-7 -30t-16 -22t-17 -19t-4 -12q-1 -5 -2 -11q-3 -19 -25 -46q-25 -29 -74 -103t-67 -92l-26 -26q-4 -6 -14 -22q-21 -34 -43 -45q-6 -6 -15 -24t-25 -31q-17 -14 -24 -27t-23 -26q-17 -13 -21 -20t1 -21t29 -11q70 6 113 6l63 -6l39 10l33 -4l35 11l22 -5l31 11
q26 5 47 -7q20 -12 29 -18q8 -9 8 -37t2 -73t-3 -65q-5 -21 -5 -26l6 -24q4 -42 -20 -66t-90 -12q-23 4 -99 8l-26 4q-8 0 -28 -5t-54 -2q-33 3 -37 3l-39 10l-59 -16l-31 6h-53l-31 6q-60 -12 -71 -12t-23 3t-18 2t-17 -5q-10 -4 -17 -4l-40 10q-4 0 -38 -4t-46 -2t-23 -1
q-12 -3 -16 -3h-68l-57 -8q-22 0 -43 13q-21 14 -21 25z" />
    <glyph glyph-name="three" unicode="3" horiz-adv-x="1288" 
d="M568 1241h-22q-52 0 -75 -29q-9 -4 -27 -11q-64 -24 -85 -55q-22 -31 -40 -29q-18 3 -28 15t-23 29l-17 25l-30 48t-46 44q-20 3 -24 7q-3 3 -13 37t6 51q14 17 38 33l57 38q32 22 47 22t29 8q24 14 41 15l80 37q6 0 18 -3t60 5q49 8 84 10l70 -6q8 0 28 4t28 2t20 -9
q15 -10 39 -8t54 -9t33 -13l17 -2q23 0 98 -63q7 -6 19 -14q45 -29 61 -59q15 -30 27 -44q22 -25 22 -53q31 -62 28 -80t-3 -22v-10l2 -18l2 -21v-9q-2 -10 -9 -38t-11 -59q-3 -30 -11 -40t-21 -31t-32 -47l-30 -24q-19 -15 -21 -16q-42 -21 -37 -40q0 -15 38 -28t48 -20
t24 -23t34 -35q33 -30 39 -46q6 -17 10 -37q3 -20 16 -50q12 -30 14 -44t-1 -33t-3 -25v-47q0 -41 -1 -43q-10 -16 -16 -53q-5 -37 -17 -52t-16 -23t-6 -22q-2 -15 -8 -22q-4 -6 -24 -28t-25 -22q0 -24 -51 -56q-4 -2 -12 -13t-38 -22q-30 -12 -38 -17l-24 -15
q-32 -22 -45 -25q-13 -4 -37 -14t-52 -14l-63 2l-31 -9l-31 7q-21 -7 -47 -7l-26 2l-29 -8q-32 0 -70 19l-28 -2l-35 12q-8 2 -31 5t-47 22q-6 2 -22 5q-24 4 -34 14t-42 20q-32 11 -45 19q-13 9 -27 24t-20 19q-63 34 -68 62q-4 29 10 41q38 32 77 72q38 39 51 47t20 14
q45 59 63 60t29 -15q12 -16 24 -28t80 -58q4 -2 14 -3t13 -3q4 -2 13 -9q8 -7 16 -10t44 -8q36 -6 50 -10q16 -4 24 -2l25 7q44 0 72 8q61 13 99 71t34 101q-2 6 -1 23q2 33 -30 81q0 40 -74 58l-20 8q-18 4 -96 2l-27 8q-4 0 -51 -5t-51 3l-21 4q-9 9 -8 36q2 27 2 69v44
q0 2 -6 36t-5 39t1 38q6 31 39 31q32 0 74 -4t59 -5t36 8q18 9 40 14q50 11 96 91q6 10 6 34q1 24 -21 77q-32 78 -96 78v6l-37 12q-16 4 -46 -1t-37 -5z" />
    <glyph glyph-name="four" unicode="4" horiz-adv-x="1337" 
d="M1241 558l4 -94q0 -10 3 -30q3 -19 -5 -36t-19 -20q-12 -3 -32 -1t-27 2l-49 -6l-30 4q-24 1 -23 -29q2 -30 2 -37l-8 -36l8 -39l-2 -43l4 -76l6 -25q6 -54 -44 -84q-28 -16 -45 -14q-16 4 -34 10t-26 6l-58 -8l-53 6q-36 -18 -80 -3q-36 13 -26 68q4 21 4 25v10l-6 39
l10 39q2 18 0 47t6 59t8 65t-8 39q-9 4 -23 -2q-14 -5 -18 -5l-70 4l-32 -10l-27 6q-10 0 -34 -5q-23 -5 -51 -7t-111 1t-122 1l-43 -10l-36 4q-62 -3 -62 39q0 26 4 34q2 31 -1 75t7 74q11 31 24 42q13 12 18 23q6 12 10 16l24 24t29 35q8 14 53 81t55 82t27 26q0 14 23 40
q22 26 24 40q10 4 21 22q10 18 46 58t60 86q24 45 66 87q159 231 162 240t16 17q12 8 90 10t97 -2q20 -4 28 0q29 14 64 2q36 -12 33 -61q-1 -17 -4 -44t-3 -35l-6 -49l6 -45l-6 -28l6 -50l-6 -41q0 -20 6 -161l-6 -45l6 -29l-10 -39v-78l10 -53q-12 -48 -12 -77t12 -35
t18 -4q7 1 17 0t58 4t61 -5q25 -8 26 -49q2 -8 -1 -20t-3 -22zM731 679q2 9 2 13t2 23q2 20 -6 69t0 140q14 28 11 46t-5 19q0 3 2 19t-2 18q-4 10 -18 8q-26 -4 -47 -46q-10 -19 -42 -54t-49 -70t-47 -69q-30 -33 -38 -45t-28 -52t-13 -51q1 -10 25 -4t40 2t23 -3q8 1 21 6
t22 3l32 -8q6 -2 18 0t15 2l49 -2q25 0 33 36z" />
    <glyph glyph-name="five" unicode="5" horiz-adv-x="1255" 
d="M1057 1438v-66l-6 -31l10 -33l-4 -26q0 -6 3 -29t-7 -39q-8 -10 -21 -10t-35 13l-36 -11q-12 -2 -35 1t-31 3l-68 7l-57 -7q-6 0 -26 5t-60 1t-50 -4t-32 11l-29 -6l-26 6q-57 8 -82 -15q-8 -6 -9 -21t-8 -35t-8 -28l4 -41l-8 -65q0 -12 10 -12l25 6q4 2 15 2h18
q94 31 133 33q39 1 64 -1q26 -2 42 4q31 11 45 -10q46 -12 54 -17q14 -9 27 -9t45 -19t41 -21q28 -4 96 -89q3 -5 15 -19t17 -28t9 -20t15 -20q11 -13 15 -22q66 -145 29 -338q-2 -6 -2 -15l-2 -34q-3 -23 -15 -51t-16 -34q-17 -21 -20 -38t-19 -36q-16 -18 -28 -41t-19 -33
q-6 -6 -18 -16t-32 -28q-20 -20 -54 -42t-40 -27q-8 -6 -12 -8t-14 -4t-14 -4l-64 -29q-6 -2 -19 1t-30 -8q-16 -11 -24 -13t-36 -2q-28 1 -79 -3t-72 -2l-43 13l-32 -11l-35 13q-15 4 -41 10t-42 6q-32 0 -44 12t-69 36q-56 23 -77 39q-22 15 -28 21q-5 6 -7 6q-2 1 -7 5
t-6 6t-5 7t-6 32t38 62q39 35 54 57q90 155 144 94q9 -10 25 -19q17 -8 24 -12q2 -4 10 -11t16 -15t27 -13t43 -16l26 -12q4 -2 13 2l10 2l25 -6l24 6l30 -3q30 -3 34 0t20 14t34 15q19 4 28 8q82 55 102 161t-25 190q-10 20 -19 26t-17 12t-23 13q-17 8 -23 11t-12 11
q-13 17 -32 17h-17l-25 8q-10 2 -29 -3t-59 -7t-53 -12q-12 -10 -21 -18q-8 -9 -14 -13q-6 -5 -16 -13t-21 -16t-22 -30q-37 -72 -103 -34q-28 16 -66 27q-38 9 -55 25t-18 52t9 77t12 59l12 68q2 18 2 60t4 79l10 33l-4 24q0 10 7 21q7 12 9 22t-2 39q-3 29 -3 41l10 33
q2 0 1 32l-1 32l8 51q0 14 -6 26q-3 97 79 97q29 0 56 -6t31 -7h65q12 -6 20 -6h15l35 6q39 0 69 -6l37 6q24 -8 31 -8l76 8h123l35 -4q8 0 32 8l76 -4l25 3q25 3 24 -3q23 -11 23 -69z" />
    <glyph glyph-name="six" unicode="6" horiz-adv-x="1345" 
d="M150 823q0 9 3 15t16 21t17 23t4 19q0 13 2 19t7 13q4 7 9 14q8 11 11 30t23 40q19 21 48 77q29 55 36 67q6 12 14 32t44 64q37 45 66 85t38 50q8 9 26 24t25 22t16 24q10 17 24 25t38 38q24 31 43 42q18 12 37 13q19 2 43 -22t29 -37t9 -20q4 -4 23 -16t49 -57
q29 -46 37 -54t11 -12q22 -29 -32 -66q-88 -52 -194 -170q-8 -8 -35 -26q-4 -4 -8 -16t-25 -29q-45 -36 -35 -64q4 -15 17 -8q14 8 17 8q3 1 40 13t55 12l45 6l37 -6l27 6q27 -2 61 -10t66 -13q31 -5 71 -32q41 -27 49 -31t20 -18t16 -15q4 -2 7 -4t9 -5q17 -8 39 -46
q21 -37 31 -49q22 -28 34 -78q41 -92 43 -164l-6 -41q0 -6 4 -46t1 -48t-11 -26q-11 -25 -15 -62q-6 -37 -18 -50q-12 -14 -14 -18q-6 -13 -9 -27q-3 -15 -19 -31q-17 -15 -25 -29t-11 -19q-4 -4 -17 -11t-26 -28q-14 -20 -20 -27q-8 -6 -28 -16t-39 -27q-19 -18 -45 -26
q-25 -9 -49 -15t-35 -10t-46 -12q-18 -18 -49 -17q-31 2 -47 -1t-32 2q-15 5 -21 5l-37 -6q-4 2 -12 4l-16 4q-7 3 -15 5t-26 2t-25 2q-8 2 -30 1t-34 9t-17 12t-15 0q-11 -2 -25 3t-14 14q-4 2 -18 5t-24 16q-17 20 -29 23t-24 9t-24 18t-36 27t-29 29t-7 18q-27 27 -38 43
t-21 57q-23 23 -23 38q-1 16 -17 54t-21 76t3 108t11 106q2 36 9 52q9 22 9 39v17l16 47q3 6 3 14zM438 577v-16q-16 -72 -10 -95t16 -35q9 -13 16 -37t23 -34q15 -10 19 -13t7 -8t29 -27t82 -31q58 -9 78 -5l110 42q15 5 21 10q68 57 82 141v19l-4 36q0 2 2 16t0 18
q-38 57 -43 77t-39 43q-2 2 -10 12t-18 16t-33 11q-24 4 -46 11t-61 9q-8 8 -24 8l-43 -22q-21 0 -38 -13t-27 -16q-30 -6 -48 -41t-39 -61q-2 -6 -2 -15z" />
    <glyph glyph-name="seven" unicode="7" horiz-adv-x="1273" 
d="M514 1210l-78 2l-84 5l-37 -9l-51 4l-65 -4q-9 0 -29 -5t-35 -3q-39 8 -45 47l10 45q2 16 -2 47t-4 37l6 60l-4 47q0 31 15 39q19 7 45 2q26 -4 47 -4t28 2t16 6t15 4l34 -8l42 6q20 -10 29 -10l108 4q84 0 158 -4l33 -7l61 11l35 -6l22 4l60 -9l41 7l49 -2l90 8l23 -4
l79 8q47 0 62 -25t7 -38q-21 -36 -36 -48q-8 -10 -18 -39q-25 -54 -137 -284t-124 -258t-14 -37t-5 -17t-15 -24t-16 -24t-5 -23q0 -15 -3 -21t-9 -13t-13 -14q-13 -13 -15 -29t-12 -31q-11 -16 -18 -43q-8 -27 -18 -41q-10 -15 -32 -61t-36 -83t-21 -48t-13 -23t-12 -25
q-6 -12 -24 -59t-30 -61q-12 -13 -15 -23t-11 -27q-12 -28 -14 -48t-13 -29q-40 -34 -92 -34l-45 12l-53 -4l-31 14l-31 -14l-28 2q-6 0 -27 -9t-70 9q-48 18 13 105q28 29 28 49t25 45q4 6 8 18q4 11 7 17t10 15q6 9 18 29t47 96q35 78 48 102t27 53q13 29 19 37t9 18
t12 12q4 28 23 54t25 35t14 32q9 23 15 34t15 40q4 6 13 18t36 71t44 84q18 25 44 80q25 54 31 66t17 31t15 29q23 4 27 18q4 8 -3 20t-17 11q-24 -8 -33 -8l-37 2l-31 -11l-39 5z" />
    <glyph glyph-name="eight" unicode="8" horiz-adv-x="1394" 
d="M510 1548h35q29 10 41 11l50 -7l34 11q12 2 36 -1t31 -3l56 4l63 -15q159 -31 206 -82q18 -19 31 -26t23 -18q10 -12 57 -88q58 -94 58 -169q0 -29 -8 -61q-5 -88 -25 -122q-24 -42 -78 -84q-54 -43 -51 -64q0 -20 30 -25q30 -4 85 -61q14 -29 25 -35q11 -5 19 -9
q17 -8 18 -25q1 -18 26 -69t27 -70q3 -18 -1 -28t-3 -16t2 -14t3 -13q2 -6 3 -25q-5 -139 -49 -178q-13 -12 -16 -22t-5 -16t-4 -11q-11 -33 -107 -111q-6 -4 -22 -24t-33 -20q-17 -1 -25 -5t-20 -11l-24 -14t-25 -11q-14 -3 -49 -7q-34 -4 -46 -7t-27 -9q-28 -11 -47 -8
q-20 4 -42 4l-43 -12l-35 8l-78 -8q-10 0 -80 14q-4 0 -18 -2q-19 -3 -34 10q-15 12 -27 12q-11 0 -15 2q-114 32 -190 108q-24 24 -39 36q-14 11 -21 28q-6 17 -10 23l-17 21q-17 22 -24 36l-8 41q-2 7 -9 21q-12 23 -12 50l2 62l-4 74q10 82 62 170q25 41 106 109
q4 4 16 7t19 13q12 25 -9 41q-22 16 -42 19q-10 27 -22 39t-24 22t-16 18t-9 32t-17 65t-14 58t4 59t5 60t6 35q7 16 23 37q15 21 26 47t26 34q16 7 20 11t7 11q3 6 6 13q3 8 7 12q27 27 54 34q102 70 128 77t48 7zM597 287q18 -14 65 -8t61 5q18 -1 43 11h25q90 18 133 102
q20 39 22 54l-8 28q0 6 6 29q7 27 -7 39q-15 12 -22 39q-6 28 -22 34q-18 7 -36 26q-19 20 -33 22t-40 18t-42 13t-33 -8q-18 -5 -29 -5l-59 -2q-4 -2 -13 -8t-39 -15q-29 -9 -43 -21t-26 -30l-14 -21q-3 -3 -5 -6t-5 -6t-5 -7t-3 -12q-1 -9 -3 -11q-34 -97 0 -131l6 -6
q29 -56 41 -66t26 -26t28 -17q13 0 31 -14zM508 1067q0 -8 -2 -20t6 -19q49 -70 164 -74q4 0 24 -10q10 0 58 12t81 54q32 42 35 100l5 30l-11 39v9q0 14 -31 52q-31 39 -60 42t-44 13q-16 10 -23 8q-7 -1 -37 -9t-42 -12t-35 -13t-44 -27t-25 -31q-3 -13 -17 -39t-12 -46
q2 -19 6 -35t4 -24z" />
    <glyph glyph-name="nine" unicode="9" horiz-adv-x="1333" 
d="M1239 1040q0 -86 -13 -168q-12 -81 -18 -100t-28 -70t-55 -132q-32 -81 -60 -107q-2 -4 -10 -10q-7 -5 -13 -13t-12 -27t-10 -27t-14 -17q-10 -11 -18 -23t-37 -55q-44 -67 -55 -75q-12 -8 -34 -36q-33 -44 -43 -50q-9 -6 -13 -10q-3 -4 -9 -18q-7 -15 -31 -36l-18 -15
q-4 -4 -12 -14q-7 -10 -15 -17q-8 -8 -12 -10q-10 -5 -28 -23t-36 -22q-17 -3 -24 5t-13 16l-9 12t-16 11q-20 11 -33 39t-31 42q-18 13 -28 30t-16 23q-6 3 -15 12t-18 16t-15 34t46 54q23 11 33 21t40 28t42 32q16 12 40 45q30 42 60 64q29 22 37 49q31 14 45 45t-7 36
t-35 -7q-58 -46 -241 -33l-20 8q-68 0 -82 14q-17 17 -40 23t-48 32q-82 64 -88 74t-8 19t-15 21q-16 17 -26 50q-10 32 -23 48q-20 23 -19 43t-13 48q-14 27 -12 44q3 17 -2 65q-5 46 0 74t14 55q14 41 17 70q4 28 20 47q16 20 23 41t28 43q19 22 47 56q56 68 133 93
q2 2 6 5q4 2 6 6t9 12t25 10q17 2 56 16t124 20q112 9 170 -3q57 -12 71 -11t25 -7q11 -9 15 -10t15 -2q10 -1 14 -3q5 -2 9 -4t7 -5t8 -7t22 -10q17 -5 23 -8t15 -10q8 -7 13 -9q168 -110 196 -223q2 -8 1 -24t2 -23q3 -9 9 -29t11 -31l12 -29q2 -2 2 -88zM909 1076
q0 5 2 12t0 12q-10 47 -65 104q-2 2 -8 11t-15 18q-53 35 -135 43h-10l-23 -4q-4 0 -21 1q-16 1 -24 -3t-27 -16t-31 -16q-12 -5 -21 -8t-25 -10t-23 -22q-6 -16 -15 -28t-13 -18q-4 -7 -9 -15l-6 -52q-20 -170 88 -231q16 0 50 -18t55 -19q125 -14 205 55q14 12 30 38
t23 35q8 9 17 29t5 58t-4 44z" />
    <glyph glyph-name="colon" unicode=":" horiz-adv-x="583" 
d="M370 934q21 0 39 3t35 -7t23 -23q4 -2 1 -40t-3 -40l4 -155q0 -59 -2 -64q-7 -23 -33 -31q-26 -7 -51 3t-41 12t-82 -7q-64 -9 -80 -3t-23 4t-21 1t-13 25l4 33q-6 102 0 150q0 14 -7 42t-9 43t12 38q13 13 28 15q15 1 24 2q18 1 45 -3t34 -4l41 4q4 0 18 -3q15 -3 26 1
q10 4 31 4zM125 324q0 20 4 20q18 18 92 18q11 2 29 -6t26 -8l31 8q76 10 119 -2q28 0 37 -12t8 -50q-2 -38 -2 -40l-6 -72l6 -87q1 -56 -19 -73q-20 -16 -44 -20l-54 16l-36 -14q-5 0 -14 7t-18 6t-36 -11t-41 -10l-31 10q-31 8 -42 23t-12 43t6 46t7 25q-10 42 -9 66
t-1 31l-8 32l8 31v23z" />
    <glyph glyph-name="semicolon" unicode=";" horiz-adv-x="610" 
d="M502 294q0 -46 -4 -65q-4 -18 -3 -61t-5 -77t-12 -51q-7 -16 -6 -26t-6 -24t-8 -25t-2 -26t-9 -25q-7 -10 -19 -55t-26 -56q-13 -12 -15 -18t-8 -19l-9 -20q-24 -51 -73 -59q-33 -2 -96 43q-8 4 -14 4l-15 2q-4 2 -12 9q-9 8 -30 14q-40 12 -40 47q0 19 18 44
q57 81 54 197q0 35 -6 207l-9 49q0 53 72 56q30 1 47 10q10 -1 23 -7q12 -6 58 -3t79 0t45 -1t22 -8q9 -10 9 -56zM494 840v-105l-5 -20v-6q0 -12 6 -36t3 -55q-6 -29 -45 -34q-4 -2 -13 0q-8 2 -13 2h-8l-38 -2q-4 0 -12 5t-15 3l-24 -4q-5 -2 -18 0t-19 2t-45 -10
q-79 -20 -105 14q-6 6 -6 15t1 17t2 12q1 5 2 11t2 10q1 3 -1 11t-2 24t9 41l-5 72l9 33q0 8 -12 32t-4 41q7 16 22 18q14 3 23 6t32 3l45 -4l76 -4q18 -2 53 2t45 5t28 -5t27 -17q8 -11 7 -42q-2 -31 -2 -35z" />
    <glyph glyph-name="equal" unicode="=" horiz-adv-x="1325" 
d="M1127 162h-33q-25 -13 -50 -8l-59 8h-102l-95 6l-43 -6l-38 6q-46 4 -97 -2l-26 -4l-56 6l-47 -6h-102l-76 -12l-47 8q-8 2 -45 1t-43 7q-30 10 -16 37q6 12 6 16l-6 38q0 5 3 31t-1 29l-9 32q1 22 13 29t28 11q12 8 106 6t106 -2q11 0 31 3t33 2q14 -1 30 -2l32 -2
t31 -1l244 6l80 -6l96 4l45 -4q32 8 56 10t91 -10q3 -4 11 -15t8 -22l-10 -34q0 -9 8 -17q2 -8 1 -40t-1 -40l4 -32q0 -31 -61 -31zM870 768q42 6 97 6l47 -4q6 0 31 7t114 -9q1 -4 11 -18t10 -19l-13 -35q0 -2 4 -8q3 -6 5 -11t1 -37t-1 -40l4 -32q0 -31 -61 -31h-34
q-4 1 -21 -5t-28 -4l-59 9q-16 2 -51 1t-52 -1q-36 6 -92 6l-43 -6l-41 6q-81 7 -120 -6l-57 6l-98 -6h-52l-76 -13l-45 8q-10 2 -47 2t-43 7q-28 14 -19 31q8 18 9 24l-7 37q0 6 3 31q3 24 1 28q-5 9 -9 31t10 30q14 7 32 11q10 10 104 7t111 -3q12 6 60 6l92 -6l246 6z
" />
    <glyph glyph-name="question" unicode="?" horiz-adv-x="1052" 
d="M336 433q-4 1 -29 1t-33 15q-12 27 -7 67t5 56v22q17 33 21 52l6 28q2 4 7 10q14 17 16 36q2 18 22 42q19 25 21 39q20 15 27 25l17 26q29 45 45 62q17 18 30 33t31 36t23 34t23 32q18 20 23 28q26 39 26 111t-39 102q-6 6 -20 9q-13 3 -19 5t-15 10q-9 7 -27 14t-63 -7
q-44 -14 -75 -39q-7 -13 -34 -34t-52 -12q-26 9 -47 37q-24 32 -42 50q-19 18 -29 37q-9 18 -13 24q-5 6 -27 26t-30 38t4 38t28 26t23 10q6 4 47 22t64 32q23 12 74 30t59 19q9 1 29 0t30 1l43 6l92 -16q9 -2 27 -1t27 1q30 -10 48 -9t28 -12t26 -17q30 -6 44 -23
q15 -17 33 -24q19 -7 25 -12q5 -5 11 -15t35 -43q29 -34 39 -59q10 -24 13 -27q28 -28 33 -126q4 -99 0 -121t-11 -35t-9 -19t-1 -22t-2 -22t-17 -22l-21 -24l-12 -18q-6 -8 -10 -14l-9 -18t-25 -35t-36 -42q-32 -37 -45 -47q-13 -12 -20 -26q-9 -18 -19 -28t-18 -20
t-23 -31q-14 -21 -28 -31t-18 -29q-5 -18 -8 -22q-34 -45 -38 -77q-12 -81 -28 -102t-48 -12t-103 5q-71 -5 -75 -4zM592 127q0 -4 1 -32t-1 -32q-12 -55 -33 -61q-2 -2 -14 -1t-17 1l-42 -6q-7 0 -21 2l-31 10q-8 2 -23 0t-24 -2q-29 14 -49 10l-27 -8q-19 -4 -39 4
q-41 16 -35 67q11 98 11 212l-2 36q0 33 24 38q23 0 28 1t32 -6t39 -1q12 5 18 6l27 -13q14 0 30 8l37 -10q29 10 37 11t35 -5t34 -14t7 -23l-2 -57v-135z" />
    <glyph glyph-name="A" unicode="A" horiz-adv-x="1589" 
d="M922 399h-246q-6 0 -42 3t-54 -7q-21 -21 -21 -45l2 -24q-2 -6 -12 -26t-14 -55q-3 -35 -19 -70t-18 -47t-4 -39q-6 -80 -53 -87q-13 -2 -29 -3t-28 -4t-38 5q-25 8 -35 8l-47 -10l-35 4q-66 -2 -78 1t-28 5t-23 8q-14 16 -11 52t11 45q8 10 25 27t19 31q1 15 3 22
q43 91 58 148q15 56 30 80q15 25 18 33t4 22q1 12 3 20t10 19t12 19t6 30q3 22 6 29t8 23t8 22t9 17q5 11 9 17t5 23q2 36 27 73q0 4 19 47t20 62q2 18 4 24q-1 6 9 18t10 21v14q2 6 7 16q9 17 9 26v14q2 6 13 19t18 39q6 28 9 36t10 17q12 15 12 28t16 46t18 54q3 21 7 35
t20 51q15 37 19 49t5 26q1 16 4 22t10 14t9 12t8 35t23 44t42 12t49 0t63 -1l28 -4l33 10q8 2 45 -2l26 -2q50 0 50 -53l14 -43q2 -4 7 -13t24 -74q18 -65 36 -103t57 -153q39 -116 71 -191q31 -74 37 -94t10 -46t7 -36t14 -30q12 -20 14 -26t4 -20q3 -19 23 -58t42 -120
q21 -81 29 -99t15 -27q14 -18 16 -45t42 -115q39 -87 46 -100l10 -20q8 -24 3 -50t-32 -34q-5 -3 -18 3q-12 5 -16 5l-47 -6l-40 6l-59 -6l-37 4l-55 -6q-58 0 -73 39q-3 8 -7 18t-4 27q-14 57 -16 69t-15 44q-14 32 -20 96q-5 63 -31 94q-21 21 -60 16q-39 -4 -44 -4z
M821 1046q0 31 -24 31q-16 0 -20 -11q-15 -34 -15 -49v-20l-45 -118v-14q0 -14 -10 -30q-11 -16 -13 -23t-2 -22q0 -14 -2 -20t-9 -21t-7 -21v-21q9 -33 74 -27q23 2 24 2l33 -2l26 8l43 -6q29 4 35 6q25 14 15 66q-4 13 -11 22q-6 10 -8 18t-5 16q-3 9 -4 17q-1 9 -3 17
t-5 16t-6 20t-16 45q-13 34 -17 59q-5 24 -17 40q-11 16 -11 22z" />
    <glyph glyph-name="B" unicode="B" horiz-adv-x="1363" 
d="M418 1542q102 0 106 -2l58 6l43 -10q22 0 43 6l28 -6l23 6q6 0 17 -5t18 -7q102 -12 129 -19q143 -43 219 -147q2 -4 11 -9t14 -23q5 -16 21 -44q70 -121 30 -258q-4 -12 -14 -52t-44 -81q-53 -58 -79 -72q-25 -14 -29 -19t-3 -17q2 -21 34 -29t38 -12t36 -21t43 -38
q12 -21 18 -27t28 -29t29 -36q8 -13 8 -50q14 -27 15 -31t0 -30t2 -33q7 -132 -26 -179l-20 -24q-29 -66 -39 -78t-23 -21t-25 -24q-12 -14 -21 -18q-10 -3 -16 -7t-12 -7t-34 -25q-29 -22 -43 -25q-14 -4 -28 -3q-15 1 -21 -1t-19 -8t-21 -8t-19 -2q-17 0 -54 -9t-45 -14
q-8 -4 -16 -4l-28 10l-82 -8l-107 10l-41 -12l-43 10l-43 -2l-54 2q-13 0 -26 2l-51 -12q-10 -2 -24 2t-21 4l-45 -4q-14 -2 -45 10t-35 18t-7 28t-1 32l8 33l-16 63l16 39q2 15 1 65t-1 68l6 29l-10 113l10 36l-10 58l8 119l-12 90l8 28l-4 29l4 72q0 4 -5 19t-3 22l10 30
l-2 60l6 80l-6 37v135q0 41 -5 53t-5 16l6 56l-8 52q0 25 12 44q12 18 92 18l86 -8h107zM741 608l-47 13q-55 -14 -139 -7l-38 4h-13q-13 0 -25 -11t-9 -33q3 -23 3 -30q0 -6 1 -24t-3 -72t-1 -70t3 -22t-2 -12t-5 -19t7 -20q9 -6 23 -2t20 0q2 -6 44 -5t106 -2
q151 -7 208 52q33 33 35 84q2 6 7 18t4 19q-8 66 -60 100q-25 8 -54 24q-28 16 -36 15h-29zM550 893q14 0 17 2l25 8q2 0 37 -10q29 0 55 8t43 10q16 2 36 9q21 7 49 36q28 30 36 50t6 65l4 41q-6 51 -53 95t-100 39q-16 -1 -33 7q-16 8 -48 2t-44 -6l-35 6q-3 2 -13 -1
t-22 1q-18 6 -29 -10q-10 -16 -11 -44q-1 -27 2 -77t2 -61q-1 -13 -2 -27t-3 -22l4 -45l-6 -48q0 -9 6 -22q9 -9 36 -8q27 2 41 2z" />
    <glyph glyph-name="C" unicode="C" horiz-adv-x="1552" 
d="M463 713v-21q3 -12 21 -60t19 -60q2 -20 16 -33t20 -32t12 -26q63 -82 133 -121q6 -4 25 -8t44 -19q25 -16 38 -16q14 0 57 -9t100 -1q128 20 178 68q49 48 69 79q19 31 42 30t33 -10t18 -25q8 -17 16 -25t17 -20t25 -26q16 -16 34 -44t26 -35q8 -8 22 -20q55 -51 17 -89
q-3 -2 -29 -28t-55 -42q-30 -18 -39 -22t-20 -9q-10 -5 -22 -9t-49 -26t-67 -30q-37 -10 -55 -20q-18 -11 -39 -8q-20 3 -47 -6t-120 -6l-41 -4q-16 2 -45 12t-39 12t-31 -6t-42 5t-91 31t-82 27q-35 24 -51 27t-27 16q-10 13 -16 18t-21 11t-25 13t-26 29q-17 22 -24 30
q-41 27 -57 59q-59 59 -65 85q-7 27 -30 58q-24 31 -24 55q0 23 -13 43q-13 21 -15 29t0 26q1 24 -10 39q-11 16 -15 71l6 22q-2 10 -9 28q-23 57 -8 171l11 24q0 8 -1 30t1 28t8 16q8 13 14 64q7 51 26 88q19 39 23 47t9 17q4 9 6 17t6 15q4 8 10 22t25 24q18 9 19 23t8 28
t42 50q11 14 63 54t97 69q4 5 12 13q17 18 70 35t74 28q22 12 36 11q23 -2 46 12q24 4 69 4q14 2 40 10t38 4t21 -5t41 0t112 -6t119 -21t53 -23q14 -10 64 -30t86 -54q14 -10 48 -35t46 -31q14 -6 14 -16q6 -9 3 -21t-4 -18t-15 -22t-33 -29q-10 -10 -28 -36t-37 -40
q-19 -13 -40 -43q-22 -31 -33 -41t-31 -13t-28 1q-14 6 -20 15t-22 22q-17 12 -29 43q-43 43 -107 59q-12 2 -42 12t-41 12t-22 1q-11 -2 -18 -2l-43 2l-65 -13q-49 -8 -57 -11t-18 -11q-11 -8 -16 -10l-20 -8q-52 -19 -129 -124q-4 -4 -19 -17t-33 -66q-18 -52 -35 -80
q-16 -28 -14 -71q1 -44 -1 -67l-6 -30q0 -38 4 -54t4 -30z" />
    <glyph glyph-name="D" unicode="D" horiz-adv-x="1478" 
d="M231 1540q9 0 25 3t66 1t63 -4l33 -6q36 0 131 10l63 -10q41 -2 50 0l22 6q11 0 31 -6t43 -6t41 -4t49 -18q30 -13 36 -16t41 -14q47 -15 64 -32q15 -16 25 -22t35 -16q42 -19 55 -44q6 -4 17 -10t17 -12t12 -17q7 -12 46 -51t48 -56q9 -16 12 -26q2 -10 6 -15t9 -13
t17 -24t12 -28t29 -83t27 -102q-2 -32 -2 -40q10 -19 11 -25t5 -43l-4 -96q0 -9 2 -25q8 -65 -37 -180q-82 -209 -221 -332q-51 -47 -164 -104q-10 -5 -19 -12t-51 -19t-68 -23q-26 -12 -69 -20t-200 -6l-66 -4l-55 6q-20 2 -62 0t-57 -2q-14 0 -52 -7q-103 -19 -117 34
q-3 10 -3 15l2 38v88l6 33l-6 49l8 37l-8 55l8 119l-6 33l4 26l-6 29l6 33l-8 63l8 37q6 35 2 70l-8 34q-4 35 0 150l6 33l-6 26v58l6 37l-6 45l6 34q2 11 0 31t-2 31l6 53q0 29 -20 102q-2 10 4 24t6 24l-8 43q0 61 59 73q10 2 26 -4t25 -6zM479 367q0 -6 -5 -26
q-4 -20 16 -36t37 -16t40 9q29 12 52 10t70 12q48 14 71 28t33 15q10 2 16 5t17 14q12 11 16 14t10 6q23 12 43 36t25 27q2 6 12 13q26 18 59 102q6 12 15 24q4 12 7 37q4 32 9 41q6 8 6 14l2 49q0 2 2 14t-2 30t-7 67t-7 62t-21 36l-10 30q-13 38 -24 47q-12 10 -42 49
q-30 40 -61 66t-75 43t-70 30t-95 19q-70 7 -90 12q-45 11 -52 -19q-3 -15 0 -27t1 -22t-2 -15l6 -45l-6 -29l14 -34l-10 -49l4 -97q2 -53 -4 -163l4 -68q-2 -115 -4 -219l-6 -37l6 -45v-14z" />
    <glyph glyph-name="E" unicode="E" horiz-adv-x="1153" 
d="M983 824q0 -20 -2 -27l-8 -30l10 -26q2 -4 -1 -13t-3 -18q0 -10 2 -28q9 -81 -46 -85q-11 -1 -31 0t-25 1l-37 4q-115 0 -119 2l-57 8q-6 2 -18 -4t-17 -4l-21 8q-2 2 -16 2h-16l-78 7q-29 -3 -32 -9t-3 -41v-138l6 -23q0 -8 -9 -47q-9 -38 3 -53t31 -10t69 5q49 0 67 3
t49 -2q30 -5 48 -5q17 0 127 10l53 -6l31 6l35 -4q47 6 63 -1t8 -40t-8 -37l-2 -57l8 -39q0 -6 -7 -23t0 -41t6 -35t-13 -26q-10 -8 -34 -16q-36 -12 -58 7q-22 18 -35 5q-2 -2 -6 -3t-8 -3t-31 -2l-59 14l-33 -4l-57 4q-10 2 -33 0t-35 -2l-27 -6q-8 0 -23 5t-23 4t-24 -8
q-15 -7 -25 -7l-54 14q-15 0 -35 -10l-45 10q-4 0 -29 -10l-26 10q-13 0 -33 -10q-4 0 -12 2q-17 4 -37 -6l-29 4l-46 2q-52 0 -52 65v21l-4 31l10 28l-6 37l10 60q2 12 -1 36t-3 33q10 30 10 37l-6 33q0 37 2 45l6 23l-8 32l6 31l-6 51q0 26 10 101l-8 22q-4 20 -4 57
l12 35l-4 31v82l-6 33l8 41q0 4 -4 16t2 37l-6 33l6 65l-10 94l6 39q2 19 0 55t-2 50l-6 145q2 4 3 11q3 20 15 32q47 16 79 8q39 -10 120 -10l104 4q15 0 27 -6l25 6q10 0 22 -6q37 -2 213 0l31 6q20 2 66 1t60 0t32 2q16 1 36 3t39 -6q31 -10 37 -43l-6 -43
q-8 -94 -2 -141t-14 -71t-70 -13q-51 12 -59 12l-45 -4l-52 4l-28 -6q-8 0 -24 9t-23 12l-29 -15l-33 4q-53 0 -64 -2t-15 0t-10 4t-32 8t-45 -12t-15 -41q5 -24 2 -32t0 -28t3 -30l-4 -35l6 -26q0 -33 -10 -53l4 -27l-6 -51q2 -29 31 -33l36 6l68 -6l18 6h48l104 4
q8 0 39 -1t40 1q83 18 114 4q29 -16 24 -53q-2 -10 -2 -30z" />
    <glyph glyph-name="F" unicode="F" horiz-adv-x="1060" 
d="M236 -2h-11q-99 0 -102 60q-2 28 1 54t3 31l-4 93q11 33 7 44q-3 11 -3 21t10 70q0 16 -6 49t-4 49l6 27q0 6 4 108l-4 139l8 33l-8 144l4 67q-8 32 -8 62l8 127l-4 34l4 45l-6 33l6 82l-8 27l4 28l-10 29q-2 6 -2 16t3 27t11 31t31 22t34 5q18 -5 26 -11t18 -6l22 6
q55 4 96 -6l41 6q72 4 138 4h131q119 0 217 13q14 3 38 -5q25 -8 29 -18t5 -21l-3 -47l-6 -55q8 -91 5 -109t-5 -29t-9 -22t-20 -15t-35 -3q-22 2 -46 0t-35 0l-33 10l-26 -2q-4 0 -76 12l-29 -8l-61 6l-52 -2q-12 0 -30 1t-24 -4q-5 -5 -3 -31l-6 -33q0 -4 1 -7
q23 -68 1 -202q-2 -16 2 -41t16 -29q29 -8 91 -4t170 4l73 4l72 8q50 -3 33 -98q-4 -27 -1 -51t2 -44t-1 -28q10 -30 10 -35t-2 -18q-10 -45 -35 -51q-2 -4 -20 -1t-21 3h-90l-27 10q-29 4 -34 4q-20 -10 -37 -10l-90 10q-48 0 -69 4q-20 4 -34 -10q-4 -6 -4 -41l-4 -43
l6 -45v-74l6 -28l-6 -23q-10 -130 10 -170q0 -6 -2 -43t1 -71t-5 -46t-37 -14q-30 -2 -36 -4l-23 -8q-12 -2 -34 4t-30 6l-43 -8q-6 -2 -21 0t-19 2zM162 641q-10 -6 -3 -12t16 -3t2 10t-15 5z" />
    <glyph glyph-name="G" unicode="G" horiz-adv-x="1783" 
d="M989 1645q65 -13 67 -13h23q66 -10 112 -27t115 -63t93 -55q25 -9 33 -17t19 -26t19 -27q4 -2 14 -6t18 -9q7 -6 11 -26t0 -32t-13 -20q-9 -7 -22 -14t-22 -14q-12 -12 -50 -53q-86 -92 -124 -85t-54 33q-17 27 -39 51t-47 32q-24 8 -40 13t-31 17q-16 11 -25 13t-38 0
t-39 0l-36 2h-18l-26 4l-45 -12q-6 -2 -23 3t-57 -24q-88 -32 -133 -66t-105 -122q-2 -4 -12 -14t-16 -24q-6 -13 -12 -50t-20 -88q-16 -51 -15 -71t3 -28q3 -8 6 -19t1 -19q-2 -9 -2 -13l12 -59q2 -10 4 -34t4 -34t10 -22t11 -17q37 -104 79 -151t61 -59q18 -12 34 -16
q16 -5 69 -39t105 -34l76 2q116 -3 162 17t71 38t37 26q12 7 24 17q11 11 28 26q60 53 17 73q-13 6 -26 6l-55 -4q-12 0 -44 5t-48 3l-37 -10h-19l-35 2h-18q-61 -8 -90 4t-21 68q2 8 1 25t1 26l9 51q0 45 -8 58t-5 20q0 33 19 47t43 8t92 -6q30 -10 51 -10l90 4l37 -8
q4 0 64 5t92 3l43 -8l35 6l22 -6q14 -3 92 3t82 1q33 -4 38 -9q5 -4 9 -10t5 -13t2 -12t-1 -13t-2 -12l-6 -25q-4 -14 -7 -49t-6 -54q-3 -18 -11 -34t-11 -21l-2 -29q-14 -44 -57 -125q-31 -82 -43 -98t-68 -72q-27 -41 -66 -63q-38 -22 -50 -33q-141 -106 -197 -103
q-21 1 -45 -12q-24 -14 -34 -17t-26 2q-17 5 -26 3l-41 -16h-96l-60 -4q-63 4 -170 43q-6 2 -21 1t-27 6q-11 7 -19 12t-14 9t-25 8t-31 17q-13 13 -34 18t-37 20l-19 19q-88 71 -104 89t-21 32q-6 14 -10 21q-8 9 -35 33t-34 36t-12 32t-9 26q-3 8 -15 20t-15 19t-5 21
t-5 24q-3 9 -15 32t-16 33q-4 11 -5 25q0 14 -2 21t-12 30q-9 23 -13 35t-1 41t1 38l-8 64q0 28 13 45q11 42 5 63q-5 21 -5 33q10 20 17 57t5 58t17 57q18 37 25 46t11 16q70 163 170 250q24 18 58 48t54 44t53 25q32 11 39 15t36 19q29 17 40 21t25 4q13 0 25 3t44 16
q51 21 81 13l25 7q8 2 28 1t31 1q12 2 41 -5t55 -1z" />
    <glyph glyph-name="H" unicode="H" horiz-adv-x="1480" 
d="M1335 458v-44l8 -35q0 -1 -6 -31t0 -53t6 -33l-4 -108q1 -14 7 -40l8 -34q5 -26 -9 -48q-14 -24 -19 -26t-38 -2l-35 -4l-48 4h-17q-33 -4 -53 -2l-25 8q-34 -8 -46 -13t-38 0q-25 5 -35 15q-35 29 -10 129q2 12 2 25l-2 53l8 70q0 10 -4 63t1 75q5 21 8 105t-2 90t-11 8
q-6 1 -10 0t-10 -2t-11 -3l-28 8q-18 0 -54 -8h-104l-49 -7l-56 15q-2 0 -81 -2l-31 -2q-40 0 -57 -23t-8 -46t7 -64l-6 -86l4 -45l-6 -28l11 -34q0 -8 -6 -24t-3 -25l9 -27v-129l4 -40q0 -9 -4 -19q-12 -31 -46 -35t-63 4l-47 -6q-10 0 -38 7t-39 5t-23 -2l-43 -2
q-35 -8 -43 -2q-35 20 -35 64l4 22q-7 44 2 95q10 52 10 86v42l4 80l-6 45l10 35l-10 39q10 90 10 109l-2 143q0 58 8 174l-8 107q0 14 2 46t0 88t1 68t0 46q-3 33 -3 43t8 34l-10 109l-6 37q-4 55 47 71q8 4 22 0t19 -4l59 -6q6 0 26 1t30 -3t57 2t72 6t37 -10t12 -49
t-6 -58q-6 -20 -4 -30l4 -35l-6 -36q-4 -24 -6 -34l6 -32q0 -13 -6 -25q-5 -90 -5 -198v-114q0 -6 -1 -10t1 -11t9 -14q8 -7 62 -7t70 3t36 0t28 -3h107q92 -2 112 -5q77 -12 88 31q6 8 1 68t-5 73t2 143t0 142t-14 54l2 43q-10 40 -4 69q11 37 67 37t88 -6t38 -5q5 1 36 11
l37 -4q9 -2 19 -1t19 1h19q16 0 36 -10t20 -35l-6 -45q0 -112 -4 -170l-7 -49q0 -29 6 -137t-3 -146l-11 -41q13 -29 8 -49l7 -29q0 -8 -5 -20t-7 -18t2 -17q3 -10 3 -16l-6 -25v-78l6 -39l-6 -69l9 -41l-9 -39q-2 -16 -2 -44zM1147 950v-8l10 2z" />
    <glyph glyph-name="I" unicode="I" horiz-adv-x="622" 
d="M131 246q6 24 6 45t-6 41l6 28q2 53 0 105l-6 29q-4 76 0 204l8 43l-6 86l4 35l-4 25l8 33q2 12 -3 38t-5 35l8 31l-8 29l8 28l-4 25q-2 66 2 94t1 38q-3 9 -3 85t-14 104l8 39q0 23 -2 27l-10 25q0 8 12 25t42 25t42 7q12 -2 19 -6q6 -4 14 -5t22 5t23 6l61 -8
q26 -2 60 8t60 -3t28 -40l-6 -39q-4 -20 -4 -68l4 -82l-9 -49q0 -6 5 -41v-77q-11 -33 -11 -56l11 -47l-7 -72l7 -106l-11 -127l11 -90l-3 -94q0 -23 -2 -43l-8 -35l13 -115l-9 -37v-31l-6 -85l10 -29q2 -16 2 -58q-1 -42 3 -69q9 -69 -33 -82q-25 -4 -48 -4t-63 10l-24 -4
l-99 4l-24 -6q-51 0 -68 25t-13 45l6 40t5 25l-6 39l12 39z" />
    <glyph glyph-name="J" unicode="J" horiz-adv-x="958" 
d="M840 1548q4 -6 4 -42t-15 -111l11 -68l-6 -219q0 -12 2 -81t0 -79t-8 -28t-5 -46q0 -28 13 -71l-7 -35l7 -25l-11 -38q-2 -9 1 -21t3 -18l-6 -27q0 -13 2 -71t-2 -70l-14 -58l6 -61q0 -11 -11 -31t-10 -36q1 -17 -13 -35q-19 -24 -22 -40t-5 -18q-57 -96 -172 -164
q-78 -47 -85 -49t-27 -3t-29 -8t-12 -9t-15 -1t-20 1t-56 -6q-26 -13 -35 -12q-58 8 -83 2q-26 -5 -62 0t-54 38q-4 6 -4 37l9 105l-7 32q11 33 11 39q-1 6 -5 18q-9 23 3 44q33 47 94 34q6 0 26 -10l44 10l36 -2q3 -1 11 5t13 9t8 5t14 4t18 6q6 6 15 22q12 20 32 32t22 18
t2 13t6 23t13 82q6 64 6 92t-6 70l4 189q0 41 -4 73l-4 23l8 33q2 23 0 78t2 77l10 41l-7 42q-5 30 -4 42t11 41l-10 43l8 31q5 28 -4 59q-16 59 13 99q8 12 18 16q6 6 38 1t38 -5h112l66 -8l33 8q29 2 47 -31zM686 844q8 -2 24 6q15 8 17 18q4 10 -4 12t-13 -4
q-6 -6 -14 -15t-10 -17z" />
    <glyph glyph-name="K" unicode="K" horiz-adv-x="1511" 
d="M1319 1569q4 0 20 3t33 5t35 -7t20 -32q4 -41 -73 -99q-43 -32 -135 -118q-92 -85 -104 -103q-13 -18 -22 -31t-17 -21l-43 -43t-35 -27t-25 -19q-8 -6 -24 -30t-44 -45q-31 -22 -44 -41q-12 -19 -34 -31t-27 -25t6 -29q14 -21 17 -36q2 -15 23 -33q20 -18 28 -27
q2 -4 5 -17t12 -20q10 -8 30 -39q37 -55 54 -67q16 -12 22 -29q6 -16 9 -20l32 -47q8 -14 30 -38t28 -33t11 -20q12 -26 51 -76t61 -94q23 -44 52 -68q30 -24 45 -54q15 -31 21 -39q7 -8 27 -30q49 -53 21 -82t-91 -14q-12 3 -78 8q-102 8 -162 -2q-60 -9 -87 9
q-10 0 -86 148q-36 63 -52 78q-16 14 -19 19t-6 13t-4 12q-2 4 -22 32t-35 59t-36 41q-1 10 -11 24q-11 15 -19 35t-19 28q-11 7 -15 11q-4 8 -12 37t-37 57q-18 33 -31 31q-15 -1 -33 -19l-36 -36t-17 -40l2 -42q2 -14 0 -42t0 -52t0 -119q-2 -94 -2 -129l2 -64l8 -48
q0 -47 -106 -38q-9 2 -21 0t-18 -2l-70 8q-18 0 -26 -8q-45 -6 -79 3t-42 16t-8 73t3 95q3 30 5 37t2 12l-4 30q10 30 10 49l-8 41q0 13 8 37l-4 51l8 31q2 8 -5 23t-1 35t6 28l-4 25q-2 35 0 84l6 26l-4 33l8 29l-6 100l8 76l-6 25l8 36l-8 37v24l4 68q0 6 -4 54t2 54
q6 5 2 52t-4 51l4 88l-14 58q-6 23 -3 51t30 35q8 2 57 0l32 1q32 1 31 -1l23 -8q31 0 47 8q12 0 24 1t28 2q15 1 26 3q53 4 70 -31q4 -6 4 -24t-9 -29q-8 -135 -8 -182t-8 -174l4 -19l-6 -31v-41l-6 -22q0 -8 10 -13q9 -5 19 -3t20 22t16 26l18 20q11 13 22 29t31 32
q19 16 25 21q6 4 12 18q7 14 13 20l56 56t92 100q41 51 49 60t17 14q13 7 19 22t37 40q30 25 37 39q6 15 10 20t27 16q6 0 56 2l39 6l46 -6q46 -6 64 -5q17 1 72 11h47z" />
    <glyph glyph-name="L" unicode="L" horiz-adv-x="1126" 
d="M475 653q0 -46 3 -71t1 -79t-1 -78t-1 -27t-1 -29l1 -27q0 -23 6 -30q5 -7 23 -8t40 3t45 -1t48 -1l27 10l34 -4q4 0 24 7t61 -1t52 -7q16 1 30 8t31 2t22 -5l45 2q45 0 52 -25q3 -12 1 -22t0 -22q8 -2 3 -40t-5 -60t2 -75q2 -52 -19 -67q-33 -18 -55 -16l-35 10h-31
q-22 0 -32 2l-31 6l-76 4l-30 -10l-27 6l-35 -6l-63 8l-45 -10q-49 0 -62 2l-31 10l-38 -10l-62 10l-37 -10q-10 0 -37 4t-66 -4t-52 0q-33 21 -33 72l6 59v76l10 76l-8 32l6 41l-6 54l12 37l-10 30l4 31q-8 156 -8 207l10 33l-4 47l8 45l-4 43l4 45l-10 92l6 31v106l4 33
q0 6 -6 22t-4 30q2 15 2 20l-6 22l10 39l-12 47q-2 10 0 30t2 31l-10 65q0 40 33 56q18 10 40 10t36 -1q14 0 21 2t33 -2q29 -4 39 1q9 6 18 10t21 -5q12 -8 20 -7t18 4q11 3 28 5q45 6 62 -27t9 -54t-10 -26l4 -34q4 -59 -2 -84t-3 -40t-1 -100l6 -65l-8 -33q-2 -25 -4 -80
l8 -82q-2 -156 -2 -215q-8 -32 -8 -78z" />
    <glyph glyph-name="M" unicode="M" horiz-adv-x="1787" 
d="M131 541l4 92l-6 31l6 41l-2 69l8 31l-6 51l4 145q-8 24 -8 43l10 140l-6 33l6 24l-10 55l4 37l-4 111l8 33q0 8 -11 29t10 46q20 25 22 29q16 2 36 2l103 -6q6 -2 19 1t20 3l51 -4q27 -2 37 0l30 8q29 0 45 -35l7 -14q18 -18 27 -45t27 -60q18 -32 18 -45h8
q7 -46 59 -125t52 -91q-1 -11 -5 -27t8 -18q13 -2 23 -7q10 -14 16 -29t15 -28q4 -23 19 -41t21 -27t8 -22q1 -11 8 -21t10 -16t5 -15l9 -27t16 -30q10 -14 11 -21t2 -13t2 -9q1 -4 2 -12t6 -16q4 -7 6 -11q6 -12 19 -5t13 25t5 27q4 10 11 33q11 37 25 54t30 60
q17 42 40 81q28 47 31 61t35 53q4 6 6 21t21 35q18 19 23 38t11 29t10 15q3 5 33 63t39 70q8 12 23 62t42 67q29 10 43 10l89 -14q21 -3 73 10l41 -4l29 10l26 -10h26q18 0 30 -10q12 -15 7 -44q-5 -28 -5 -56t-8 -60l8 -33l-8 -29l4 -39l-4 -69l6 -43q-8 -24 -8 -39l6 -78
l-6 -37l4 -82l-9 -34l17 -64l-6 -27q0 -4 2 -15t-3 -28q-5 -16 -5 -22l6 -84l-8 -164l8 -33l-6 -53l10 -31l-4 -45l6 -28l-10 -88l4 -39l-6 -31q0 -6 12 -66l-4 -28l2 -29q0 -6 -4 -12q-14 -25 -68 -33l-35 6l-39 -6l-24 6l-60 -4l-34 4q-5 0 -23 -4t-37 -6t-37 14t-18 42
l10 104l-6 22q12 60 12 86t4 156q4 131 0 203l11 45v247q10 11 10 27q1 16 -15 16t-20 -10t-7 -20t-8 -21t-25 -43t-23 -50q-4 -18 -20 -37t-20 -42q-5 -32 -26 -48q-21 -17 -23 -31q-2 -13 -4 -18t-9 -12q-7 -8 -9 -14t-6 -25q-6 -26 -26 -54q-20 -27 -46 -88t-39 -74
t-21 -43q-7 -29 -22 -52t-20 -36q-4 -13 -9 -21t-13 -10q-31 -10 -58 19q-27 28 -27 52l-2 17q-4 6 -13 17t-23 50t-66 158l-12 18q-8 11 -13 15q-6 15 -14 33t-18 40t-40 72q-31 50 -40 70l-17 38l-2 15q-4 6 -16 17t-19 55q-7 43 -28 43q-10 -2 -18 -16t-7 -27l8 -64
l-4 -45l6 -61l4 -49q-10 -20 -10 -29l8 -24l-2 -314l9 -35l-9 -59q0 -4 5 -28t-1 -27q-3 -16 5 -49t8 -61t-25 -38q-18 -10 -82 -4h-84l-32 10q-19 0 -29 -10q-20 0 -39 -2q-63 -6 -82 23q-10 25 -10 36l12 76q2 37 -2 102t-4 80t5 26t5 52z" />
    <glyph glyph-name="N" unicode="N" horiz-adv-x="1576" 
d="M1104 799l-14 176l6 39q0 4 -4 62t-1 72t-3 101q-6 88 -5 151q2 62 0 79l-6 44q0 16 15 35t43 15q27 -4 87 -2t97 -2l20 -6q48 15 83 7q34 -8 34 -36l-4 -53l-8 -41l6 -27l-6 -37q-2 -8 -1 -25t1 -26q-18 -34 -10 -53q8 -20 8 -25v-30q2 -16 2 -38l-4 -114q-2 -10 -1 -19
t1 -21l4 -58l-4 -111l4 -178q3 -12 -2 -31q-6 -18 -6 -26l8 -48l-4 -59q2 -198 -1 -276t1 -130t9 -70t4 -26t-2 -23t-5 -30t-17 -25q-12 -10 -24 -8t-25 18q-12 15 -18 19t-15 9q-37 20 -45 45t-14 28q-6 4 -16 8t-15 8q-4 5 -9 17t-9 17t-15 11q-17 9 -23 20q-5 10 -33 38
t-115 116q-85 88 -101 103q-16 14 -23 31t-14 21q-8 5 -11 7t-7 4q-5 2 -19 16t-23 22t-15 14t-15 18t-22 16q-10 24 -23 36q-14 12 -23 20t-19 16t-26 25q-15 17 -75 73l-12 18q-9 12 -11 16q-2 3 -55 48q-6 8 -19 28q-26 42 -44 28q-35 -28 -15 -121q0 -5 5 -19t3 -22
l-10 -33l10 -39q4 -18 0 -74l-10 -34q2 -47 6 -68l9 -43l-9 -92q-2 -10 2 -30t0 -34t0 -31t0 -35t-1 -28t3 -12l3 -45q0 -6 6 -28t-14 -42q-21 -19 -60 -14q-4 0 -14 5t-16 6t-18 -3q-11 -4 -16 -4l-38 4l-70 4q-51 -10 -68 -5q-16 5 -30 6q-33 2 -33 41l2 42q2 70 4 82
l10 55l-6 33q0 4 3 16t1 21q-2 8 0 39t2 39l-10 47l10 41l-4 31l6 34l-14 33l14 33q2 6 0 18t-2 17l4 19v7l-8 101l8 90q3 19 -10 65q0 16 4 46q4 31 3 45t-6 48t-3 50l8 41q0 18 -4 64t2 109t-1 75t-9 18l2 40l-6 32l10 39q-14 42 -15 59t16 39q30 39 68 8q11 -10 23 -30
t17 -21q4 -6 15 -14q11 -7 16 -13t29 -32t42 -48q16 -24 28 -34t39 -38q41 -42 57 -50q16 -9 45 -46q29 -38 40 -51q6 -4 14 -10t20 -13t47 -49q36 -43 50 -59q8 -6 22 -15t24 -19q9 -10 35 -41q26 -32 42 -46q20 -10 26 -15q5 -5 9 -16q4 -12 8 -16t36 -32t56 -56
q31 -34 58 -54q26 -21 34 -33q8 -11 23 -44t43 -31q18 4 10 36t-8 34zM1153 508l2 -6h2l2 6h-6zM1085 582q0 -10 7 -12q6 -1 10 10zM1114 761q0 -9 10 -30q31 24 2 62h-4q-8 -23 -8 -32z" />
    <glyph glyph-name="O" unicode="O" 
d="M813 1630q6 0 20 8q24 14 74 3t61 -1q11 9 19 12t15 -7q6 -9 12 -21t13 -11t16 12t17 11t16 -3q7 -3 20 -8t84 -21t137 -54q21 -9 63 -45q4 -2 10 -3t10 -2q11 -2 20 -14t30 -20t41 -43q4 -4 21 -14t23 -23q5 -14 8 -18t43 -53t83 -172q1 -6 11 -27t10 -42t10 -45t10 -32
v-12q14 -53 16 -65l-2 -56l7 -71l-7 -31q-2 -10 2 -33t3 -35l-13 -35q-2 -8 -1 -24q1 -17 0 -23t-2 -10t-2 -7t-3 -6t-3 -6t-5 -12t-4 -36q-12 -41 -23 -54q-12 -14 -14 -18q-63 -137 -133 -215q-18 -20 -55 -50t-64 -56t-62 -41t-39 -18l-26 -17q-26 -18 -85 -32
q-61 -12 -71 -16t-22 -11t-19 -9l-34 2q-60 -12 -70 -12l-23 4q-40 -10 -47 -10l-35 6q-4 2 -12 0t-12 -2t-29 10h-33l-22 10l-21 -6l-30 10l-21 -2q-6 2 -18 11t-37 8q-23 0 -33 3t-24 15t-22 15t-17 3q-9 -1 -21 5t-38 26t-32 24t-26 12q-21 7 -46 36q-25 30 -63 61
q-38 30 -57 68q-4 6 -32 45t-39 72q-15 45 -24 56t-16 42q-9 47 -19 68t-8 41q1 20 -1 28l-12 33q-2 6 1 21t3 24l-13 90l6 80l-4 39q2 12 12 37t7 53q-2 28 19 80q20 53 28 62q8 8 32 62t31 65q8 11 28 31t27 44t43 49q35 25 54 44q18 20 40 27q21 7 29 12t47 39
q42 37 187 69q52 12 69 22q17 9 34 5q18 -5 24 -5zM744 1288q-12 0 -18 -3q-5 -3 -15 -12t-38 -27q-29 -18 -47 -36q-18 -16 -37 -26q-41 -22 -67 -97q-2 -2 -3 -12q-1 -14 -23 -41q-16 -37 -29 -102q-6 -10 -4 -58t2 -57l-10 -49q0 -4 10 -29v-18q0 -21 13 -54t13 -44
q1 -11 2 -15t19 -38t30 -57q12 -24 22 -36q9 -12 32 -27q23 -14 72 -54t90 -58q6 0 15 1t22 -6q12 -7 17 -9t15 -1t26 -5q15 -7 21 -9l37 10l52 -6q78 9 93 15t27 14q11 8 17 11t16 5t14 7q10 4 24 17t20 15q4 5 18 11t20 10q74 63 127 176q1 6 13 18t12 31v35q0 2 8 80
l10 33l-6 43q-2 36 -8 66t-5 43q1 18 -7 30q-9 12 -19 59q-11 47 -26 59t-16 22q-1 9 -17 33q-22 34 -46 50q-24 15 -42 31t-26 22q-8 5 -36 25q-27 20 -49 20t-26 2q-3 2 -11 10t-13 8q-5 1 -39 1t-52 6q-19 6 -29 4l-27 -8l-34 4q-18 -2 -55 -18q-37 -15 -49 -15z" />
    <glyph glyph-name="P" unicode="P" horiz-adv-x="1304" 
d="M725 1561q39 -13 71 -13q44 0 72 -17t52 -17q25 -1 49 -19t37 -23t16 -10q6 -4 16 -19t33 -27t36 -37q13 -24 21 -38q81 -105 76 -172q-3 -38 8 -71l-4 -70l2 -24l-12 -29q-2 -4 0 -18t-11 -42t-21 -38q-8 -9 -13 -17q-4 -8 -10 -27q-5 -19 -15 -31t-59 -61
q-71 -61 -113 -74q-43 -13 -51 -24q-43 -5 -66 -17t-45 -11t-28 1l-29 -12l-45 8q-12 2 -32 -1t-29 -3l-43 6q-27 -2 -43 2q0 2 -8 6q-9 4 -13 5q-4 0 -7 -2t-7 -4q-4 -1 -6 -3t-10 -4t-11 -6q-18 -31 -8 -86l10 -30l-6 -23q-2 -9 0 -25t2 -24l-8 -64q0 -10 4 -35t1 -43
t-3 -28l10 -51l-6 -64l6 -24q2 -9 -1 -21t-3 -24t1 -28q2 -33 -38 -44q-20 -4 -64 6t-81 6l-31 -8q-16 0 -32 8q-4 0 -32 -2t-52 4q-25 6 -31 17q-8 3 -1 31t7 34l-6 33q0 4 6 15t4 18l-8 32q0 2 6 42t4 59l-10 36l10 33q4 53 4 129l-2 148l4 24l-4 23q-2 100 -2 149l8 37
q2 10 -2 28t-4 30l6 53l-6 29l6 26q2 16 0 96l-6 29l6 37l-8 37l8 49l-4 39q-2 9 1 27t3 28t-6 23v59q0 10 -6 43t12 51q19 19 40 19l48 -2l45 2l29 -6l39 4q87 -14 96 -15l37 7q40 0 82 -7q21 0 51 5l33 -5l31 7l26 -7zM477 931q0 -32 26 -32l44 4h47l31 -12l22 8
q116 15 150 49q4 2 13 15t28 22q20 9 24 18t2 22t2 33t1 71q-3 52 -44 69q-19 8 -27 25q-8 16 -18 18t-13 4t-12 10q-9 9 -15 11t-20 -3q-13 -5 -18 -6l-28 9q-16 4 -52 3t-69 4t-39 -1q-45 -15 -35 -51q4 -14 1 -43t-3 -48l6 -26l-6 -27l6 -52q0 -5 -1 -19t1 -22t-1 -24
t-3 -29z" />
    <glyph glyph-name="Q" unicode="Q" 
d="M1674 486q-3 -6 -11 -15q-8 -8 -8 -26t-25 -51q-25 -32 -35 -52t-22 -27q16 -39 86 -57q63 0 70 -29q2 -4 2 -18q1 -13 -11 -31l-18 -27t-12 -21t-12 -20q-6 -10 -23 -56q-19 -46 -31 -58t-42 -12q-40 0 -57 15q-16 15 -41 22q-25 8 -32 14q-4 4 -14 15t-30 31t-39 17
q-19 -4 -37 -16t-36 -18t-27 -12q-9 -5 -19 -12t-22 -13q-24 -13 -36 -12t-34 -8q-21 -9 -37 -8q-17 1 -24 -1t-15 -4t-20 -7q-11 -5 -112 -7l-43 -11l-61 17q-4 0 -9 -3q-36 -22 -96 -10q-13 3 -35 17t-31 17t-29 2t-28 1q-71 25 -103 56t-66 42t-46 19t-36 37
q-11 8 -31 23q-37 27 -43 42q-7 15 -18 24q-11 10 -15 24q-6 20 -29 48q-24 28 -29 37t-9 22q-5 12 -7 18t-15 23q-18 23 -16 41t-8 34q-9 16 -16 33q-6 19 -8 57t-10 76t-11 53q-4 39 25 39q-4 6 -16 16q-13 10 -15 18q-4 12 8 43t8 49q-3 17 1 40q4 24 10 86q8 88 58 160
q22 32 23 48q2 25 14 38t20 29q8 15 19 31t53 52t48 47q6 9 10 13t10 6q10 3 56 44t72 48q26 8 35 17t39 20q45 15 56 23t26 6q22 -2 39 8t24 10h29q48 8 64 8l28 10q12 0 28 -8q23 -2 54 -2l65 10l33 -10l24 4l29 -10q10 -2 45 -6t61 -16q27 -13 62 -22t47 -22
q12 -12 36 -20q26 -8 32 -14q10 -8 17 -20q8 -12 22 -15q14 -4 21 -14t23 -15q15 -4 22 -17t11 -17t13 -7q8 -4 10 -6q2 -4 5 -8q3 -3 5 -9q3 -6 5 -8t5 -4l6 -4l6 -4q5 -3 10 -19t22 -34q16 -17 24 -29t28 -41t35 -79q14 -50 42 -124t28 -113l-2 -69l11 -104l-15 -52l2 -20
q-2 -20 -12 -53t-7 -46q4 -17 -7 -32t-13 -37t-5 -28zM963 1298q-6 0 -24 6q-27 8 -91 -8q-4 0 -13 3t-21 0t-92 -37q-81 -34 -87 -43l-10 -15t-36 -36t-40 -40t-12 -22l-9 -26q-6 -20 -17 -30t-13 -16t-2 -14t-18 -52t-23 -98l4 -79l-8 -31l8 -31q0 -60 16 -88
q17 -27 19 -35t8 -38t16 -47t44 -52t43 -50t17 -21l16 -12q9 -5 20 -11t18 -10q108 -68 211 -68l24 6l21 -6l33 6q7 2 31 1t32 0t18 8q16 11 44 13t32 27q0 23 -22 34q-7 3 -26 25q-19 21 -21 25q-3 4 -9 16t-4 15q2 4 3 12q2 13 23 26q22 13 30 24q8 12 12 16q37 18 53 34
q15 15 21 19q38 27 85 -43q25 -39 58 -12q15 15 17 43q3 35 14 50q10 14 14 32t6 108l6 33q0 5 -14 47q0 4 2 13t1 15q-2 9 -7 20q-6 11 -6 18l-2 47q0 8 -7 19q-12 19 -12 36t-15 33t-17 37q-1 22 -5 26t-8 6t-8 3t-8 3l-8 4q-10 8 -19 24q-8 16 -19 28t-43 34t-41 29
t-14 11t-37 12t-58 16t-36 10t-21 0t-17 -2z" />
    <glyph glyph-name="R" unicode="R" horiz-adv-x="1357" 
d="M1198 1221q0 -17 12 -83t-12 -131q-8 -22 -9 -35t-2 -27q-1 -13 -11 -31q-13 -24 -19 -28q-7 -4 -17 -35q-18 -52 -65 -91q-47 -38 -68 -46q-20 -6 -26 -10q-6 -3 -21 -14q-16 -10 -21 -12q-15 -6 -29 -11q-13 -5 -13 -18q0 -14 11 -24q10 -9 12 -13t4 -12t4 -12t9 -11
t11 -13l18 -27t18 -29q5 -8 7 -16q8 -33 33 -60t29 -40q6 -19 19 -31t30 -46q17 -35 46 -73t40 -58q12 -20 46 -60t34 -76t-22 -43t-48 -9q-27 -2 -39 -1t-50 7t-45 7t-44 -11l-45 4q-6 0 -35 -4t-60 10q-51 24 -51 70q-4 6 -12 17q-12 16 -13 32q-2 16 -20 37
q-24 28 -28 54q-4 25 -23 50q-20 26 -33 55t-16 33q0 23 -6 32t-11 17t-20 24q-14 17 -17 25t-3 18q0 11 -3 17q-4 7 -16 17t-16 18t-10 31t-10 30q-7 10 -18 17t-11 26q-1 20 -21 40q-21 20 -33 11q-13 -9 -11 -29q3 -19 3 -25l-4 -43l8 -39l-4 -51l4 -41l7 -50l-7 -26
q0 -7 3 -17q8 -28 8 -100v-121q0 -7 3 -29q15 -110 -59 -110l-32 4l-39 -4l-41 6l-31 -6l-31 8q-6 2 -19 -2t-16 -4q-97 -7 -113 58q-8 34 0 53q9 21 10 25t1 83l10 39l-6 25l-2 51l6 31l-8 28q10 60 10 86l-6 27q-6 57 0 129l10 39l-4 33q-6 127 -6 155l10 39l-6 51
q0 6 3 21t-2 38q-5 22 -5 29l6 41l-6 27v51q0 4 5 12t3 13l-6 26l-2 250q0 10 -5 48t5 53q10 16 33 23t37 3l39 -10q12 0 25 9t31 1q18 -7 35 -1q17 5 23 5l37 -14l37 4l82 -4l207 4l41 -6q83 0 95 -7q13 -6 23 -12t17 -8q6 -2 23 -10q18 -8 37 -12t29 -9q9 -5 18 -17
t57 -49q48 -38 64 -70q5 -9 13 -26t36 -67q26 -50 26 -67zM606 928h48q62 0 124 26q16 11 22 19q7 8 24 25q16 18 18 22t2 15t2 17t8 18q6 13 6 22q6 45 -39 116q-2 2 -7 15t-20 15q-15 3 -20 5q-39 19 -124 25t-98 3q-14 -3 -30 4q-33 14 -41 -21q-3 -11 1 -35q5 -25 5 -29
t-3 -14q-4 -13 4 -29t1 -39q-8 -22 -8 -27l4 -47q-10 -78 7 -100q9 -9 43 -8q34 2 71 2z" />
    <glyph glyph-name="S" unicode="S" horiz-adv-x="1292" 
d="M788 1661q26 0 57 -14q30 -14 62 -17q33 -4 45 -8t32 -18t67 -31q46 -17 51 -23q6 -6 16 -11t18 -13q1 -2 5 -6t5 -8q3 -14 3 -23t-10 -23q-9 -14 -11 -16t-6 -11t-7 -13t-7 -6q-4 -3 -8 -5t-8 -5t-7 -5q-6 -8 -15 -25t-22 -29q-14 -13 -42 -53t-39 -46q-12 -5 -36 1
q-29 7 -44 26q-16 19 -24 23q-7 4 -25 10q-28 9 -57 25q-28 17 -57 13q-28 -4 -36 -3t-20 8t-21 5l-24 -8q-8 -2 -38 -4t-43 -10q-14 -7 -20 -11q-10 -6 -15 -14t-7 -10q-4 -1 -10 -7t-13 -12q-8 -6 -8 -25v-22q-10 -47 -1 -62q9 -16 22 -27t20 -18q38 -57 70 -64
q12 -3 57 -34t119 -60q75 -30 85 -41q10 -10 62 -37t66 -41q14 -15 34 -28q75 -50 111 -116q4 -4 6 -15t12 -24q9 -14 19 -30t14 -28t9 -20q12 -42 12 -130t-2 -91l-8 -27q-2 -8 -4 -23t-5 -27q-5 -12 -25 -50q-20 -37 -28 -58t-22 -27t-22 -20q-7 -14 -11 -18t-12 -7
q-7 -3 -45 -35t-65 -41t-50 -12q-23 -2 -31 -6t-23 -11q-32 -15 -147 -15q-50 -10 -78 -10l-39 12h-43l-26 6l-25 -2l-24 16h-25q-3 0 -33 15q-38 0 -113 46q-14 9 -30 13t-22 6t-9 5q-5 3 -9 6l-12 9l-16 12q-8 7 -17 13q-9 5 -14 9t-21 7t-34 33q-19 31 -8 51t37 45
q26 24 69 84t53 77q19 32 32 32q18 7 47 -25q30 -32 34 -34t17 -4t36 -24q23 -21 36 -29q13 -9 44 -21t41 -13t23 -3q14 -2 32 -10q17 -9 67 -11t78 3t60 31q32 27 50 61t18 42q0 33 -63 99q-2 2 -4 6t-13 16t-27 17l-24 6q-12 3 -34 21t-50 18q-10 6 -27 19q-16 12 -26 18
t-54 26t-58 30t-24 20q-10 12 -18 16t-27 11t-25 12t-14 15q-10 13 -28 18q-19 6 -30 18q-17 20 -34 28q-16 7 -22 20t-48 57t-47 75q-5 32 -7 38t-17 37q-2 12 -3 36t-3 32l-10 41l4 29q2 4 -2 17t9 53q12 40 16 48q4 9 9 29q8 31 14 39q13 17 27 50t31 45q17 11 33 34
q19 27 70 41q43 43 72 43l14 2q104 41 223 41l76 -4l45 2h22z" />
    <glyph glyph-name="T" unicode="T" horiz-adv-x="1134" 
d="M317 1563h25q51 4 68 4l29 -4l32 8q11 0 23 -8l41 4l47 -11l32 11q25 2 211 -4l49 10l25 -6l33 10h8l18 -2l32 2q55 0 47 -76q-3 -28 -3 -37l4 -41l-6 -28q10 -20 10 -29q18 -107 -47 -115q-12 -2 -45 9t-43 7q-10 -3 -14 -3l-33 6q-4 0 -13 -3t-13 -2t-15 3
q-23 12 -52 5t-32 -18q-2 -25 -2 -36l6 -76q2 -7 0 -21t-2 -20l8 -74l-6 -39l6 -74q0 -16 -6 -22l6 -45q2 -8 -1 -22t-3 -19l4 -29l-10 -59l4 -70l-4 -67q10 -20 10 -29l-6 -57q7 -21 9 -33l-5 -29l2 -67q0 -7 -5 -17t-1 -68t4 -63l-2 -47q0 -20 9 -70t-11 -73
q-14 -22 -38 -26q-23 -5 -29 -7t-20 1t-19 3l-78 -2q-53 18 -105 2t-77 29q-2 12 -3 17q-1 4 3 18t4 18l-6 27l12 34q2 9 0 27t0 24t7 18q5 11 5 17l-8 45l6 72l-10 49q0 63 6 97l10 36q0 8 -12 50l8 53q0 4 -2 9q-8 20 -8 99t14 121q0 11 -12 47v88l10 35l-8 29l8 35
q2 10 -1 32t-2 27t3 51t-2 57t-25 11l-57 -8q-18 -2 -50 -2h-50l-27 -11q-28 -4 -56 5t-38 32q-6 23 -6 32l8 64q2 16 -2 46t-6 49q-6 58 33 84q18 14 42 10q23 -4 28 -4q14 0 22 8q10 2 23 -4t18 -6l31 2q17 -6 34 -6z" />
    <glyph glyph-name="U" unicode="U" horiz-adv-x="1558" 
d="M1427 1583q19 -26 13 -77q-8 -68 -8 -226v-179l2 -69l-4 -55q4 -2 2 -137q-2 -136 -2 -184t-2 -84t4 -53q5 -18 -6 -36q-10 -19 -8 -43t-13 -53q-34 -113 -45 -125q-10 -12 -26 -27t-18 -31t-9 -24t-23 -18t-20 -17q-6 -4 -16 -18q-10 -13 -22 -23q-11 -10 -54 -30
t-54 -30q-11 -9 -19 -9h-16q-99 -35 -114 -35h-21q-16 -8 -37 -14h-106q-141 0 -169 4t-58 14q-31 10 -64 10t-59 16q-27 16 -47 21q-21 6 -39 16t-45 39t-32 35t-22 14t-29 33q-11 25 -31 43t-25 29q-5 12 -10 26t-9 30t-7 24q-3 10 -11 24q-8 16 -12 28q-5 13 -4 33
q1 19 0 25q-2 11 -7 31q-6 20 -6 29l8 106l-10 32l6 26l-4 35q12 36 12 49l-10 47l6 41q2 14 0 88l-4 30l4 37l-10 41l6 43q2 27 2 76v76l-8 106l10 80q0 46 -7 60t-7 18l4 33l-2 22q0 17 18 35q20 10 60 7q41 -3 43 -5l34 9l36 -11l32 6q6 0 14 -1l16 -2t15 0q6 1 21 4
t26 4q47 -6 55 -48q2 -14 -10 -57q-4 -84 -4 -92l6 -39l-6 -33v-229l10 -57q0 -5 -10 -25l4 -53q0 -48 -4 -72l-6 -25q6 -24 6 -57l-6 -27l6 -24l-6 -21v-63l6 -45l-6 -60q5 -48 17 -65t11 -30t1 -18t6 -10t10 -12t22 -36q17 -28 26 -34q10 -6 24 -14q22 -10 32 -19
q40 -36 197 -28q14 0 29 -6q27 1 49 15q31 20 48 22t34 22q16 19 21 25q4 5 16 19t14 17t14 15t16 20t3 17q0 9 2 15t10 25t10 27t4 76l4 25q-10 40 -10 49l6 51l-6 28l10 32q0 43 -4 153l-6 37q-2 7 3 19t5 20l-8 46l8 40l-8 31q0 16 5 51q5 34 -1 152t-6 147l-6 23
q-6 33 10 59q4 12 21 15t23 8q5 4 34 -1t37 -4l29 7l47 -11q15 0 30 11l33 -7q4 -1 9 1q6 2 10 3l8 2t10 -1l12 -4q8 -5 25 -5q18 0 22 -12z" />
    <glyph glyph-name="V" unicode="V" horiz-adv-x="1660" 
d="M406 1589l44 -10q14 0 23 -8q4 -5 7 -19t7 -23q3 -9 13 -36q12 -35 21 -50q9 -16 9 -27q0 -10 4 -18q4 -6 8 -18q5 -12 9 -23q8 -21 15 -31q8 -10 18 -42q10 -31 14 -40t13 -21q9 -13 11 -19t5 -14q8 -31 24 -54q16 -24 19 -55t20 -57q16 -26 20 -34t4 -18q2 -19 15 -32
t11 -32q-2 -26 23 -76t29 -73q5 -23 10 -33t20 -11q28 -4 44 47q6 23 33 84t30 76t21 45q17 29 20 39t2 24t4 24t21 38q17 27 23 41t15 42t13 37t8 16q5 7 7 12t1 14q-2 19 34 69q27 71 37 86q4 12 9 46t30 54q4 8 14 32q18 44 59 44l80 -10q20 0 135 10l23 -4q6 0 18 4
t27 8t27 -14q37 -55 -22 -160q-21 -36 -25 -56q-5 -19 -12 -36t-28 -49q-20 -32 -26 -44t-7 -35q-1 -22 -5 -32t-30 -55t-28 -58q-3 -19 -24 -56t-33 -83q-11 -45 -17 -57t-14 -23t-14 -22t-9 -29t-8 -29t-27 -50t-38 -91t-31 -67l-8 -12l-29 -66q-10 -20 -23 -61
q-22 -70 -55 -129q-32 -96 -46 -121t-23 -69t-33 -71q-12 -10 -39 -18t-43 -8l-47 12q-6 0 -20 -2q-52 -7 -90 40q-7 12 -13 15l-2 35l-22 43l-45 131l-23 35l-6 35l-31 47q-1 33 -23 64q-22 32 -26 45q-6 8 -11 41q-4 33 -16 46t-23 46q-11 34 -59 143l-6 24q-9 37 -45 99
q-4 10 -9 37t-16 41t-15 23t-21 47q-15 37 -23 51t-8 30t-5 26t-18 28q-20 27 -20 38t-14 36q-15 24 -19 36t-9 35t-11 37t-21 40q-22 36 -34 70q-45 45 -19 94q14 26 43 31l41 -4q90 0 100 -2l21 -6zM1575 1505v6l2 -6h-2z" />
    <glyph glyph-name="W" unicode="W" horiz-adv-x="2201" 
d="M1365 958q3 -8 3 -18t10 -26t16 -40q5 -24 7 -31t12 -33t15 -56q4 -30 16 -33q33 -5 38 45q1 10 23 74v15q1 13 11 34t13 29t5 17t4 20t4 17t6 13q4 8 4 12h7l10 43q19 99 37 133q22 41 33 89q10 48 40 138q34 102 43 137q11 48 49 48h19l22 6l21 -8q4 -2 14 1t13 3
l34 -2l80 6l43 -6q2 0 47 17q20 0 50 -33q18 -14 -3 -52q-4 -9 -13 -27l-14 -28t-11 -40q-7 -30 -11 -41t-11 -26t-21 -48t-15 -44q0 -11 -2 -17t-7 -14t-11 -28t-34 -86t-35 -89t-10 -49t-5 -34t-8 -16q-5 -8 -9 -16t-12 -33t-22 -67t-15 -52v-19q-4 -8 -15 -23t-17 -52
q-8 -54 -23 -72t-29 -88q-20 -40 -25 -70q-5 -29 -10 -46t-16 -36q-10 -20 -13 -28t-10 -30t-13 -33t-7 -28q0 -18 -2 -24t-7 -14q-7 -11 -7 -30q1 -19 -11 -42q-14 -28 -20 -59q-5 -31 -12 -42q-8 -10 -18 -14t-31 -14q-22 -10 -35 -3q-14 7 -39 7h-29q-12 -6 -22 -6h-19
q-32 0 -44 44q-3 11 -5 17l-18 39q0 4 1 18t-12 40q-14 25 -14 37v18q-16 40 -31 61q-2 6 -3 20t-7 28t-19 46t-19 46t-6 34q-2 37 -16 59q-14 21 -32 65t-28 65t-9 47q-14 41 -16 50q-3 8 -9 18t-6 16l2 31v16q0 20 -18 20q-11 4 -15 -6q-6 -19 -6 -30v-11q-5 -36 -22 -69
q-20 -41 -22 -51t-5 -20q-4 -12 -7 -26t-6 -20t-13 -19t-12 -21t-3 -15v-11q0 -21 -15 -41t-31 -69q-17 -48 -16 -67q2 -18 -14 -46q-16 -27 -22 -42t-18 -54q-13 -39 -19 -55t-13 -56t-13 -53q-7 -11 -19 -23t-16 -19t-15 -11q-18 -2 -27 0t-29 6t-28 6l-26 -6
q-63 -8 -79 18t-23 53t-11 37t-10 41q-6 30 -18 54q-17 37 -17 52v17q-2 16 -16 54l-97 272q-5 19 -7 33q-3 14 -6 23t-15 32q-13 23 -17 34t-7 34t-6 34t-16 31q-13 19 -15 29t-4 22q-2 23 -9 35q-7 11 -13 43q-7 32 -16 43q-13 18 -11 33q1 15 -10 33t-24 70
q-14 52 -44 128t-36 103t-9 36t-11 19q-11 14 -13 27q-2 14 -5 20q-1 6 -11 18t-15 21q-5 10 -5 37t6 41q7 18 49 18l37 -2q7 0 35 -8l125 6l24 -6l33 8q41 4 59 -13q18 -18 22 -26q3 -8 4 -20t9 -38q9 -26 23 -76q14 -48 19 -57t12 -39q10 -47 49 -109q2 -4 1 -19t6 -42
q7 -26 12 -34t6 -12t1 -13t4 -19l8 -20q5 -8 8 -14t4 -20t36 -96q2 -8 4 -24t14 -38q11 -22 8 -34q-4 -13 -3 -19q1 -5 9 -19t10 -21q5 -34 23 -34q23 4 27 30q5 26 29 81t23 75t10 36q16 23 44 129q6 14 30 60t26 62t5 30t9 34q6 21 29 83q23 61 29 81t12 44q7 24 16 43
q10 19 11 27t3 18t3 18q5 34 25 51q21 18 38 12t25 -24q7 -17 15 -36t9 -34q17 -33 15 -49q-1 -15 2 -21t16 -30t11 -45q-2 -22 14 -48q46 -75 46 -100q-1 -26 3 -33q4 -6 13 -16q9 -11 11 -17t1 -16q-1 -14 13 -30q15 -16 15 -33v-23l12 -27q6 -17 9 -37q3 -19 15 -44
q13 -24 16 -32z" />
    <glyph glyph-name="X" unicode="X" horiz-adv-x="1566" 
d="M826 474l-12 42q-9 35 -34 35t-32 -36t-9 -41t-13 -19t-31 -54q-19 -41 -36 -57q-18 -15 -18 -39t-10 -34q-10 -11 -13 -11l-22 -39q-25 -40 -45 -90q-4 -6 -13 -18q-15 -20 -27 -52t-26 -43q-25 -8 -45 -8h-37l-30 -4q-5 0 -15 6t-16 7t-14 -5t-13 -8l-43 4l-36 -10
q-9 0 -23 5t-30 -3q-15 -8 -31 -10t-57 21q-42 23 50 138q37 47 51 75t17 30q2 2 11 10q18 16 28 46t33 48q2 4 4 14t5 14q3 5 16 16q19 16 26 40q6 24 32 54t33 51t13 31t20 30q19 27 39 72l74 111q33 49 31 66t-16 37q-17 23 -22 39q-4 17 -38 60t-122 194
q-87 151 -109 185t-38 45q-6 8 -18 31t-22 32q-11 9 -19 23q-24 42 11 64q35 23 78 11q44 -11 49 -13t50 0t50 2l49 -4q29 4 63 4t45 -9q9 -10 19 -28t19 -44t13 -33t9 -13q4 -6 8 -11q5 -7 12 -29t15 -28t12 -10q4 -8 11 -37t32 -53q4 -10 16 -53t39 -50q4 -4 11 0q7 3 9 3
t8 8q5 8 6 9t9 22t27 51q0 25 41 66q8 10 17 38q8 28 14 34q18 16 18 23q10 17 28 67t36 66q17 16 73 15l33 -8l61 10l35 -6q32 4 84 4l29 6q4 0 13 -3t17 0q9 3 29 3t28 -15q16 -33 -38 -99q-53 -66 -59 -83q-8 -23 -20 -32q-12 -10 -30 -62q-8 -12 -21 -27t-47 -69
t-44 -80q-19 -48 -41 -59q-56 -78 -56 -99q-4 -2 -9 -11q-8 -14 -28 -41t-19 -47q2 -19 24 -51t36 -51t25 -37q13 -18 21 -30q8 -10 12 -24t7 -20t12 -12q9 -7 14 -12q4 -6 6 -21t21 -35q19 -21 23 -46q5 -25 25 -45q19 -21 24 -31t19 -44t21 -45t25 -25q31 -43 59 -105
q12 -20 28 -37q16 -18 27 -38q9 -20 15 -27l17 -18q11 -11 15 -19l13 -33q0 -2 1 -7t0 -8t-2 -7q-8 -31 -61 -31q-33 -12 -38 -10t-16 12t-27 4q-15 -6 -19 -6l-37 10l-21 -6l-25 4q-5 0 -9 1q-3 1 -11 -2t-12 -3l-31 6q-3 0 -29 -5t-30 1q-71 23 -75 75q-4 38 -29 64
q-26 26 -53 86t-31 73q-4 14 -8 20t-11 15q-8 9 -10 13t-3 11q-2 11 -14 20t-13 23q-2 14 -18 39q-17 26 -19 33z" />
    <glyph glyph-name="Y" unicode="Y" horiz-adv-x="1540" 
d="M1454 1562q4 -4 4 -32t-25 -57t-38 -54q-13 -23 -23 -39l-15 -24t-7 -16t-8 -19l-9 -18q-4 -5 -9 -15t-34 -48t-34 -55t-11 -31t-24 -40q-17 -26 -25 -40t-30 -50q-22 -35 -30 -49t-9 -21q-1 -6 -4 -11t-13 -16t-13 -17t-5 -16q-2 -9 -6 -13q-19 -22 -28 -50t-16 -39
q-55 -74 -62 -90t-10 -33t-13 -29q-11 -11 -15 -17t-7 -33q-3 -26 2 -52t2 -60t-3 -50l6 -70l-6 -79q10 -70 10 -82l-4 -29q4 -61 10 -93q12 -63 -45 -76q-12 -3 -22 -3q-32 16 -59 8t-38 -8l-51 10l-30 -10l-33 6q-93 0 -90 78l10 53l-6 49l6 66q0 73 6 121l-6 45
q12 36 12 37l-8 47l6 28q13 73 -21 130q-15 26 -40 59t-33 44t-13 27t-9 22t-11 17q-8 12 -13 40q-6 30 -19 40q-14 9 -26 19q-25 22 -31 45t-18 45t-15 31q-5 16 -16 27t-22 40q-12 29 -36 59q-25 30 -31 50q-6 21 -28 51t-26 42q-2 11 -6 16t-17 32t-28 40q-15 14 -21 33
q-7 19 -24 36q-16 15 -21 45t17 43t82 9t114 -5q54 0 74 -1t40 1q64 7 95 -57q5 -11 14 -29t25 -51t36 -68q20 -36 27 -54t17 -38l13 -26q2 -6 5 -13q3 -8 6 -15t18 -18q2 -10 12 -24t13 -19q3 -6 5 -18t5 -23t11 -18q17 -19 23 -44t25 -43q35 -34 56 51q6 27 22 48l34 67
q28 55 40 82q13 27 37 63t26 49t28 56q33 57 37 81q5 24 13 34q15 14 35 20t25 9q5 2 12 7q17 12 42 -3t86 -8l41 16l37 -14q14 0 64 10l28 -4q31 -2 35 -7z" />
    <glyph glyph-name="Z" unicode="Z" horiz-adv-x="1480" 
d="M1095 1561q22 0 50 8l33 -4h53q33 -6 85 1t69 -9q16 -16 9 -37q-7 -20 -16 -33q-8 -12 -11 -18q-3 -5 -21 -19t-30 -34t-45 -76l-40 -70q-133 -220 -201 -330q-82 -133 -92 -160q-11 -27 -28 -49t-23 -39q-8 -26 -31 -50t-33 -46t-14 -28t-13 -14q-10 -9 -14 -16t-15 -32
t-19 -37q-49 -61 -58 -88q-2 -1 -14 -19q-27 -39 24 -45q6 1 20 5t21 3q6 -1 38 -7t48 -2q16 5 35 6l82 -5l70 9l28 -4l35 4q11 2 29 0t27 -2l71 6l31 6l37 -8q30 -2 37 -4q33 -12 26 -50q-2 -6 -8 -71l-4 -39q0 -6 3 -16q5 -19 2 -31q-3 -11 -3 -21t3 -27t5 -33t-26 -34
q-35 -18 -45 -15t-24 13q-13 10 -33 4q-19 -6 -24 -6l-28 4q-43 2 -63 0l-29 -6l-43 10l-33 -8l-35 8q-10 2 -32 -3t-29 -5l-66 8l-53 -4l-41 8q-25 -2 -37 -6l-24 -8l-29 16q-18 2 -51 -1t-39 -3l-39 4l-28 -6l-36 6l-40 -10l-37 6q-4 0 -42 -5q-39 -5 -59 -2t-59 -3
q-88 -14 -119 25q-19 37 23 79q23 12 33 34t13 28t11 15t11 15t8 21q8 23 37 52q4 4 30 54t38 66q11 16 25 39q13 23 21 34t12 26t21 37q25 29 30 43t15 23q16 14 17 28q2 14 38 71q36 56 43 74t18 29q24 21 82 133q4 6 16 17t18 24q4 14 26 51t23 41t11 14t13 24
q4 13 10 22t29 39t29 40t20 29t10 26q-4 18 -24 17q-87 -8 -99 -5t-31 1t-57 -1t-81 -5t-119 -6q-76 -1 -117 -6t-70 9t-24 35l4 21l-6 26l8 58l-6 35l8 30q2 8 -5 24t-5 27q14 56 39 66q4 4 17 1t45 -2t67 -1l22 -6l57 6l68 -8l39 8l27 -6l24 4l35 -6l37 6l24 -6q4 0 14 2
t16 1q5 -1 16 -4t18 -3l41 6l37 -6l34 10l50 -8l37 10l30 -10l31 6l22 -6q29 -4 51 -4z" />
    <glyph glyph-name="backslash" unicode="\" horiz-adv-x="1576" 
d="M1382 -436q-10 0 -33 -4t-43 -1q-19 3 -66 -4t-67 14t-28 39t-20 44q-11 27 -68 127t-72 141q-6 10 -24 33t-22 33q-3 10 -5 15t-4 14t-21 37q-18 28 -22 35q-5 7 -13 25q-14 29 -51 88q-38 59 -56 97q-19 38 -33 56q-13 17 -17 25t-10 24q-5 15 -15 34t-42 70
q-43 68 -55 96q-12 27 -30 49t-33 53q-14 31 -53 87q-12 37 -29 56q-16 19 -25 35t-34 61q-40 74 -53 90t-25 52l-12 18q-11 15 -16 24l-15 27t-16 33q-6 14 -16 27q-10 12 -50 87t-87 145t-54 100q-6 29 -4 37t14 12q11 4 27 -2t22 -1t16 4q9 -1 12 1t8 0l12 -4t8 0t12 2
t13 2t17 -2t19 -1q4 3 29 4t32 -1t18 -4t13 -10q7 -11 19 -29t25 -54t19 -47t17 -23q9 -12 13 -18t9 -19q8 -20 23 -36q14 -16 40 -71q36 -78 61 -113t33 -56t23 -41q19 -25 35 -66q16 -40 35 -62t26 -43q7 -20 13 -29t22 -32q14 -23 20 -31t13 -25t23 -38q26 -34 38 -69
t49 -89q37 -55 46 -73t15 -35q6 -18 44 -80q41 -67 58 -106q17 -40 50 -82q53 -69 80 -121t50 -86q23 -33 36 -63l14 -30q8 -16 27 -40q27 -34 41 -64q14 -31 28 -44t27 -35t13 -26q0 -3 11 -23q13 -20 23 -31q41 -43 39 -64q-7 -39 -65 -28q-16 3 -26 3z" />
    <glyph glyph-name="asciicircum" unicode="^" horiz-adv-x="868" 
d="M741 1135l9 -35q0 -6 2 -10q13 -25 10 -34q-6 -19 -37 -13q-33 6 -45 5t-28 2t-23 0q-9 -3 -21 1t-20 2l-28 -11q-28 0 -43 49q-3 9 -6 14t-9 25t-20 30t-20 28q-7 16 -11 22q-5 6 -9 16t-5 13q-1 4 -3 4q-18 -30 -21 -34q-3 -5 -9 -20t-19 -25q-12 -10 -14 -14t-7 -22
q-4 -18 -12 -25t-14 -27t-19 -29q-10 -4 -13 -5l-30 11q-6 2 -19 -2t-21 -2t-12 2l-31 -4q-18 2 -52 -3t-39 13q0 14 6 21q6 8 6 12q1 4 2 14t4 14t4 12q2 14 14 33q13 19 13 37q1 18 6 24t8 21t10 21t14 32t13 33q6 9 7 19q2 10 6 14t7 19t9 22q3 8 19 5t24 -1t18 0t24 1
q16 3 25 3t12 -2t19 -1t23 0t19 1t22 2h20l29 -4l33 4q14 0 30 -3t24 -1t18 0t26 1t17 -5q8 -5 11 -21t6 -20t5 -14q3 -10 9 -18t13 -35q7 -25 13 -31t10 -20t8 -21t5 -23q0 -16 3 -20q25 -34 25 -47z" />
    <glyph glyph-name="grave" unicode="`" horiz-adv-x="710" 
d="M127 1409l83 4h19q11 2 19 -1t12 -3l33 4q13 0 29 -3t25 -1t17 0t25 1q16 3 19 -5q6 -5 10 -21t7 -20t5 -14t7 -18t13 -35q8 -25 15 -31q6 -6 10 -20t8 -21t4 -23q-1 -16 3 -20q26 -29 26 -45q0 -15 3 -19t5 -21t13 -40q-5 -20 -38 -14t-45 5t-27 2t-23 0t-22 1t-20 2
l-28 -11q-29 6 -41 44q-4 12 -7 18t-11 27t-20 32q-13 10 -19 26q-6 17 -12 23t-10 16q-5 10 -14 22q-8 12 -12 24t-16 26t-17 25q-5 10 -23 29t-16 37q1 18 4 18h7z" />
    <glyph glyph-name="a" unicode="a" horiz-adv-x="1165" 
d="M642 641q14 0 31 -4q18 -4 32 25q6 10 6 28t-20 27q-20 10 -41 15t-26 8t-28 0t-27 -3q-96 0 -166 -30q-41 -28 -78 -37q-36 -10 -51 -8q-41 6 -77 94l-7 28q-4 6 -14 14t-16 20t2 30q13 28 57 43q55 31 203 49q12 2 52 12t72 6t40 -4l94 4q4 0 49 -13t72 -14t48 -18
q21 -16 28 -20q80 -49 112 -105q4 -6 4 -19q1 -13 15 -27t16 -22q2 -7 1 -15t-1 -11l10 -53l-8 -35l8 -45v-119l6 -22l-10 -47l4 -152l4 -37l-4 -39q0 -4 5 -43t-5 -71q-10 -18 -84 -19q-194 0 -217 17q-10 6 -14 37q-26 3 -62 -17q-37 -20 -51 -24q-19 0 -57 -19h-31
q-40 -20 -53 -18l-24 4q-23 4 -48 3t-34 1t-27 8q-20 7 -47 11t-37 12t-22 21q-12 12 -20 18q-6 6 -20 18q-13 12 -26 20q-12 9 -16 14t-9 19q-4 13 -7 19t-10 17t-12 23t-6 76l-6 33q0 6 7 22q7 15 15 49t24 60q17 27 75 74q5 11 22 20t25 9q3 9 43 24q39 15 46 14t15 1
t34 12t57 19t58 13q29 5 57 8t42 7t28 4zM719 376q0 6 3 20t-1 28t-28 19t-37 2t-23 -6q-9 -3 -19 -5t-44 -7t-48 -11q-16 -6 -40 -30t-37 -50q-14 -24 4 -50q17 -26 39 -33t27 -8t11 0t16 1t19 4q49 2 51 2l29 14l24 8q9 0 15 6t12 8q6 3 9 6l11 11t13 22q4 15 -1 29t-5 20
z" />
    <glyph glyph-name="b" unicode="b" horiz-adv-x="1230" 
d="M127 1432l6 61q-3 57 11 67t38 13q24 2 30 4q5 2 22 -5t77 -5q12 6 31 6l25 -4l28 10l25 -6q6 0 21 2t30 -10q22 -18 11 -76t-9 -80t2 -33l-10 -30q-2 -16 0 -44t2 -40l-4 -134l4 -55q0 -16 -10 -41l2 -26q-17 -70 14 -105q12 -14 37 2q4 2 46 28t61 22q18 -3 22 -2t15 4
t16 3q117 8 262 -63q16 -6 32 -28q17 -21 23 -27q4 -2 9 -6t14 -10t23 -32q15 -27 36 -57t21 -59l20 -37q4 -10 2 -32t0 -29l10 -33l-4 -43q0 -188 -26 -230q-2 -2 -3 -4t-5 -7t-9 -27t-18 -38q-12 -16 -45 -67t-62 -68q-28 -16 -34 -20t-30 -27q-22 -24 -33 -28t-35 -2
t-63 -7q-39 -10 -60 -9q-20 1 -48 14q-6 0 -25 -1t-51 12t-55 33t-33 24q-15 5 -30 -12t-56 -30q-7 -6 -31 -1t-30 3l-72 -8l-51 4q-83 -4 -91 26q-3 10 2 31q5 20 5 25l-8 41l8 39l-4 43l8 31l-8 34l6 43l-6 41l8 41l-6 41l6 80l-4 142l8 53l-8 94l10 53l-6 56q0 10 5 29
t3 30l-8 31l6 20l-10 29l10 39l-8 35l-2 47v20q-2 74 4 131l6 25q0 10 -12 76zM803 461q0 8 -8 22q-7 15 -9 23t0 33t-3 39t-27 35q-22 22 -24 26q-3 4 -6 7t-5 6q-2 4 -15 10q-14 6 -60 11t-54 3q-57 -12 -96 -60t-43 -110l4 -35v-53q4 -16 10 -26t17 -42q11 -30 31 -50
t65 -30q101 -23 166 46q32 32 37 60t13 52q8 25 7 33z" />
    <glyph glyph-name="c" unicode="c" horiz-adv-x="1126" 
d="M955 873q13 -11 29 -25t17 -38q0 -24 -26 -42l-18 -12q-16 -11 -25 -27q-10 -16 -38 -32q-28 -15 -34 -19t-9 -9q-17 -28 -56 -48q-14 -2 -27 -6t-33 23t-22 32q-18 18 -47 28q-2 4 -18 3t-18 -1q-4 0 -12 4t-14 3q-61 -2 -141 -74q-27 -27 -27 -68q-16 -70 -16 -90
t10 -43q10 -22 14 -39q6 -27 22 -38q17 -10 29 -25q11 -14 20 -20t30 -7q95 -34 133 1q13 12 21 14q7 2 11 4q18 10 39 37q20 27 35 30q14 2 24 -3t22 -17q10 -11 16 -15t48 -35t68 -40q97 -35 63 -95q-11 -20 -23 -31t-21 -19t-23 -17q-14 -11 -19 -15t-12 -12
q-13 -15 -26 -20q-14 -5 -36 -26q-22 -20 -43 -22q-22 -2 -46 -13t-40 -11l-36 -2q-98 -14 -122 -14l-37 10l-31 -6q-18 0 -59 13t-59 36q-17 22 -39 22q-39 0 -51 18t-26 27q-14 8 -18 14t-12 15q-8 10 -11 15t-24 23t-24 38q-4 20 -20 33q-16 14 -18 29t-4 19t-10 15
q-8 10 -11 18t-1 38t2 40l-23 68q-2 18 -2 27l4 53q2 6 1 37t7 44t17 50t19 51t30 33q2 6 8 27t34 50t45 39t24 13q4 4 15 18t25 18q13 3 17 6t14 11t16 11t17 4t34 15t76 21q52 6 63 4t16 0q207 12 338 -100q22 -15 35 -26z" />
    <glyph glyph-name="d" unicode="d" horiz-adv-x="1239" 
d="M834 1581q25 0 65 -10l47 8q8 2 24 -1t23 -2q97 16 125 -26q12 -6 5 -36t-6 -34q9 -32 5 -57l-8 -37q0 -4 1 -11q1 -10 -9 -46l6 -31l-6 -49q-2 -47 0 -63l6 -33l-8 -49q-2 -31 0 -91t2 -87l-8 -111l6 -31l-6 -71l8 -111l-8 -47q-2 -8 2 -21t4 -20l-6 -43l-4 -195l10 -34
l-6 -56l6 -65q6 -29 1 -68t-38 -49q0 -4 -21 -3l-22 1q-39 0 -162 14q-10 2 -29 -8q-38 -20 -63 17q-2 2 -4 10t-10 18t-25 -6t-29 -25t-47 -20l-22 -8q-23 -8 -35 -10l-51 4l-58 -11q-6 2 -21 10t-36 6q-20 -1 -25 1t-33 14t-40 16q-20 8 -32 20t-24 15q-12 2 -16 9
q-22 19 -37 42q-14 23 -29 46t-21 37q-7 14 -22 29t-20 28q-4 12 -4 41l-14 43q-2 10 0 32t-5 36q-8 14 -8 18v80t2 84q2 7 6 13q5 8 17 69t35 95q22 35 54 67t38 43t10 16q8 6 27 12t51 24q106 55 135 33q16 0 92 9q6 1 35 -9q30 -10 56 -15t33 -10t14 -9l14 -8
q12 -9 25 -9q28 0 28 42v16q2 35 3 43t-3 44t-4 44l4 51q2 16 -1 47t-3 45l8 35l-8 59l10 37q0 7 -16 39l10 29q3 8 -5 27q-7 18 -10 31t9 46q13 33 27 37t39 4zM616 270q4 0 16 -1t19 2t23 15t41 29q25 16 37 62q12 45 12 62v67q0 59 -12 86l-21 22q-2 2 -10 16t-23 17v6
q-10 -1 -25 11q-43 33 -125 1t-106 -94q-2 -4 -2 -16v-16l-16 -50l6 -32q2 -4 1 -28t9 -39q11 -15 13 -25q9 -45 65 -78q6 -4 20 -7t29 -11q16 -8 30 -3q15 4 19 4z" />
    <glyph glyph-name="e" unicode="e" horiz-adv-x="1210" 
d="M100 565l15 33v15q0 9 2 14l33 86q4 8 6 19q6 30 51 75l37 37q4 4 12 22t28 25q21 7 45 27q25 20 40 26t34 8t72 18t82 17l88 -6q74 -4 76 -5q33 -17 62 -24q27 -8 55 -20t64 -42t49 -48q20 -27 38 -41q18 -13 25 -38q6 -25 24 -67t21 -52q2 -9 10 -27t14 -36
q5 -17 7 -49t4 -40q2 -7 3 -13t3 -14t2 -14q0 -29 -30 -29h-17q-70 -14 -89 -7q-43 16 -58 11q-16 -6 -29 -6l-82 6q-7 2 -25 0t-58 -1t-52 -3l-25 -8q-11 -2 -29 6t-33 2q-10 -8 -48 -5t-49 2t-22 -10t-10 -18q0 -39 52 -83t65 -50q12 -6 29 -6q109 -39 195 6t109 73
q23 29 49 2q6 -6 21 -17t29 -28q18 -22 54 -50q75 -59 49 -95q-11 -25 -28 -34t-45 -20t-41 -26q-13 -14 -21 -18t-47 -14t-69 -21t-43 -14q-14 -2 -26 -1q-13 1 -29 -6t-54 -7l-83 6l-41 -4q-30 10 -93 18t-75 23q-12 14 -17 16t-31 9t-39 22q-13 16 -18 21q-4 5 -22 11
t-24 12t-11 16q-5 11 -10 18q-26 13 -30 29t-21 31q-18 15 -18 34q-8 3 -15 28q-8 24 -17 38t-10 24t0 22t-7 46t-11 49l4 41v43q-6 24 -6 30zM725 642v22q-2 34 -6 38t-13 10t-14 11q-55 55 -113 47t-74 -35q-8 -13 -20 -16q-12 -2 -18 -6q-6 -5 -11 -25q-4 -20 -8 -32
q-10 -33 2 -44q13 -12 34 -10q20 2 42 0t25 -2l27 10l32 -6q10 -3 25 2q14 6 23 6l36 -6q26 4 28 18q3 13 3 18z" />
    <glyph glyph-name="f" unicode="f" horiz-adv-x="772" 
d="M659 1377q-1 -63 3 -81t0 -24q-6 -18 -56 -23t-49 -26v-17q-8 -16 -8 -28l6 -33l-14 -70l6 -41q-12 -74 -7 -91t21 -18t46 2t47 -11q17 -15 10 -57t-3 -104t-8 -73q-10 -16 -51 -16t-55 -13q-8 -10 -8 -28l8 -72l-8 -131q0 -84 2 -107l8 -43l-4 -55l6 -29q0 -6 -4 -23
t-2 -25t1 -29q-1 -19 -1 -33t1 -30q3 -54 -82 -45q-26 3 -32 3q-26 -9 -39 -6l-43 8q-8 4 -16 0t-13 -5t-13 -2t-24 5q-18 6 -32 7q-42 3 -49 33q-2 8 -3 22t-3 18l-4 16v9q0 4 3 9t6 13t2 18q-1 11 4 22t9 22l-10 75q-2 47 -2 52l8 28l-6 43l6 27l-6 63l10 78l-4 45l14 39
q-2 9 -16 21q-13 12 -25 12t-28 -8q-59 0 -64 41l2 34q2 5 0 19t-2 20l2 58q-6 59 9 74t60 7t52 23q2 4 -1 14t-3 38v57l4 96l-10 106l10 37l-6 33q12 24 15 43q2 20 10 42t11 38t27 35q24 17 48 41t55 33h33l26 10h18q13 0 17 2l27 8q6 2 20 -1t23 -3q32 16 72 7
q39 -9 47 -22t8 -40l-4 -41q-5 -38 -5 -102z" />
    <glyph glyph-name="g" unicode="g" horiz-adv-x="1224" 
d="M1090 332q-15 -58 4 -133l-7 -95l-6 -108l2 -29l-8 -43q-2 -8 -3 -25t-4 -33q-8 -42 -85 -124q-7 -7 -16 -20q-47 -72 -178 -90q-41 -6 -59 -11q-18 -6 -30 -7q-10 -1 -27 1t-26 2l-39 -12q-14 -2 -44 3t-38 5l-41 -6q-12 2 -38 9q-27 7 -69 13t-56 11l-29 14
q-10 2 -34 4q-74 6 -85 47q-11 11 3 33q13 22 19 36t36 58q30 45 42 70q54 13 79 -16q7 -7 24 -12t84 -34q10 -2 66 -4q57 -2 107 8t91 45t41 91q0 6 5 28t6 32q1 11 -9 21q-12 3 -16 3t-14 -8t-16 -11q-5 -2 -16 -5q-12 -2 -52 -18t-58 -20l-51 2q-6 0 -30 -7t-51 3
q-28 10 -41 15q-27 10 -45 10t-34 16q-78 41 -108 74q-21 42 -44 63q-22 20 -26 28t-10 22t-11 20q0 10 -10 33t-18 53q-7 30 -13 96t-4 83q2 18 13 40v24q0 17 2 27q25 115 71 182q20 30 51 60t41 42t15 16q6 4 45 20t48 19t18 7t30 13t23 10q57 6 100 0t73 -9t67 -28
q36 -24 43 -25l36 21q57 6 101 2l28 -6l25 6q6 2 25 1t61 6t64 -12q21 -19 10 -91q-2 -14 0 -38t2 -46t-4 -69q-4 -46 -1 -58q6 -19 3 -41l-3 -21l7 -94q0 -12 -4 -39t-6 -38q-2 -12 2 -32q3 -20 4 -30zM428 539v-29q-10 -88 25 -148q2 -10 17 -22q14 -12 21 -24
q7 -11 19 -20t38 -11q25 -2 53 -8t69 8q48 14 74 71t23 85t0 36t3 12l-8 27q0 4 1 24t-3 21q-23 59 -77 94t-118 31q-3 0 -15 2t-20 -1t-51 -62q-43 -60 -51 -86z" />
    <glyph glyph-name="h" unicode="h" horiz-adv-x="1185" 
d="M481 1470v-32q-8 -32 -8 -56t3 -44t1 -27l-10 -121l2 -111q0 -34 -6 -82l-8 -30l6 -39q0 -4 -2 -23t10 -29t52 24t59 34q20 0 24 1t10 5t11 4l55 19l51 -2q63 3 77 -1t60 -24q104 -49 144 -117q12 -20 32 -94l17 -61q2 -10 0 -30t-2 -28v-90q0 -10 -6 -22l6 -58l-10 -91
l10 -83q2 -14 -4 -43t0 -44q6 -16 5 -32q-1 -15 2 -29t0 -56t-30 -50q-4 -2 -12 -1t-12 -1l-39 -6l-31 6q-6 2 -22 0t-27 0q-13 2 -23 1t-28 -4t-29 -3l-29 6q-47 2 -55 14t-8 50q0 37 8 116l-4 45q-2 7 1 19t3 18l-8 72q0 11 10 51l-4 37l4 74q0 20 -5 64t-12 56t-30 24
t-33 20t-16 10q-57 8 -101 -23t-59 -88q-2 -6 -1 -17t-1 -18l-10 -34q0 -6 3 -18t-2 -60q-5 -49 -5 -51l12 -72l-4 -127l6 -84q4 -33 4 -35q-20 -41 -46 -41q-5 0 -13 4t-61 -3t-89 1l-20 8l-37 -8q-2 0 -34 5t-42 15t-13 24q-3 15 2 40t7 37l-4 33l10 67l-6 58
q-2 27 10 117l-4 34q-2 43 0 99v57l8 45l-14 55q0 13 6 25q0 44 4 72l10 51l-6 59l9 29l-13 50l6 42l-10 43q-3 43 5 113q7 71 7 100l-12 80q0 13 4 45q5 44 -4 68q-9 25 -6 36l8 31q8 29 12 33q10 6 35 6l51 4l58 -6l123 2q51 0 61 -11t10 -30l-2 -31q-2 -12 -2 -37z" />
    <glyph glyph-name="i" unicode="i" horiz-adv-x="591" 
d="M455 826q0 -8 3 -34t-1 -62t-2 -66l8 -52q-10 -145 -10 -180l4 -92q0 -144 2 -158t0 -34t-2 -27q0 -6 1 -28q3 -62 -16 -78q-19 -15 -43 -15l-32 4q-7 2 -15 0t-17 -3t-26 3q-16 4 -22 4l-86 -6q-6 0 -29 -2q-57 -4 -51 92v27q0 4 10 25t7 29q-3 7 -7 15t-6 15l4 33
l-4 38l12 50l-12 43l8 223l-8 100l8 37q0 75 -4 103t-4 58t36 41q3 1 13 0t14 -1l27 4q7 0 21 -4t20 -5t19 2t20 3l29 -6q4 0 96 12q27 2 39 -20t9 -37t-8 -29t-5 -22zM163 1358h30q12 0 19 3t38 0t39 -3l112 4q64 0 67 -35q1 -10 0 -23t1 -33t-3 -82t-3 -89l4 -41
q0 -33 -41 -33t-53 9t-19 9l-22 -6l-31 13l-84 -13l-56 -12q-34 0 -34 43l2 37l4 113q0 7 -4 33t-2 36t0 30t6 23q13 17 30 17z" />
    <glyph glyph-name="j" unicode="j" horiz-adv-x="684" 
d="M350 1360h86l37 6q55 0 69 -17t13 -39l-6 -63q0 -8 6 -151q2 -57 -27 -66q-18 -6 -61 8q-16 2 -47 0q-43 -3 -71 5q-29 8 -53 1q-23 -6 -43 -10t-34 12q-14 15 -14 45l6 46l-14 47l6 41l-4 81q0 18 9 36t25 24l29 -4q2 -2 88 -2zM275 950q11 0 37 -5t60 -5t46 -2l57 12
q7 -2 23 0q53 7 56 -35q1 -14 -2 -32t-1 -27l-4 -63l8 -80q-8 -48 -8 -99q-6 -12 -6 -28l4 -23q2 -6 0 -15t-2 -16l8 -69q0 -12 -6 -42t-4 -44l10 -33l-10 -74q0 -10 3 -17t3 -77l-6 -61l10 -39q2 -14 -3 -39t-5 -37l8 -27q3 -23 -5 -60q-7 -35 -6 -59q3 -75 -94 -161
q-4 -4 -15 -19t-39 -18q-26 -4 -34 -6t-26 -16t-29 -13l-37 4q-28 -4 -80 -4q-11 -11 -26 -6l-33 14q-37 8 -47 14t-10 25l2 25q2 6 -1 20q-3 13 -2 21t6 23t3 37t-2 48q0 27 -4 46t8 39q13 20 49 10q36 -9 63 18t30 35t-1 19t-4 16l6 32l-6 43q8 88 6 113l-6 78l6 92
l-16 35q0 8 7 22t9 22t-3 19q-5 13 -7 19t1 21t3 18l-4 32l4 31q0 10 -6 26t-4 27l10 35l-10 133l4 27l-8 55q-2 37 49 45h23z" />
    <glyph glyph-name="k" unicode="k" horiz-adv-x="1214" 
d="M131 713l4 198l-4 97l8 45l-4 32v136l-6 32l8 29q2 6 -3 18q-17 40 -1 119q2 5 -3 15t-5 14q-2 4 -1 22t-5 48q-6 29 2 32q17 22 32 23q15 2 32 2h22q27 2 105 1t105 4q28 5 41 -6q13 -12 16 -20t-3 -55q0 -25 -4 -96l-6 -33l6 -33l-6 -32l6 -41l-6 -37l6 -29
q2 -8 -2 -23t-4 -22l6 -178l-8 -53q-2 -6 3 -16t5 -14l-8 -26q-2 -8 1 -30t1 -29q-2 -8 -5 -17t-3 -16l4 -67q0 -4 -4 -23t6 -35q17 -11 24 -4q8 8 15 14q6 6 6 9q36 24 45 47t30 39q21 17 27 33q5 16 23 27q17 12 45 57t57 55q20 8 107 10l39 4l32 -6l45 12l27 -6l34 6
l39 -6l36 2q28 0 28 -30t-9 -44t-25 -23q-24 -12 -33 -28q-9 -15 -32 -34t-37 -33t-53 -52q-64 -60 -73 -76t-26 -26t-24 -20q-7 -11 -25 -28t3 -33q4 -3 10 -10t12 -12q5 -5 17 -25t30 -45q17 -25 47 -75t83 -117q21 -10 40 -47q19 -36 35 -55q17 -17 21 -23t7 -15
q4 -9 6 -12t10 -12t11 -19t-7 -25q-15 -21 -37 -21h-14q-75 -10 -92 -2t-21 8l-43 -6l-41 10l-70 -14q-20 10 -44 14t-27 10q-4 6 -10 18q-6 13 -25 36q-20 24 -43 72t-39 67q-16 18 -30 43t-29 26q-16 1 -23 -8q-8 -10 -10 -12q-39 -37 -49 -86l2 -33q6 -53 10 -79t-4 -36
q-8 -11 -35 -20l-37 -12q-12 0 -43 9t-54 3t-32 -8l-45 6q-6 0 -20 -1q-41 -3 -62 18q-20 27 -13 72t7 53l-4 30q-2 20 -1 58t1 49l-4 43q0 12 9 45t2 58t-7 34l4 49l-4 37l8 39q2 20 -2 59t-4 62z" />
    <glyph glyph-name="l" unicode="l" horiz-adv-x="604" 
d="M127 1501q0 66 31 78q0 6 22 1t34 -1q11 4 21 0q11 -4 15 -5t13 0t19 -3t24 -5t52 7q37 8 52 8q53 4 67 -20q11 -28 2 -78t-2 -164l-4 -31l2 -23q2 -24 2 -36l-4 -27q0 -4 4 -14t0 -24q-4 -15 -4 -19l2 -105l-8 -36q-4 -8 6 -29l-6 -49l6 -39l-10 -41q-3 -8 1 -20
q3 -11 3 -17l-4 -119l6 -34l-6 -40l4 -45l-4 -106l4 -35q-8 -25 -6 -40q2 -14 12 -44q0 -8 -6 -23t-5 -23t5 -20l6 -18t1 -69t-1 -69t6 -52q6 -47 -28 -62q-31 -8 -47 -8l-97 8q-18 3 -53 -4q-34 -8 -70 -7t-50 25t-10 74q5 52 6 101t3 67l8 60l-10 34q0 10 5 30t3 28t-6 19
t-4 18l10 51q0 6 -6 16q-9 15 -1 28q9 13 9 25l-8 35q8 16 8 33l-8 29l6 108l-10 47l8 41l-4 33l8 53l-8 35q10 30 10 42t-10 52l6 37l-6 31l6 63q-10 60 -10 93l8 30l-4 27l6 31q0 12 -9 37t-6 38t3 31z" />
    <glyph glyph-name="m" unicode="m" horiz-adv-x="1773" 
d="M1559 874q49 -55 49 -73q0 -19 3 -24t12 -17t11 -18t1 -16q-1 -9 0 -19t1 -40v-46l9 -56l-5 -26q2 -72 1 -179t8 -192l-4 -37l8 -47q0 -68 -51 -76q-8 -2 -24 4t-24 4l-43 -12q-4 0 -34 10l-33 -10q-10 -2 -30 1t-25 3l-38 -4q-22 0 -36 17q-15 17 -16 39t-1 38t5 45
l-7 35l19 62l-8 36l6 78l4 39l-10 41q2 4 8 47t-5 66q-12 22 -16 42q-9 42 -55 64q-25 12 -31 13l-37 -11l-24 4q-27 0 -41 -13t-19 -23t-21 -34t-17 -57l2 -61l-9 -94l9 -33q4 -51 -4 -92l6 -88l10 -33q2 -8 -2 -21q-4 -12 -4 -18t5 -34t-20 -40q-24 -12 -58 -11t-55 -2
t-41 -4t-49 1q-30 2 -38 2l-41 -2q-21 0 -35 17t-16 35t4 44q6 25 6 36t-2 48t4 58t6 41l-6 125q0 8 3 32t-4 89t-5 80t-4 26q-5 8 -21 13t-19 6t-6 5q-3 5 -7 7t-7 3q-4 1 -11 0t-9 -1l-33 10q-4 -2 -11 -6t-12 -6q-47 -10 -81 -56t-32 -122q1 -30 -1 -72t-2 -52l4 -51
l-10 -37q0 -8 10 -38l-4 -52l12 -86l-4 -28v-26q0 -36 -47 -41q-48 -5 -64 -1t-22 4h-133q-3 2 -17 2h-20q-23 0 -31 17q-6 6 -9 46t1 74l8 52l-2 67l-6 53l10 62l-10 53l10 39l-6 29q-2 14 -2 86l8 119q0 18 -10 88l4 57l-6 37q1 32 35 40q12 3 32 1t35 -2l80 8q16 2 37 0
t43 -2l38 2q26 0 28 -13t0 -23q-5 -23 22 -28q12 0 35 23q80 57 141 57l76 2q8 2 20 6q11 4 23 4t46 -12t61 -16t73 -39q4 -4 22 -33q18 -28 30 -28q17 1 26 12q9 12 14 14q92 92 187 92q6 0 19 4q12 4 20 6t21 -4q13 -4 20 -2l24 7q7 2 19 -2t16 -5q131 -10 193 -82z" />
    <glyph glyph-name="n" unicode="n" horiz-adv-x="1189" 
d="M471 158q0 -8 5 -38t6 -46t-9 -41q-16 -29 -47 -31l-38 8l-28 -4q-8 0 -21 3q-18 4 -40 -3t-35 -5q-14 1 -18 1l-45 -4q-45 6 -61 18t-15 37l-2 43q0 4 -2 12t-1 14q1 5 5 19q4 13 3 27t-1 19l10 44q2 4 2 26v26l-8 34q-2 8 -1 31t1 33q-14 28 0 55v158q0 76 -4 92t-2 36
q2 18 3 36q4 63 -4 92q-24 84 71 88q6 2 21 -1t22 -3l108 2l54 4q13 0 35 -7t26 -12t9 -19t15 -15q2 -1 26 17t35 23t25 8q16 3 41 16t48 10q22 -2 28 0l27 8l37 -2q55 0 61 -4l10 -5l8 -4t9 -4l26 -8q27 -8 39 -14q90 -51 125 -144q4 -10 8 -31t14 -41q14 -30 8 -81
q-5 -51 -5 -68l4 -34l-4 -33l14 -78l-12 -47q0 -4 5 -48q5 -43 2 -51t-2 -76t8 -122q10 -81 -93 -66q-45 7 -70 2q-25 -4 -34 -5t-45 0t-52 -2q-64 -11 -65 68l2 54l-4 39l14 43l-8 123l6 35l-2 38l4 50l-8 34q0 9 6 23t8 20q6 51 -51 103q-6 6 -16 20t-31 17q-21 4 -45 -6
t-40 -12q-15 -3 -24 -11q-63 -43 -63 -180q8 -17 6 -29t-2 -137l8 -59q2 -2 1 -36t-1 -42z" />
    <glyph glyph-name="o" unicode="o" horiz-adv-x="1236" 
d="M760 -6l-111 -27l-24 4l-31 -4l-29 10l-33 -4l-38 15q-4 0 -16 -4t-38 10q-25 14 -39 15t-28 14q-25 22 -51 30q-20 15 -72 71t-59 64q-6 8 -12 27q-7 17 -10 21t-6 6t-6 5q-7 7 -7 22v18q-28 42 -26 59q2 22 -7 48t-15 46q-25 244 160 420q51 49 64 58t43 18
q68 37 96 43q94 16 160 18l32 -6l45 6q4 0 10 -2t11 -4q6 -2 11 -4t21 -1t36 -10q19 -11 45 -19q25 -8 32 -23q33 -2 42 -11t16 -18t33 -32q25 -23 31 -31t18 -20q18 -18 25 -33q6 -15 13 -20t19 -17q11 -18 21 -50q14 -42 24 -67q11 -25 9 -52q-1 -28 -1 -34l8 -43v-19
l-4 -38l4 -39l-16 -72q0 -48 -25 -59l2 -9q-5 -5 -13 -24q-22 -56 -107 -148q-9 -9 -32 -18q-24 -9 -37 -24q-13 -14 -29 -19q-15 -5 -47 -21q-42 -22 -62 -22zM698 686h-20q-6 0 -15 7t-15 8t-17 -3t-15 -4t-17 5t-31 0t-46 -27q-26 -22 -36 -28q-10 -5 -16 -11
q-4 -6 -24 -51t-21 -54t4 -39t7 -36l6 -41q2 -6 12 -18t14 -30q8 -43 68 -70q61 -28 87 -18t40 8q13 -1 15 1q47 18 88 69t35 113q-2 23 -2 28l6 29q0 7 -8 28t-11 42q-4 4 -14 11t-24 35q-14 29 -31 42q-3 4 -19 4z" />
    <glyph glyph-name="p" unicode="p" horiz-adv-x="1234" 
d="M725 -14h-84q-8 0 -17 6q-13 9 -35 14q-21 5 -41 24t-28 22t-23 12t-28 4q-4 -2 -6 -31l-6 -27l6 -45l-4 -86q0 -30 6 -84t6 -119q-2 -39 -46 -49t-83 0l-27 11l-43 -11q-12 -2 -34 1t-55 5q-32 2 -49 19q-17 18 -17 31l10 53l-6 26l6 25v158q0 428 8 680l-6 67l10 29
q2 10 -4 24t-8 21l2 45l-8 30l6 27q0 4 -7 26t1 26q18 32 59 32q42 0 96 -12l56 4q21 0 51 -10q9 0 27 4t27 2t21 -16t23 -14q12 0 36 18t30 20t18 3q11 1 17 2t47 7t61 13q20 0 24 1t24 -4q22 -5 26 -6t18 -2q14 -2 20 -4t15 -7q8 -5 50 -14q43 -9 63 -25t38 -40
q18 -23 25 -30q24 -12 29 -20q6 -9 13 -24q7 -14 11 -20t14 -17q14 -14 15 -27q2 -14 12 -27q9 -11 12 -21t9 -78l14 -39l-2 -41q0 -51 -2 -88l4 -26l-8 -33q-8 -80 -14 -96q-6 -15 -18 -33t-15 -25l-4 -15q0 -30 -47 -83q-10 -12 -36 -30t-40 -37t-26 -26q-12 -8 -48 -18
t-60 -20t-31 -11t-50 -1zM807 487l-14 39q-3 8 -5 28t-4 32q-14 49 -65 80q-50 26 -84 28q-35 2 -41 -2q-59 -14 -100 -67q-4 -7 -10 -21t-14 -31q-9 -17 -10 -23q-1 -5 -1 -52l-4 -39q0 -12 5 -23q5 -12 7 -17t4 -22q2 -16 5 -23q4 -6 20 -24t27 -34q34 -51 122 -37h31
q72 18 106 114q25 63 25 94z" />
    <glyph glyph-name="q" unicode="q" horiz-adv-x="1234" 
d="M766 -334v22l2 23l6 37q0 16 -4 56t0 61l8 26q0 4 -4 16t4 30t8 26q-10 41 -10 49t4 19t-9 23q-13 11 -41 -7q-28 -17 -72 -37q-46 -20 -59 -19t-21 -1l-29 -13l-37 9q-6 2 -17 -1t-17 -3t-30 10q-23 10 -49 9q-27 -1 -37 7l-40 32q-29 24 -64 47q-35 22 -47 38
q-12 17 -16 29q-5 12 -9 17t-12 12q-16 14 -16 28q0 13 -10 35t-13 30q-2 8 -3 24q-1 19 -9 38q-8 20 -7 34q1 13 1 21l-17 92q0 9 5 25q14 43 14 80v33q0 27 24 63q2 6 4 22q3 16 7 24q4 9 19 31t17 21q6 12 8 20q3 13 13 21q11 8 18 20q10 18 28 26t38 28q20 19 47 33
t108 28t96 17q15 4 99 -29q17 0 35 -6q35 -35 53 -37q18 -3 41 15t31 20l35 -4q10 -2 29 0t24 2l33 6l90 -2q54 0 70 -10t16 -33l-4 -43l6 -33l-4 -75q0 -4 2 -18t1 -21q-1 -8 -6 -32t-5 -38l8 -57l-8 -33q0 -9 12 -45l-8 -45q0 -9 7 -32t-5 -91l-6 -29q-3 -25 8 -100
q0 -5 -8 -25l10 -55q0 -16 -10 -86q0 -4 4 -14t2 -17l-6 -53q10 -40 10 -68l-4 -28l6 -31q-8 -16 -8 -49q12 -96 8 -119t-21 -28t-51 -4t-54 0t-28 1q-10 2 -29 -2t-26 -4l-37 2q-54 -16 -82 17q-10 6 -10 22zM657 281q18 6 27 6t21 10q49 39 64 118t-5 134q0 4 1 14t-12 26
q-13 15 -17 20q-3 5 -7 21t-8 21q-7 6 -21 7t-23 4l-15 5q-11 2 -25 14t-74 3q-20 -2 -59 -43q-6 -4 -18 -11q-32 -18 -48 -73q-2 -8 1 -22t1 -21l-14 -33q0 -4 8 -45q18 -109 66 -141q20 -15 52 -19t46 -9q27 -10 59 14z" />
    <glyph glyph-name="r" unicode="r" horiz-adv-x="991" 
d="M119 68q0 16 7 47t6 46t0 37t1 36l2 75l-6 66q0 118 4 160l4 22l-8 37q0 12 3 96t-5 94q-14 101 -3 117q11 15 33 25t31 8t19 -6t14 -4l80 4l41 -8l65 6q35 0 35 -42t15 -40q9 -2 29 15q41 34 71 44q30 9 44 18q15 9 21 12t23 2q16 -1 21 -1l30 8q2 2 30 -5t44 -17
t26 -11q10 -2 12 -3q3 -1 7 -4t8 -5t7 -5l8 -6q11 -7 20 -10q10 -3 14 -8q29 -18 24 -45t-15 -37t-46 -69t-58 -111q-23 -53 -52 -61q-29 -7 -59 27t-54 41t-67 -6t-56 -42q-25 -53 -27 -60t0 -23q1 -16 -2 -38q-3 -20 3 -153l-6 -92q0 -12 12 -84t-16 -95q-12 -12 -68 -24
q-7 -2 -27 6t-28 8l-64 -10l-71 14q-8 0 -31 -5t-35 16q-10 27 -10 43z" />
    <glyph glyph-name="s" unicode="s" horiz-adv-x="980" 
d="M295 -10q-20 0 -27 2l-29 8l-28 -2l-23 10q-6 2 -38 6t-41 27q-6 9 -1 31t7 32t5 20t6 17q3 9 7 19t7 20t14 39t12 40q2 11 4 14t5 9q17 30 99 -8q6 -2 18 -2h19l29 -20l33 4q48 -16 59 -16t27 10t19 11q32 11 32 26q0 46 -60 73q-8 4 -24 10q-24 10 -32 18q-7 7 -16 7
h-11l-13 2q-6 4 -18 18t-28 16q-15 1 -19 3t-10 8q-7 7 -23 11q-15 3 -19 9q-3 7 -7 10q-7 6 -20 11t-20 18q-8 13 -11 16t-12 9t-15 14t-23 56q-43 121 23 223q27 41 30 45q62 52 80 62t32 13t28 9q13 6 55 9q41 3 51 4q10 2 26 5t39 3t34 2t79 -8l75 -2q30 -1 47 -9
q23 -12 52 -17t43 -25q23 -33 6 -57t-24 -49q-6 -26 -9 -33t-10 -15q-12 -17 -19 -51q-7 -35 -40 -50q-11 -1 -33 7t-63 23t-52 22q-10 6 -15 8q-6 2 -24 6t-54 -5t-32 -38t19 -35q16 -6 36 -16l26 -13q2 -2 6 -4t9 -7t55 -26q49 -20 63 -27t21 -8q46 -7 106 -71q7 -7 9 -13
q3 -7 7 -11l15 -15q21 -19 31 -37q9 -19 19 -81t-16 -136t-71 -110q-44 -36 -138 -60q-6 -2 -26 -10t-31 -10l-23 4q-16 -8 -32 -8l-43 4q-125 -6 -127 -6l-47 8h-27z" />
    <glyph glyph-name="t" unicode="t" horiz-adv-x="851" 
d="M547 1054v-44q0 -4 -9 -31t-1 -43q14 -28 65 -12l39 -6l45 2q25 0 33 -27q6 -2 2 -34t-4 -40t5 -67q6 -76 -20 -95q-18 -8 -77 -2t-74 -14q-10 -4 -7 -28q3 -23 1 -35t-2 -32t6 -50q0 -31 -2 -68l-4 -37l12 -29q0 -16 10 -26q31 -39 56 -39h18l57 4q47 0 47 -34l-8 -50
q10 -121 0 -162l-4 -24q0 -13 -5 -18t-8 -11q-9 -18 -58 -18l-74 10l-23 -4q-6 -2 -17 1q-10 3 -16 4t-24 -1t-24 0t-12 5q-14 9 -44 9t-42 14t-33 19q-21 6 -27 12q-78 68 -99 156q-2 6 0 15t0 14l-12 24q-4 20 -4 60v51l-6 25l6 30q-9 18 -6 33l6 22q0 77 7 110t7 52
q-7 27 -45 12q-12 -4 -38 -1t-37 13t-8 36t3 28l-6 53l8 58l-2 27q-2 28 2 28q4 23 33 19q18 -9 46 -9t38 17q4 16 0 43q-4 28 -4 33l6 36q0 6 -6 26t-4 32l6 56q0 9 -3 31q-6 45 -2 72q7 44 54 48q10 2 32 -1q34 -5 68 -2l39 3l41 -5l54 5q53 -4 61 -37q4 -10 -3 -28
t-7 -26l4 -30l-6 -39l10 -35l-8 -33q-2 -10 -2 -21z" />
    <glyph glyph-name="u" unicode="u" horiz-adv-x="1183" 
d="M1053 397q-6 -36 -6 -102l-3 -98l7 -37q4 -14 4 -52v-57q0 -32 -21 -41q-6 -10 -37 -6t-53 1t-123 3l-33 -6q-16 -2 -43 4t-33 29q-6 22 -18 22q-2 -1 -32 -21q-83 -56 -124 -51q-9 1 -16 1l-61 -11q-25 0 -70 15l-22 -4q-5 0 -23 8t-38 12q-28 5 -59 29q-31 23 -39 37
q-9 14 -13 17q-5 3 -7 6t-14 11t-14 29q-2 28 -16 45q-13 18 -12 50t-4 44q-5 13 -7 22t0 38t0 41l-6 26l6 25l-6 29l6 34l-6 27q0 6 6 20t4 21l-2 112q0 30 -2 52l-6 33l12 47l-12 77q0 13 10 35q11 17 35 17t60 -4t72 0t56 4l39 -6l29 2h14q37 0 37 -33l-6 -35
q-4 -20 -6 -80l-4 -73l6 -66l-6 -31l4 -28l-4 -41l4 -45l-8 -45l4 -48q-2 -39 0 -43q37 -80 88 -86q8 0 37 2t36 -2q6 0 14 -20t21 -12q12 8 10 13t-8 14t-2 15q3 6 25 28t22 38q21 21 18 66t-2 51t4 14q3 9 2 13t-4 15t-1 19l8 25l-6 39l8 33l-10 53q-2 12 -1 65
q1 67 -11 115q-13 48 4 59q5 3 45 11t96 2t90 0q80 14 111 -17q8 -8 8 -43l-2 -114l-4 -92l4 -31q-6 -18 -6 -37t3 -26t3 -72l-6 -45z" />
    <glyph glyph-name="v" unicode="v" horiz-adv-x="1216" 
d="M420 156q0 16 -19 50t-30 59t-25 65t-20 55q-6 13 -20 27t-16 24q-3 10 -6 36q-2 26 -10 41t-15 29t-12 31q-5 18 -19 35q-17 23 -22 46q-5 24 -18 39q-12 15 -17 25t-14 33q-9 25 -13 31t-7 14l-8 16q-4 7 -8 13q-4 7 -8 15t-9 14q-27 59 -6 82q10 10 47 10l107 -10
l160 -4l27 2q38 0 38 -43q0 -2 7 -36q6 -34 10 -44t10 -20q7 -11 9 -49q2 -37 19 -64q17 -26 20 -36t9 -37q6 -28 11 -38q6 -12 6 -41l10 -30q0 -2 2 -8t3 -8q6 -18 18 -12t12 18v22q0 14 9 40t13 45q4 20 17 42q13 23 23 78q10 54 18 68q8 15 12 27q7 23 12 63t27 59
q37 21 131 2l30 4h123q53 0 58 -2q31 -10 26 -55q-4 -18 -15 -30q-11 -13 -19 -35t-34 -63q-26 -40 -30 -75q-12 -9 -19 -31q-6 -22 -25 -54q-18 -32 -28 -54q-10 -23 -30 -71q-29 -69 -41 -85q-13 -16 -14 -39t-38 -74q-33 -66 -42 -100q-12 -46 -20 -57q-8 -12 -22 -58
t-47 -48q-12 -1 -27 1t-24 0l-35 -14l-34 14l-31 -6q-16 -2 -47 4t-34 31q-1 12 -9 24t-13 31q-4 19 -14 34q-10 16 -10 32z" />
    <glyph glyph-name="w" unicode="w" horiz-adv-x="1742" 
d="M988 108q-3 6 -3 22q1 15 -21 63q-22 47 -27 55t-7 14t-12 38t-16 42t-10 23q-5 13 -16 14q-12 2 -20 -6t-10 -8q0 -15 -13 -35q-15 -24 -61 -134q-46 -111 -53 -134q-17 -60 -52 -60l-34 4l-39 -8l-35 8q-12 2 -45 -3t-56 19q-22 23 -38 79q-16 57 -20 65t-11 17
q-12 18 -13 34q-2 16 -36 84q0 28 -12 46q-12 19 -18 31t-18 45q-14 34 -18 44t-4 22q0 11 -14 40t-20 36q-5 8 -8 20q-6 26 -22 49q-17 23 -20 46q-3 22 -14 31q-12 10 -15 18t-9 34t-19 49q-14 24 -16 34t-18 32q-15 22 -7 40t38 21t65 0q36 -3 75 -1q40 2 106 2t76 -9
t19 -32q8 -23 8 -37q5 -8 23 -76t40 -117t38 -111q14 -62 23 -78t21 -11q12 4 14 20q1 17 8 33t17 31q16 23 18 39t10 31q9 16 11 20t3 13q2 16 36 67q2 8 5 17q4 10 6 20t5 20t20 46t27 84t31 70q20 22 44 15q25 -6 34 -14t14 -37q5 -28 13 -40t16 -41q8 -31 20 -55
t47 -109t61 -137t26 -79q0 -26 14 -26q16 -2 24 16t13 55q6 37 25 77t29 87q11 48 15 59t10 24q11 20 11 44v21q4 10 14 32t12 31q6 40 43 37q37 -4 52 -4l31 4q14 0 68 -3q55 -3 107 -1t64 -4t11 -55q-2 -14 -25 -45t-33 -78q-6 -10 -20 -32q-22 -35 -27 -59
q-4 -25 -26 -65t-26 -54q-5 -14 -11 -36q-7 -23 -11 -34t-11 -24q-7 -12 -12 -24t-12 -26q-19 -37 -32 -79t-27 -71q-14 -28 -14 -47h-6q-2 -13 -14 -33t-13 -28q-2 -8 -6 -27q-4 -21 -9 -29q-4 -8 -14 -34t-26 -42t-65 -16l-79 6l-28 -4q-4 0 -12 3q-14 5 -25 4
q-20 -3 -29 16t-16 49q-8 12 -18 23t-14 17z" />
    <glyph glyph-name="x" unicode="x" horiz-adv-x="1124" 
d="M364 446q7 9 7 27q-1 18 -9 31q-8 14 -17 29t-23 22q-4 7 -10 19t-23 30t-23 28t-16 41q-10 32 -37 46q-4 4 -12 23t-35 32l-9 18t-15 21q-13 14 -25 41q-22 50 16 69q20 9 37 9l45 -14l25 6q199 0 212 -8q33 -19 47 -74q14 -56 23 -65q8 -9 22 -9t29 23q16 23 21 40
q23 23 32 43t24 32q15 13 47 12q31 -2 96 1t100 3t69 5t45 -11q25 -35 -5 -66q-27 -33 -35 -46q-9 -14 -15 -22t-19 -30t-19 -28q-6 -7 -16 -17q-11 -11 -15 -17q-3 -6 -9 -19t-10 -19t-16 -17q-12 -9 -16 -17t-11 -25q-6 -17 -12 -26q-10 -5 -37 -43t-20 -61q0 -11 16 -27
q2 -4 5 -19t27 -40q25 -24 32 -41q10 -26 29 -41q19 -16 28 -38q8 -21 15 -31q8 -10 20 -28q12 -16 25 -34t19 -26t14 -21q9 -11 13 -19q3 -8 11 -20q14 -22 14 -43t-19 -35q-29 -16 -54 -11t-47 10t-31 7t-25 -1t-23 -1l-39 6l-55 -10q-47 -6 -71 20t-58 121q-16 43 -37 43
q-11 0 -17 -9q-5 -9 -14 -24t-18 -45t-17 -40q-9 -11 -11 -14t-8 -18q-5 -15 -27 -24q-23 -8 -54 -8t-39 8l-37 -6q-113 -4 -153 -7t-62 13q-14 16 -7 43t17 38t32 30q21 19 25 38t32 50q27 31 46 62t25 39t23 41q17 32 37 36q5 34 15 44z" />
    <glyph glyph-name="y" unicode="y" horiz-adv-x="1159" 
d="M176 636q-4 5 -12 13t-8 26t-18 64t-22 55q-3 9 -12 27q-27 61 -4 84q14 19 36 15t32 -6t49 0q39 1 51 -2t35 1q23 3 30 5t35 0t50 -4t33 -15q10 -16 13 -50q4 -42 12 -57t22 -95q15 -81 21 -97q5 -15 6 -32t11 -43q10 -25 16 -43q5 -18 13 -17q14 0 23 20q24 63 24 79
t10 50q10 33 14 61q3 28 7 40t12 29q11 22 18 67q18 116 84 110q11 -1 31 -5t26 -3l30 11q121 -2 162 5t52 -30q12 -37 -10 -92q-23 -54 -40 -83q-18 -30 -20 -40t-4 -22q-2 -15 -14 -34q-13 -19 -30 -62q-18 -44 -22 -71q-6 -41 -31 -79q-4 -10 -9 -30q-4 -20 -8 -28
q-4 -6 -9 -14q-7 -11 -7 -39q-4 -10 -19 -37t-13 -44q1 -17 -2 -28t-17 -36q-13 -24 -21 -44t-22 -68t-16 -57t-13 -31q-10 -22 -31 -90q-20 -68 -32 -97q-29 -63 -115 -119q-4 -2 -19 -15t-79 -23q-65 -9 -87 -8q-23 1 -57 11q-8 0 -22 -1q-49 -3 -62 29q-8 19 -8 32l4 59
l-4 106q0 4 -2 25t10 39q15 15 43 13q29 -1 34 -1l28 6q39 2 47 17q28 61 -8 135q-2 4 -11 15t-11 24q-1 12 -12 33t-16 38q-6 16 -20 81q-15 65 -23 89t-23 56q-15 31 -19 42t-8 26q-3 14 -5 20t-7 12t-8 15t-10 45q-6 36 -12 46t-10 16z" />
    <glyph glyph-name="z" unicode="z" horiz-adv-x="1169" 
d="M677 279h11q4 -1 11 -5t12 -2l45 15q6 6 38 0t36 -6l24 10q10 2 38 1t40 1l25 4q3 0 14 -4q20 -14 17 -77t0 -132t-23 -78q-47 -12 -76 -10l-31 8q-8 4 -55 4l-45 -8q-30 10 -39 10h-47q-13 0 -25 6l-74 -10q-10 -2 -30 2t-125 4l-70 -6l-20 4l-90 -10q-4 0 -17 3t-35 -4
t-28 -7t-16 2t-20 6q-9 4 -11 6t-12 7q-9 5 -8 9t-4 10q-5 7 -1 13q6 25 40 57t38 37t9 17t9 18q87 107 154 207q4 4 16 14t29 40q16 29 57 75q40 48 48 60t15 20q22 25 2 39q-7 4 -27 4h-48q-40 -10 -80 -10l-29 8q-4 2 -65 -4l-32 -2h-16q-15 0 -30 10q-12 12 -10 63
l4 105l-4 53q0 33 12 46t37 15q25 3 31 5t21 -3t34 -1l39 -9l37 11l45 -11l45 -2h43q24 12 33 13l57 -13q63 -4 132 1t85 1q24 -6 35 3q12 8 70 7q56 -1 90 2t48 -5t15 -32q5 -57 -45 -81q-6 -6 -12 -20t-25 -31q-31 -28 -46 -58q-16 -31 -83 -114q-67 -84 -81 -112t-30 -38
q-15 -10 -24 -29q-9 -18 -27 -39q-18 -20 -22 -26t-9 -13t-6 -11t-5 -13q-4 -8 0 -12q6 -8 17 -8z" />
    <glyph glyph-name="dieresis" unicode="&#xa8;" horiz-adv-x="1081" 
d="M119 1146v25q6 12 6 24l-6 30l6 41q0 2 -2 15t-3 21t-2 20q-1 13 0 21t2 21t15 33q21 12 37 11t44 -8t58 -5t84 0t68 1t27 -4q14 -7 14 -21v-25q8 -23 0 -88t-6 -81q2 -17 12 -41t2 -50t-31 -33q-4 -2 -63 -2l-156 4q-2 0 -41 -4t-39 2q-18 5 -25 25t-4 35t3 33z
M691 1403q12 0 32 -10h54l44 -9l51 13q6 -2 33 -4t36 -12q9 -9 17 -38l11 -30q-1 -12 -11 -41t-12 -38t6 -17t9 -15l-15 -35q0 -10 8 -26q19 -37 -9 -68t-123 -21q-30 3 -42 3l-69 -4q-4 0 -49 -4q-54 -5 -54 34v13q-12 43 -4 118q11 22 10 31q-2 9 -9 25t-5 28q0 80 18 93
q0 6 41 4q20 10 32 10z" />
    <glyph glyph-name="Agrave" unicode="&#xc0;" horiz-adv-x="1587" 
d="M922 399h-246q-6 0 -42 3t-54 -7q-21 -21 -21 -45l2 -24q-2 -6 -12 -26t-14 -55q-3 -35 -19 -70t-18 -47t-4 -39q-6 -80 -53 -87q-13 -2 -29 -3t-28 -4t-38 5q-25 8 -35 8l-47 -10l-35 4q-66 -2 -78 1t-28 5t-23 8q-14 16 -11 52t11 45q8 10 25 27t19 31q1 15 3 22
q43 91 58 148q15 56 30 80q15 25 18 33t4 22q1 12 3 20t10 19t12 19t6 30q3 22 6 29t8 23t8 22t9 17q5 11 9 17t5 23q2 36 27 73q0 4 19 47t20 62q2 18 4 24q-1 6 9 18t10 21v14q2 6 7 16q9 17 9 26v14q2 6 13 19t18 39q6 28 9 36t10 17q12 15 12 28t16 46t18 54q3 21 7 35
t20 51q15 37 19 49t5 26q1 16 4 22t10 14t9 12t8 35t23 44t42 12t49 0t63 -1l28 -4l33 10q8 2 45 -2l26 -2q50 0 50 -53l14 -43q2 -4 7 -13t24 -74q18 -65 36 -103t57 -153q39 -116 71 -191q31 -74 37 -94t10 -46t7 -36t14 -30q12 -20 14 -26t4 -20q3 -19 23 -58t42 -120
q21 -81 29 -99t15 -27q14 -18 16 -45t42 -115q39 -87 46 -100l10 -20q8 -24 3 -50t-32 -34q-5 -3 -18 3q-12 5 -16 5l-47 -6l-40 6l-59 -6l-37 4l-55 -6q-58 0 -73 39q-3 8 -7 18t-4 27q-14 57 -16 69t-15 44q-14 32 -20 96q-5 63 -31 94q-21 21 -60 16q-39 -4 -44 -4z
M821 1046q0 31 -24 31q-16 0 -20 -11q-15 -34 -15 -49v-20l-45 -118v-14q0 -14 -10 -30q-11 -16 -13 -23t-2 -22q0 -14 -2 -20t-9 -21t-7 -21v-21q9 -33 74 -27q23 2 24 2l33 -2l26 8l43 -6q29 4 35 6q25 14 15 66q-4 13 -11 22q-6 10 -8 18t-5 16q-3 9 -4 17q-1 9 -3 17
t-5 16t-6 20t-16 45q-13 34 -17 59q-5 24 -17 40q-11 16 -11 22zM512 1964l84 4h18q12 2 20 -1t11 -3l33 4q14 0 30 -3t24 -1q10 2 18 0t24 1t19 -5q6 -6 10 -22t7 -19q3 -4 5 -14q2 -11 7 -19q6 -8 14 -34t14 -32t10 -20t8 -20t4 -22t4 -21q26 -29 25 -44q0 -15 3 -19
t5 -22q2 -17 13 -40q-5 -20 -38 -14q-32 6 -44 5t-28 2q-15 3 -23 0q-7 -3 -21 1t-20 2l-29 -11q-30 7 -41 44q-4 13 -7 19t-9 22q-6 18 -8 22t-15 14q-12 10 -18 26q-5 16 -11 22t-11 16t-14 23t-13 25t-15 26q-12 14 -17 24t-23 29t-16 37q1 18 4 18h7z" />
    <glyph glyph-name="Aacute" unicode="&#xc1;" horiz-adv-x="1587" 
d="M922 399h-246q-6 0 -42 3t-54 -7q-21 -21 -21 -45l2 -24q-2 -6 -12 -26t-14 -55q-3 -35 -19 -70t-18 -47t-4 -39q-6 -80 -53 -87q-13 -2 -29 -3t-28 -4t-38 5q-25 8 -35 8l-47 -10l-35 4q-66 -2 -78 1t-28 5t-23 8q-14 16 -11 52t11 45q8 10 25 27t19 31q1 15 3 22
q43 91 58 148q15 56 30 80q15 25 18 33t4 22q1 12 3 20t10 19t12 19t6 30q3 22 6 29t8 23t8 22t9 17q5 11 9 17t5 23q2 36 27 73q0 4 19 47t20 62q2 18 4 24q-1 6 9 18t10 21v14q2 6 7 16q9 17 9 26v14q2 6 13 19t18 39q6 28 9 36t10 17q12 15 12 28t16 46t18 54q3 21 7 35
t20 51q15 37 19 49t5 26q1 16 4 22t10 14t9 12t8 35t23 44t42 12t49 0t63 -1l28 -4l33 10q8 2 45 -2l26 -2q50 0 50 -53l14 -43q2 -4 7 -13t24 -74q18 -65 36 -103t57 -153q39 -116 71 -191q31 -74 37 -94t10 -46t7 -36t14 -30q12 -20 14 -26t4 -20q3 -19 23 -58t42 -120
q21 -81 29 -99t15 -27q14 -18 16 -45t42 -115q39 -87 46 -100l10 -20q8 -24 3 -50t-32 -34q-5 -3 -18 3q-12 5 -16 5l-47 -6l-40 6l-59 -6l-37 4l-55 -6q-58 0 -73 39q-3 8 -7 18t-4 27q-14 57 -16 69t-15 44q-14 32 -20 96q-5 63 -31 94q-21 21 -60 16q-39 -4 -44 -4z
M821 1046q0 31 -24 31q-16 0 -20 -11q-15 -34 -15 -49v-20l-45 -118v-14q0 -14 -10 -30q-11 -16 -13 -23t-2 -22q0 -14 -2 -20t-9 -21t-7 -21v-21q9 -33 74 -27q23 2 24 2l33 -2l26 8l43 -6q29 4 35 6q25 14 15 66q-4 13 -11 22q-6 10 -8 18t-5 16q-3 9 -4 17q-1 9 -3 17
t-5 16t-6 20t-16 45q-13 34 -17 59q-5 24 -17 40q-11 16 -11 22zM1001 1968l84 -4h7q4 0 5 -16t-16 -37q-18 -21 -23 -31t-17 -24q-11 -14 -15 -26t-13 -24l-15 -23q-5 -9 -10 -17t-11 -22q-7 -16 -19 -26t-14 -14t-8 -22t-9 -22t-7 -18q-11 -37 -41 -45l-29 11q-6 2 -20 -2
t-21 -1t-23 0t-28 -2t-45 -4t-37 13l20 74q0 12 14 33q14 22 15 38q0 17 4 23t8 20t10 20q7 6 15 32t13 34t7 18t6 15q2 4 7 19q4 15 10 22q2 8 18 5q17 -3 25 -1t17 0t25 1t30 3l32 -4q2 0 10 3t18 2q9 -1 21 -1z" />
    <glyph glyph-name="Acircumflex" unicode="&#xc2;" horiz-adv-x="1587" 
d="M922 399h-246q-6 0 -42 3t-54 -7q-21 -21 -21 -45l2 -24q-2 -6 -12 -26t-14 -55q-3 -35 -19 -70t-18 -47t-4 -39q-6 -80 -53 -87q-13 -2 -29 -3t-28 -4t-38 5q-25 8 -35 8l-47 -10l-35 4q-66 -2 -78 1t-28 5t-23 8q-14 16 -11 52t11 45q8 10 25 27t19 31q1 15 3 22
q43 91 58 148q15 56 30 80q15 25 18 33t4 22q1 12 3 20t10 19t12 19t6 30q3 22 6 29t8 23t8 22t9 17q5 11 9 17t5 23q2 36 27 73q0 4 19 47t20 62q2 18 4 24q-1 6 9 18t10 21v14q2 6 7 16q9 17 9 26v14q2 6 13 19t18 39q6 28 9 36t10 17q12 15 12 28t16 46t18 54q3 21 7 35
t20 51q15 37 19 49t5 26q1 16 4 22t10 14t9 12t8 35t23 44t42 12t49 0t63 -1l28 -4l33 10q8 2 45 -2l26 -2q50 0 50 -53l14 -43q2 -4 7 -13t24 -74q18 -65 36 -103t57 -153q39 -116 71 -191q31 -74 37 -94t10 -46t7 -36t14 -30q12 -20 14 -26t4 -20q3 -19 23 -58t42 -120
q21 -81 29 -99t15 -27q14 -18 16 -45t42 -115q39 -87 46 -100l10 -20q8 -24 3 -50t-32 -34q-5 -3 -18 3q-12 5 -16 5l-47 -6l-40 6l-59 -6l-37 4l-55 -6q-58 0 -73 39q-3 8 -7 18t-4 27q-14 57 -16 69t-15 44q-14 32 -20 96q-5 63 -31 94q-21 21 -60 16q-39 -4 -44 -4z
M821 1046q0 31 -24 31q-16 0 -20 -11q-15 -34 -15 -49v-20l-45 -118v-14q0 -14 -10 -30q-11 -16 -13 -23t-2 -22q0 -14 -2 -20t-9 -21t-7 -21v-21q9 -33 74 -27q23 2 24 2l33 -2l26 8l43 -6q29 4 35 6q25 14 15 66q-4 13 -11 22q-6 10 -8 18t-5 16q-3 9 -4 17q-1 9 -3 17
t-5 16t-6 20t-16 45q-13 34 -17 59q-5 24 -17 40q-11 16 -11 22zM512 1769q0 17 4 23t8 20t10 20t15 33q8 26 13 34t7 18t6 14q3 3 7 19t10 22q2 8 18 5t24 -1t18 0q9 -2 25 1t24 3t12 -2t19 -1q16 1 24 0t19 1t21 2h19q13 2 21 -1t10 -3l33 4q14 0 29 -3q14 -3 24 -1t18 0
t24 1t19 -5q7 -6 11 -21t7 -19t5 -15q2 -10 7 -18t13 -34t14 -32q6 -7 11 -21q4 -14 8 -20t4 -22t3 -21q3 -4 11 -18q7 -13 11 -19t4 -14l20 -74q-4 -18 -37 -13t-45 4t-27 2t-23 0t-22 1q-13 4 -20 2l-28 -10q-28 0 -41 44q-3 13 -7 18t-11 26t-20 32q-13 10 -19 26t-11 22
q-4 6 -8 15t-6 14t-5 0q-2 -5 -8 -14l-10 -15t-10 -22t-18 -25t-15 -13q-2 -4 -7 -22t-12 -26q-8 -8 -14 -28t-18 -28q-10 -4 -14 -4l-29 10q-5 2 -19 -2t-22 -1t-24 0t-27 -2q-12 1 -45 -4t-37 13l20 74q0 8 3 13l12 20q8 14 11 18t3 20z" />
    <glyph glyph-name="Adieresis" unicode="&#xc4;" horiz-adv-x="1587" 
d="M922 399h-246q-6 0 -42 3t-54 -7q-21 -21 -21 -45l2 -24q-2 -6 -12 -26t-14 -55q-3 -35 -19 -70t-18 -47t-4 -39q-6 -80 -53 -87q-13 -2 -29 -3t-28 -4t-38 5q-25 8 -35 8l-47 -10l-35 4q-66 -2 -78 1t-28 5t-23 8q-14 16 -11 52t11 45q8 10 25 27t19 31q1 15 3 22
q43 91 58 148q15 56 30 80q15 25 18 33t4 22q1 12 3 20t10 19t12 19t6 30q3 22 6 29t8 23t8 22t9 17q5 11 9 17t5 23q2 36 27 73q0 4 19 47t20 62q2 18 4 24q-1 6 9 18t10 21v14q2 6 7 16q9 17 9 26v14q2 6 13 19t18 39q6 28 9 36t10 17q12 15 12 28t16 46t18 54q3 21 7 35
t20 51q15 37 19 49t5 26q1 16 4 22t10 14t9 12t8 35t23 44t42 12t49 0t63 -1l28 -4l33 10q8 2 45 -2l26 -2q50 0 50 -53l14 -43q2 -4 7 -13t24 -74q18 -65 36 -103t57 -153q39 -116 71 -191q31 -74 37 -94t10 -46t7 -36t14 -30q12 -20 14 -26t4 -20q3 -19 23 -58t42 -120
q21 -81 29 -99t15 -27q14 -18 16 -45t42 -115q39 -87 46 -100l10 -20q8 -24 3 -50t-32 -34q-5 -3 -18 3q-12 5 -16 5l-47 -6l-40 6l-59 -6l-37 4l-55 -6q-58 0 -73 39q-3 8 -7 18t-4 27q-14 57 -16 69t-15 44q-14 32 -20 96q-5 63 -31 94q-21 21 -60 16q-39 -4 -44 -4z
M821 1046q0 31 -24 31q-16 0 -20 -11q-15 -34 -15 -49v-20l-45 -118v-14q0 -14 -10 -30q-11 -16 -13 -23t-2 -22q0 -14 -2 -20t-9 -21t-7 -21v-21q9 -33 74 -27q23 2 24 2l33 -2l26 8l43 -6q29 4 35 6q25 14 15 66q-4 13 -11 22q-6 10 -8 18t-5 16q-3 9 -4 17q-1 9 -3 17
t-5 16t-6 20t-16 45q-13 34 -17 59q-5 24 -17 40q-11 16 -11 22zM710 1999q26 0 27 -24v-25q8 -25 0 -88q-8 -62 -6 -80t12 -43q11 -25 3 -51t-31 -33q-4 -2 -64 -2l-155 6q-2 0 -41 -4t-39 2q-18 5 -26 25t-4 34q3 14 3 32v28q6 6 6 22l-6 31l6 39q0 4 -2 17t-4 30t-1 29
t3 28t18 28q17 13 33 11t44 -9t58 -4t84 0t64 -1t18 2zM908 1997h22l33 8l30 -8q7 -2 27 -1t28 0t21 -4q15 -3 23 -4t24 6t24 6t20 -2q11 -1 24 -3t24 -10q10 -9 16 -25t10 -28q5 -12 5 -18q0 -18 -15 -49t-4 -42q11 -12 11 -19l-14 -32q0 -10 8 -27t6 -36q-6 -56 -91 -56
l-89 6l-70 -6q-4 0 -47 -2t-49 13q-6 14 -6 21v11q-12 43 -5 119q9 18 9 28t-7 28q-8 18 -6 30q0 75 19 92q0 4 19 4z" />
    <glyph glyph-name="Ccedilla" unicode="&#xc7;" horiz-adv-x="1601" 
d="M799 -371l-55 6q-8 0 -11 3q-10 0 -16 6l-15 2q-12 6 -16 10t-10 7t-8 7t-4 5t-8 5t-8 7q-3 2 -8 6t-10 14t0 17q6 6 22 14q35 17 44 31q4 2 14 11t21 -5q10 -15 13 -17t6 -2t15 -6t34 -2t24 4q2 2 5 6t11 10q8 5 14 24q5 18 5 24t-5 29t-11 28q-29 25 -55 28
q-25 3 -31 11t0 29q12 16 12 22q0 5 -4 13l-8 16t-18 4t-34 8t-90 30t-82 27q-35 24 -51 27t-27 16q-10 13 -16 18t-21 11t-25 13t-26 29q-17 22 -24 30q-41 27 -57 59q-59 59 -65 85q-7 27 -30 58q-24 31 -24 55q0 23 -13 43q-13 21 -15 29t0 26q1 24 -10 39q-11 16 -15 71
l6 22q-2 10 -9 28q-23 57 -8 171q0 9 11 24q0 8 -1 30t1 28t8 16q8 13 14 64q7 51 26 88t23 47t17 39q21 47 39 56t19 23t8 28t42 50q11 14 63 54t97 69q4 5 12 13q17 18 70 35t74 28q22 12 36 11q23 -2 46 12q24 4 69 4q12 2 39 10t39 4t21 -5t41 0t112 -6t119 -21t53 -23
q14 -10 64 -30t86 -54q14 -10 48 -35t46 -31q14 -6 14 -16q6 -9 3 -21t-4 -18t-15 -22t-33 -29q-10 -10 -28 -36t-37 -40q-19 -13 -40 -43q-22 -31 -33 -41t-31 -13t-28 1q-14 6 -22 18q-7 12 -19 21q-12 8 -16 12q-12 24 -14 29q-43 43 -107 59q-12 2 -42 12t-41 12t-22 1
q-11 -2 -18 -2l-43 2l-65 -13q-49 -8 -57 -11t-18 -11q-11 -8 -16 -10l-20 -8q-52 -19 -129 -124q-4 -4 -20 -18t-33 -66t-28 -72q-11 -22 -16 -38t-4 -50t-1 -57l-6 -30q0 -38 4 -54t4 -30v-21q3 -12 21 -60t19 -60q2 -20 16 -33t20 -32t12 -26q63 -82 133 -121q6 -4 25 -8
t44 -19q25 -16 38 -16q14 0 57 -9t100 -1q169 26 237 134q13 20 17 23t13 12t27 8q29 -2 43 -30t46 -61t49 -59q18 -27 26 -35t22 -20q60 -55 20 -85q-4 -2 -9 -8q-54 -60 -117 -88q-9 -4 -20 -9q-10 -5 -22 -9t-49 -26t-67 -30q-37 -9 -53 -18q-24 -14 -64 -14l-39 -10
l-35 2q-3 0 -13 -2t-17 0t-16 -8t-6 -13q21 -14 24 -26q6 -23 13 -23l17 -47q2 -2 1 -12t1 -13v-28l-8 -27v-29q0 -2 -3 -6q-4 -4 -6 -10q-4 -10 -9 -14t-5 -11l-2 -8q-4 -2 -9 -8t-9 -10q-4 -3 -6 -7t-6 -7t-7 -4q-2 -1 -4 -6t-12 -7q-27 -6 -27 -14q-20 -13 -41 -13l-10 2
z" />
    <glyph glyph-name="Egrave" unicode="&#xc8;" horiz-adv-x="1153" 
d="M983 824q0 -20 -2 -27l-8 -30l10 -26q2 -4 -1 -13t-3 -18q0 -10 2 -28q9 -81 -46 -85q-11 -1 -31 0t-25 1l-37 4q-115 0 -119 2l-57 8q-6 2 -18 -4t-17 -4l-21 8q-2 2 -16 2h-16l-78 7q-29 -3 -32 -9t-3 -41v-138l6 -23q0 -8 -9 -47q-9 -38 3 -53t31 -10t69 5q49 0 67 3
t49 -2q30 -5 48 -5q17 0 127 10l53 -6l31 6l35 -4q47 6 63 -1t8 -40t-8 -37l-2 -57l8 -39q0 -6 -7 -23t0 -41t6 -35t-13 -26q-10 -8 -34 -16q-36 -12 -58 7q-22 18 -35 5q-2 -2 -6 -3t-8 -3t-31 -2l-59 14l-33 -4l-57 4q-10 2 -33 0t-35 -2l-27 -6q-8 0 -23 5t-23 4t-24 -8
q-15 -7 -25 -7l-54 14q-15 0 -35 -10l-45 10q-4 0 -29 -10l-26 10q-13 0 -33 -10q-4 0 -12 2q-17 4 -37 -6l-29 4l-46 2q-52 0 -52 65v21l-4 31l10 28l-6 37l10 60q2 12 -1 36t-3 33q10 30 10 37l-6 33q0 37 2 45l6 23l-8 32l6 31l-6 51q0 26 10 101l-8 22q-4 20 -4 57
l12 35l-4 31v82l-6 33l8 41q0 4 -4 16t2 37l-6 33l6 65l-10 94l6 39q2 19 0 55t-2 50l-6 145q2 4 3 11q3 20 15 32q47 16 79 8q39 -10 120 -10l104 4q15 0 27 -6l25 6q10 0 22 -6q37 -2 213 0l31 6q20 2 66 1t60 0t32 2q16 1 36 3t39 -6q31 -10 37 -43l-6 -43
q-8 -94 -2 -141t-14 -71t-70 -13q-51 12 -59 12l-45 -4l-52 4l-28 -6q-8 0 -24 9t-23 12l-29 -15l-33 4q-53 0 -64 -2t-15 0t-10 4t-32 8t-45 -12t-15 -41q5 -24 2 -32t0 -28t3 -30l-4 -35l6 -26q0 -33 -10 -53l4 -27l-6 -51q2 -29 31 -33l36 6l68 -6l18 6h48l104 4
q8 0 39 -1t40 1q83 18 114 4q29 -16 24 -53q-2 -10 -2 -30zM332 1964l84 4h18q12 2 20 -1t11 -3l33 4q14 0 29 -3t25 -1t17 0q9 -2 25 1t18 -5q6 -6 10 -22t8 -19q3 -4 5 -14q2 -11 7 -19t13 -34q9 -26 15 -32t10 -20t8 -20t4 -22t3 -21q26 -35 26 -51l20 -74
q-5 -20 -37 -14t-44 5t-28 2t-24 0t-21 1t-20 2l-28 -11q-29 6 -41 44q-4 13 -8 19t-9 22q-6 18 -8 22t-14 14q-13 10 -19 26t-11 22t-10 16t-14 23t-13 25t-15 26q-12 14 -18 24q-5 10 -22 30t-16 37t4 17h7z" />
    <glyph glyph-name="Eacute" unicode="&#xc9;" horiz-adv-x="1150" 
d="M983 824q0 -20 -2 -27l-8 -30l10 -26q2 -4 -1 -13t-3 -18q0 -10 2 -28q9 -81 -46 -85q-11 -1 -31 0t-25 1l-37 4q-115 0 -119 2l-57 8q-6 2 -18 -4t-17 -4l-21 8q-2 2 -16 2h-16l-78 7q-29 -3 -32 -9t-3 -41v-138l6 -23q0 -8 -9 -47q-9 -38 3 -53t31 -10t69 5q49 0 67 3
t49 -2q30 -5 48 -5q17 0 127 10l53 -6l31 6l35 -4q47 6 63 -1t8 -40t-8 -37l-2 -57l8 -39q0 -6 -7 -23t0 -41t6 -35t-13 -26q-10 -8 -34 -16q-36 -12 -58 7q-22 18 -35 5q-2 -2 -6 -3t-8 -3t-31 -2l-59 14l-33 -4l-57 4q-10 2 -33 0t-35 -2l-27 -6q-8 0 -23 5t-23 4t-24 -8
q-15 -7 -25 -7l-54 14q-15 0 -35 -10l-45 10q-4 0 -29 -10l-26 10q-13 0 -33 -10q-4 0 -12 2q-17 4 -37 -6l-29 4l-46 2q-52 0 -52 65v21l-4 31l10 28l-6 37l10 60q2 12 -1 36t-3 33q10 30 10 37l-6 33q0 37 2 45l6 23l-8 32l6 31l-6 51q0 26 10 101l-8 22q-4 20 -4 57
l12 35l-4 31v82l-6 33l8 41q0 4 -4 16t2 37l-6 33l6 65l-10 94l6 39q2 19 0 55t-2 50l-6 145q2 4 3 11q3 20 15 32q47 16 79 8q39 -10 120 -10l104 4q15 0 27 -6l25 6q10 0 22 -6q37 -2 213 0l31 6q20 2 66 1t60 0t32 2q16 1 36 3t39 -6q31 -10 37 -43l-6 -43
q-8 -94 -2 -141t-14 -71t-70 -13q-51 12 -59 12l-45 -4l-52 4l-28 -6q-8 0 -24 9t-23 12l-29 -15l-33 4q-53 0 -64 -2t-15 0t-10 4t-32 8t-45 -12t-15 -41q5 -24 2 -32t0 -28t3 -30l-4 -35l6 -26q0 -33 -10 -53l4 -27l-6 -51q2 -29 31 -33l36 6l68 -6l18 6h48l104 4
q8 0 39 -1t40 1q83 18 114 4q29 -16 24 -53q-2 -10 -2 -30zM754 1968l84 -4h6q4 0 5 -12t-7 -26t-17 -25q-10 -11 -15 -21t-17 -24q-11 -14 -15 -26t-13 -24q-9 -14 -14 -23t-11 -17t-11 -22q-6 -15 -20 -27t-20 -32q-7 -20 -10 -25q-3 -4 -7 -18q-11 -37 -41 -45l-29 11
q-6 2 -19 -2t-21 -1t-24 0t-28 -2t-44 -4t-38 13l21 74q0 8 3 13t11 19t11 18t3 21t4 23t8 20q5 14 11 20t14 32t13 34t7 18t7 15q2 4 6 19t10 22q2 8 18 5q17 -3 25 -1t17 0t25 1t30 3l33 -4q4 0 11 3t16 2q10 -1 22 -1z" />
    <glyph glyph-name="Ecircumflex" unicode="&#xca;" horiz-adv-x="1150" 
d="M983 824q0 -20 -2 -27l-8 -30l10 -26q2 -4 -1 -13t-3 -18q0 -10 2 -28q9 -81 -46 -85q-11 -1 -31 0t-25 1l-37 4q-115 0 -119 2l-57 8q-6 2 -18 -4t-17 -4l-21 8q-2 2 -16 2h-16l-78 7q-29 -3 -32 -9t-3 -41v-138l6 -23q0 -8 -9 -47q-9 -38 3 -53t31 -10t69 5q49 0 67 3
t49 -2q30 -5 48 -5q17 0 127 10l53 -6l31 6l35 -4q47 6 63 -1t8 -40t-8 -37l-2 -57l8 -39q0 -6 -7 -23t0 -41t6 -35t-13 -26q-10 -8 -34 -16q-36 -12 -58 7q-22 18 -35 5q-2 -2 -6 -3t-8 -3t-31 -2l-59 14l-33 -4l-57 4q-10 2 -33 0t-35 -2l-27 -6q-8 0 -23 5t-23 4t-24 -8
q-15 -7 -25 -7l-54 14q-15 0 -35 -10l-45 10q-4 0 -29 -10l-26 10q-13 0 -33 -10q-4 0 -12 2q-17 4 -37 -6l-29 4l-46 2q-52 0 -52 65v21l-4 31l10 28l-6 37l10 60q2 12 -1 36t-3 33q10 30 10 37l-6 33q0 37 2 45l6 23l-8 32l6 31l-6 51q0 26 10 101l-8 22q-4 20 -4 57
l12 35l-4 31v82l-6 33l8 41q0 4 -4 16t2 37l-6 33l6 65l-10 94l6 39q2 19 0 55t-2 50l-6 145q2 4 3 11q3 20 15 32q47 16 79 8q39 -10 120 -10l104 4q15 0 27 -6l25 6q10 0 22 -6q37 -2 213 0l31 6q20 2 66 1t60 0t32 2q16 1 36 3t39 -6q31 -10 37 -43l-6 -43
q-8 -94 -2 -141t-14 -71t-70 -13q-51 12 -59 12l-45 -4l-52 4l-28 -6q-8 0 -24 9t-23 12l-29 -15l-33 4q-53 0 -64 -2t-15 0t-10 4t-32 8t-45 -12t-15 -41q5 -24 2 -32t0 -28t3 -30l-4 -35l6 -26q0 -33 -10 -53l4 -27l-6 -51q2 -29 31 -33l36 6l68 -6l18 6h48l104 4
q8 0 39 -1t40 1q83 18 114 4q29 -16 24 -53q-2 -10 -2 -30zM285 1769q0 17 4 23t8 20t10 20t15 33q8 26 13 34t7 18t6 14q2 3 6 19t11 22q2 8 18 5q17 -3 25 -1t17 0t25 1t23 3q8 0 12 -2q3 -2 19 -1t24 0t20 1t21 2h19q12 2 19 -1t11 -3l33 4q13 0 29 -3t26 -1t17 0
q9 -2 25 1t18 -5q6 -6 10 -21t7 -19t5 -15q2 -10 8 -18t13 -34q8 -26 14 -32q7 -7 11 -21t8 -20t4 -22t8 -28q20 -26 20 -44l21 -74q-5 -18 -37 -13t-44 4t-28 2t-24 0t-22 1t-19 2l-29 -10q-25 0 -41 44q-4 13 -7 18q-3 4 -9 22t-8 22q-3 4 -15 14t-18 26t-10 22t-17 32
q0 2 -3 -3t-8 -14t-9 -15q-5 -6 -11 -22t-18 -25t-14 -13t-7 -22t-13 -26t-13 -28q-6 -20 -18 -28q-10 -4 -15 -4l-28 10q-6 2 -20 -2t-21 -1t-23 0t-28 -2t-45 -4t-37 13l20 74q0 8 3 13t11 19t12 19q4 4 3 20z" />
    <glyph glyph-name="Edieresis" unicode="&#xcb;" horiz-adv-x="1150" 
d="M983 824q0 -20 -2 -27l-8 -30l10 -26q2 -4 -1 -13t-3 -18q0 -10 2 -28q9 -81 -46 -85q-11 -1 -31 0t-25 1l-37 4q-115 0 -119 2l-57 8q-6 2 -18 -4t-17 -4l-21 8q-2 2 -16 2h-16l-78 7q-29 -3 -32 -9t-3 -41v-138l6 -23q0 -8 -9 -47q-9 -38 3 -53t31 -10t69 5q49 0 67 3
t49 -2q30 -5 48 -5q17 0 127 10l53 -6l31 6l35 -4q47 6 63 -1t8 -40t-8 -37l-2 -57l8 -39q0 -6 -7 -23t0 -41t6 -35t-13 -26q-10 -8 -34 -16q-36 -12 -58 7q-22 18 -35 5q-2 -2 -6 -3t-8 -3t-31 -2l-59 14l-33 -4l-57 4q-10 2 -33 0t-35 -2l-27 -6q-8 0 -23 5t-23 4t-24 -8
q-15 -7 -25 -7l-54 14q-15 0 -35 -10l-45 10q-4 0 -29 -10l-26 10q-13 0 -33 -10q-4 0 -12 2q-17 4 -37 -6l-29 4l-46 2q-52 0 -52 65v21l-4 31l10 28l-6 37l10 60q2 12 -1 36t-3 33q10 30 10 37l-6 33q0 37 2 45l6 23l-8 32l6 31l-6 51q0 26 10 101l-8 22q-4 20 -4 57
l12 35l-4 31v82l-6 33l8 41q0 4 -4 16t2 37l-6 33l6 65l-10 94l6 39q2 19 0 55t-2 50l-6 145q2 4 3 11q3 20 15 32q47 16 79 8q39 -10 120 -10l104 4q15 0 27 -6l25 6q10 0 22 -6q37 -2 213 0l31 6q20 2 66 1t60 0t32 2q16 1 36 3t39 -6q31 -10 37 -43l-6 -43
q-8 -94 -2 -141t-14 -71t-70 -13q-51 12 -59 12l-45 -4l-52 4l-28 -6q-8 0 -24 9t-23 12l-29 -15l-33 4q-53 0 -64 -2t-15 0t-10 4t-32 8t-45 -12t-15 -41q5 -24 2 -32t0 -28t3 -30l-4 -35l6 -26q0 -33 -10 -53l4 -27l-6 -51q2 -29 31 -33l36 6l68 -6l18 6h48l104 4
q8 0 39 -1t40 1q83 18 114 4q29 -16 24 -53q-2 -10 -2 -30zM458 2005q26 0 27 -24v-25q8 -25 0 -88q-8 -62 -6 -80q3 -18 13 -43t2 -51t-31 -33q-4 -2 -64 -2l-155 6q-2 0 -41 -4t-39 2q-18 6 -26 26t-4 34q3 14 3 32v27q6 6 6 22l-6 31l6 39q0 4 -2 17t-4 30t-1 29t3 28
t18 28q17 13 33 11t44 -9t58 -4t84 0t64 -1t18 2zM656 2003h22l33 8l30 -8q7 -2 27 -1t28 0t21 -4q15 -3 23 -4t24 6t24 6t33 -4q26 -3 40 -13q6 -7 11 -23t10 -26t5 -20t-10 -39q-10 -28 -12 -37t6 -18t8 -16l-14 -32q0 -10 8 -27q18 -38 -6 -65q-23 -27 -79 -27l-89 6
l-70 -6q-4 0 -47 -2t-49 13q-6 14 -6 21v11q-18 63 0 133q8 13 -1 37q-10 23 -8 35q0 75 19 92q0 4 19 4z" />
    <glyph glyph-name="Igrave" unicode="&#xcc;" horiz-adv-x="604" 
d="M127 1501q0 66 31 78q0 6 22 1t34 -1q11 4 21 0q11 -4 15 -5t13 0t19 -3t24 -5t52 7q37 8 52 8q53 4 67 -20q11 -28 2 -78t-2 -164l-4 -31l2 -23q2 -24 2 -36l-4 -27q0 -4 4 -14t0 -24q-4 -15 -4 -19l2 -105l-8 -36q-4 -8 6 -29l-6 -49l6 -39l-10 -41q-3 -8 1 -20
q3 -11 3 -17l-4 -119l6 -34l-6 -40l4 -45l-4 -106l4 -35q-8 -25 -6 -40q2 -14 12 -44q0 -8 -6 -23t-5 -23t5 -20l6 -18t1 -69t-1 -69t6 -52q6 -47 -28 -62q-31 -8 -47 -8l-97 8q-18 3 -53 -4q-34 -8 -70 -7t-50 25t-10 74q5 52 6 101t3 67l8 60l-10 34q0 10 5 30t3 28t-6 19
t-4 18l10 51q0 6 -6 16q-9 15 -1 28q9 13 9 25l-8 35q8 16 8 33l-8 29l6 108l-10 47l8 41l-4 33l8 53l-8 35q10 30 10 42t-10 52l6 37l-6 31l6 63q-10 60 -10 93l8 30l-4 27l6 31q0 12 -9 37t-6 38t3 31z" />
    <glyph glyph-name="Iacute" unicode="&#xcd;" horiz-adv-x="653" 
d="M127 1501q0 66 31 78q0 6 22 1t34 -1q11 4 21 0q11 -4 15 -5t13 0t19 -3t24 -5t52 7q37 8 52 8q53 4 67 -20q11 -28 2 -78t-2 -164l-4 -31l2 -23q2 -24 2 -36l-4 -27q0 -4 4 -14t0 -24q-4 -15 -4 -19l2 -105l-8 -36q-4 -8 6 -29l-6 -49l6 -39l-10 -41q-3 -8 1 -20
q3 -11 3 -17l-4 -119l6 -34l-6 -40l4 -45l-4 -106l4 -35q-8 -25 -6 -40q2 -14 12 -44q0 -8 -6 -23t-5 -23t5 -20l6 -18t1 -69t-1 -69t6 -52q6 -47 -28 -62q-31 -8 -47 -8l-97 8q-18 3 -53 -4q-34 -8 -70 -7t-50 25t-10 74q5 52 6 101t3 67l8 60l-10 34q0 10 5 30t3 28t-6 19
t-4 18l10 51q0 6 -6 16q-9 15 -1 28q9 13 9 25l-8 35q8 16 8 33l-8 29l6 108l-10 47l8 41l-4 33l8 53l-8 35q10 30 10 42t-10 52l6 37l-6 31l6 63q-10 60 -10 93l8 30l-4 27l6 31q0 12 -9 37t-6 38t3 31zM485 2011l84 -4h6q4 0 6 -17t-28 -48q-6 -8 -11 -18q-6 -10 -18 -25
q-12 -13 -15 -25t-12 -26l-15 -22l-10 -16t-11 -23q-7 -15 -19 -25t-14 -15q-2 -3 -8 -21t-9 -23t-7 -19q-13 -39 -42 -44l-28 11q-6 2 -20 -2t-21 -1t-23 0t-28 -2t-45 -4t-37 13l20 74q0 12 14 33q14 22 15 38q0 16 4 22t8 21t10 21q7 6 15 32t13 33q5 9 7 19t6 14
q2 4 7 19q4 15 10 22q2 8 18 5q17 -3 25 -1t17 0t25 1t29 3l33 -4q2 0 10 3t18 2t21 -1z" />
    <glyph glyph-name="Icircumflex" unicode="&#xce;" horiz-adv-x="798" 
d="M571 124q-1 -6 5 -37q11 -62 -25 -77q-31 -8 -47 -8l-98 8q-18 2 -56 -5t-72 -6q-66 2 -56 97q9 95 9 137q-1 41 5 61t4 32l-11 34l9 62l-11 33l11 51q0 6 -8 19t2 27q10 15 10 23l-9 35q1 4 5 16t2 17l-9 29q1 28 5 59q4 32 2 49l-11 47l9 41l-5 33l9 53l-7 35l9 39
q4 15 -11 55q0 9 7 37q0 11 -7 31q1 11 5 31t2 32l-11 93q0 10 6 21t2 22q-4 10 -4 14l7 31q0 9 -9 36t-7 39q3 13 3 54t31 55q0 6 22 1t33 -1q9 4 15 3t12 -4t10 -4t13 0t16 1q16 -16 66 -5q51 11 65 11q53 4 67 -20q12 -30 2 -80q-9 -51 -2 -162l-4 -31l2 -23q2 -24 2 -36
l-4 -27l9 -27l-9 -30l2 -105l-8 -34l6 -31l-6 -49l6 -39l-10 -42l4 -36l-4 -119l6 -33l-4 -41q-2 -8 0 -23t2 -22l-4 -106l4 -35l-4 -49l10 -35l-10 -47q0 -6 2 -12q2 -7 4 -15t4 -12t1 -67t-1 -69zM81 1712q1 4 1 8t3 11q3 6 4 16t12 28q11 17 13 21t3 20q0 16 5 23t8 21
t10 20t15 32q7 26 12 34t7 18t6 14t7 20t10 21q2 8 18 5q17 -3 25 -1t17 0q9 -3 25 1t24 4q9 0 12 -2t28 -2t45 2t30 2l30 -5q12 0 32 5q13 0 29 -4t26 -1q10 2 18 0q10 -2 26 1t16 -5q8 -6 11 -21q3 -16 6 -20t5 -14t9 -18q6 -8 13 -34t14 -32t10 -21q4 -16 9 -21
q5 -6 5 -22t2 -20t5 -9t5 -9t8 -14t6 -18q1 -9 4 -13q3 -5 5 -15q3 -17 9 -28t2 -24t-36 -8t-44 4t-28 2t-24 0t-20 1t-21 2l-28 -10q-3 0 -17 6t-21 29q-8 22 -11 27t-9 25t-20 33q-15 13 -21 27t-10 21q-4 6 -10 19t-7 14q-13 -23 -18 -31q-6 -9 -11 -23q-6 -14 -10 -18
t-9 -8t-9 -8t-6 -7q-2 -2 -7 -20q-5 -17 -13 -25t-13 -28q-6 -20 -18 -29q-10 -4 -14 -4l-29 10q-6 2 -20 -2t-21 -1q-9 3 -23 0t-26 -2t-46 -4t-38 13q0 12 5 21q5 8 6 12z" />
    <glyph glyph-name="Idieresis" unicode="&#xcf;" horiz-adv-x="993" 
d="M670 124q0 -6 4 -37q4 -32 0 -50q-10 -44 -96 -33q-81 10 -125 2q-45 -8 -77 -7t-46 25t-9 74q5 52 6 101t3 67l8 60l-10 34l8 62q-10 20 -10 33l10 51q0 6 -6 16t-5 16t8 19q7 12 5 18l-6 35l6 33l-8 29l6 108l-10 47l8 41l-4 33l8 53l-8 35q10 30 10 42t-10 52l6 37
q0 10 -6 31l6 63q-10 60 -10 93l8 30l-4 27l6 31q0 12 -9 37t-6 38t3 55t30 54q0 6 22 1t34 -1q10 4 16 2l20 -6q4 -2 14 -1t19 -3q11 -4 25 -5t51 7t71 10t45 -20q15 -26 5 -78q-10 -51 -2 -166l-4 -31l2 -23q2 -24 2 -36l-4 -27q0 -4 4 -14t0 -24q-4 -15 -4 -19l2 -105
l-8 -34q0 -19 6 -31l-6 -49l6 -39q0 -7 -5 -21t-7 -19t0 -9q1 -4 1 -8l5 -21l-5 -119l7 -33q0 -25 -7 -41l5 -45l-5 -106l5 -35q-9 -27 -5 -49l11 -35l-11 -47q1 -7 7 -25t5 -81t-1 -69zM72 1755v27q6 6 6 22l-6 31l6 39q0 4 -2 17t-4 30t-1 29t3 27t14 28q20 14 36 12
t45 -9q27 -7 57 -4t84 0t62 -1t12 2q36 0 36 -26v-23q8 -25 0 -88q-8 -62 -6 -80t12 -43t2 -51t-31 -33q-4 -2 -63 -2l-156 6q-2 0 -41 -4t-39 2q-18 6 -25 26t-4 34t3 32zM592 2003h20l33 8l31 -8q8 -2 29 -1t41 -3t28 -4l51 10q49 0 63 -11q15 -11 23 -40l11 -33
q0 -12 -10 -40t-13 -37q-2 -9 6 -18t8 -16l-14 -32q0 -10 8 -27t6 -34q-7 -52 -71 -58q-20 -2 -51 2t-58 4l-69 -6q-4 0 -48 -2q-55 -1 -55 33v12q-18 63 0 133q8 13 -1 37q-9 23 -7 35q0 76 18 92q0 4 21 4z" />
    <glyph glyph-name="Ograve" unicode="&#xd2;" 
d="M1060 1616q8 0 16 -3q37 -16 124 -35q88 -19 152 -71q29 -24 44 -26q15 -3 23 -14q11 -15 29 -21t28 -21q11 -16 15 -21t18 -13q20 -11 26 -26t48 -67q43 -53 86 -176q2 -6 10 -23q7 -17 9 -25t2 -23q0 -13 2 -21t9 -24q9 -21 9 -30v-11q14 -53 16 -66l-2 -55l7 -72
l-7 -31q-2 -11 2 -33t3 -34l-13 -35q-2 -9 -1 -25t0 -22t-3 -14t-4 -10q-2 -3 -3 -6t-5 -11t-4 -37q-11 -39 -23 -53t-14 -19q-63 -137 -133 -215q-18 -19 -55 -49t-57 -50t-34 -28q-12 -10 -41 -22t-51 -29t-39 -21q-18 -6 -41 -12q-22 -6 -48 -11t-36 -8t-22 -10t-19 -10
q-16 0 -34 3q-65 -13 -70 -13l-23 4q-40 -10 -46 -10t-10 1q-5 1 -8 2q-18 6 -28 4t-14 -3q-4 0 -29 10h-33q-11 6 -22 11l-21 -6l-30 10l-21 -2l-32 16q-6 2 -33 2t-44 16t-25 18q-8 3 -17 3q-22 0 -53 27q-32 27 -58 37q-27 10 -50 36q-24 27 -30 33t-34 29t-36 33t-11 15
t-9 16t-34 50t-39 72q-15 45 -24 55q-9 11 -17 50t-15 56q-8 18 -10 26t-1 24t-1 25l-12 32q-2 5 1 21t3 25l-13 90l6 79l-4 39q0 11 4 21t7 15q2 5 5 11t3 13q2 6 0 33t19 79q20 51 28 61t32 62t31 64q8 12 28 31t25 36q5 16 15 30t66 52q4 4 19 21t38 25q22 7 30 13t41 32
q32 27 76 43q55 19 112 32q57 12 73 22t35 6q18 -5 24 -5l41 16q16 2 51 -5t47 -5t20 7q7 5 15 8t15 -7t15 -26t22 1q13 17 21 17zM848 1300q-16 -2 -53 -17t-52 -15q-16 0 -29 -12t-41 -32q-29 -18 -47 -34t-37 -26q-42 -23 -67 -97q-2 -2 -3 -12q-2 -20 -23 -41
q-16 -37 -29 -103q-6 -10 -4 -57t2 -57l-10 -49q0 -9 10 -29v-19q0 -19 13 -54q13 -34 13 -44q1 -10 3 -18t27 -52q24 -44 35 -64t27 -30q17 -10 25 -16t58 -46t92 -59q6 0 15 1t22 -6q12 -7 17 -9t15 -1t18 -2t29 -11l37 10l52 -6q78 10 93 15q15 6 27 14q11 8 17 11t16 5
t17 6t21 17t20 17q4 4 18 10q14 5 20 9q74 63 127 176q1 6 13 19t12 31v34q0 2 8 80l10 33l-6 43q-2 35 -8 65t-5 44q1 17 -7 30q-8 12 -18 53q-9 42 -17 58q-4 3 -14 11q-9 8 -11 15q-10 49 -71 91q-16 10 -34 26q-78 68 -124 68q-17 0 -26 9t-13 10t-38 1t-52 6
q-19 6 -29 5l-27 -9zM651 2034l84 4h19q12 2 20 -1t10 -3l33 4q13 0 29 -3t25 -1t17 0t25 1q16 3 19 -5q6 -6 10 -22t7 -19q3 -5 5 -15t8 -18t13 -34q8 -26 14 -32t10 -20q5 -14 9 -20t4 -23q0 -16 14 -37t14 -35l21 -74q-5 -18 -37 -13t-44 4t-28 2t-24 0t-22 1t-19 2
l-29 -10q-27 0 -41 44q-4 13 -7 19t-9 22q-6 18 -8 22t-15 14q-12 10 -18 26t-11 22q-5 7 -11 16q-5 8 -14 22t-12 26q-4 12 -16 25q-12 15 -17 25t-23 31t-16 36q1 17 4 17h7z" />
    <glyph glyph-name="Oacute" unicode="&#xd3;" 
d="M813 1612q6 0 19 8t25 9q13 1 48 -6t47 -5t20 7q7 5 15 8t15 -7t15 -26t22 1q13 17 21 17t16 -3q31 -13 122 -34t154 -72q29 -24 36 -25t15 -3t16 -12q11 -15 29 -21t28 -21q11 -16 15 -21t18 -13q20 -11 26 -26t48 -67q43 -53 86 -176q2 -6 10 -23q7 -17 9 -25t2 -23
q0 -14 2 -21l18 -54v-11q14 -53 16 -66l-2 -55l7 -72l-7 -31q-2 -11 2 -33t3 -34l-13 -35q-2 -9 -1 -25q2 -30 -4 -39q-5 -10 -6 -13t-5 -11t-4 -37q-11 -39 -23 -53t-14 -19q-63 -137 -133 -215q-18 -19 -55 -49t-57 -50q-34 -32 -68 -46q-33 -14 -47 -24q-13 -9 -18 -12
t-14 -10t-26 -11q-17 -5 -61 -15t-56 -13q-10 -3 -22 -10t-19 -9l-34 2q-65 -13 -70 -13l-23 4q-40 -10 -47 -10l-35 6q-4 2 -12 0t-12 -2t-29 10h-33q-11 6 -22 11l-21 -6l-30 10l-21 -2l-32 16q-6 2 -33 2t-44 16q-24 22 -43 21q-19 0 -57 30t-63 39q-26 10 -41 31t-25 30
t-38 32t-36 33t-11 15t-9 16t-34 49t-39 72t-13 40t-11 16t-17 50q-8 39 -15 56q-8 18 -10 26t-1 24t-1 25l-12 33q-2 6 1 21t3 24l-13 90l6 80l-4 38q2 11 10 31q12 31 9 59q-2 28 19 81q20 53 28 62t32 62q24 52 31 64q8 12 28 32t25 35t10 23t15 16t21 17t25 20
q14 10 29 27t38 25q22 7 30 13t41 32q32 27 76 43q55 19 110 31t74 23t36 6q18 -5 24 -5zM848 1303q-16 -1 -53 -17t-52 -16q-16 0 -29 -12t-41 -32q-29 -18 -47 -34t-37 -26q-42 -23 -67 -97q-2 -2 -3 -12q-2 -20 -23 -41q-16 -37 -29 -103q-6 -10 -4 -57t2 -57l-10 -49
q0 -9 10 -29v-19q0 -19 13 -54q13 -34 13 -44q1 -10 3 -18t27 -52q24 -44 30 -56q20 -39 72 -64q94 -76 135 -95q6 0 14 2t22 -6q13 -8 18 -10t15 -1t18 -2t29 -11l37 10l52 -6q78 10 93 15q15 6 27 14q11 8 17 11t16 5t17 6t21 18t20 15q4 6 18 11t20 9q74 63 127 176
q1 6 13 19t12 31v34q0 2 8 80l10 33l-6 43q-2 35 -8 65t-5 44q1 17 -7 30q-8 12 -18 53q-9 42 -17 58q-4 4 -14 12t-12 17q-1 10 -18 37t-39 42t-28 19t-22 18q-75 66 -121 66q-13 0 -23 9t-15 10t-39 1t-52 6q-19 6 -29 5l-27 -9q-4 0 -34 5zM1085 2046l84 -4h7q4 0 5 -16
t-16 -37q-18 -21 -23 -31q-6 -10 -18 -24t-15 -26q-3 -10 -12 -24l-15 -23q-5 -9 -10 -17t-11 -22q-7 -16 -19 -26t-14 -14t-8 -22t-9 -22q-3 -5 -9 -27t-25 -32q-10 -4 -14 -4t-18 7t-29 2t-23 -2q-7 3 -23 0t-28 -2t-45 -4t-37 14l20 73q0 16 26 51q3 4 3 20t4 24
q4 6 8 20t10 20t15 32q8 26 13 34t7 18t5 14t8 20q4 15 10 22q2 8 18 5q17 -3 25 -1t17 0t25 1t30 3l32 -4q4 0 12 3t16 2q9 -1 21 -1z" />
    <glyph glyph-name="Ocircumflex" unicode="&#xd4;" 
d="M1060 1620q8 0 16 -3q31 -13 122 -34t154 -72q29 -24 44 -26q15 -3 23 -14q11 -15 29 -21t28 -21q11 -16 15 -21t18 -13q20 -11 26 -26t48 -67q43 -53 86 -176q2 -6 10 -23q7 -17 9 -25t2 -23q0 -13 2 -21t9 -24q9 -21 9 -30v-11q14 -53 16 -66l-2 -55l7 -72l-7 -31
q-2 -11 2 -33t3 -34l-13 -35q-2 -9 -1 -25q2 -30 -4 -39q-5 -10 -6 -13t-5 -11t-4 -37q-11 -39 -23 -53t-14 -19q-63 -137 -133 -215q-18 -19 -55 -49t-57 -50q-34 -32 -68 -46q-33 -14 -58 -33q-25 -18 -45 -23q-20 -6 -125 -30q-4 -2 -16 -9t-19 -9l-34 2q-65 -13 -70 -13
l-23 4q-40 -10 -47 -10l-35 6q-4 2 -12 0t-15 -2t-26 11h-33l-22 10l-21 -6l-30 10l-21 -2l-32 16q-6 2 -33 2t-44 16q-24 22 -43 21q-19 0 -56 29t-59 37t-45 35t-55 50t-48 50q-11 11 -17 24t-33 51t-39 71q-12 34 -14 40t-11 17t-16 43q-6 31 -8 40t-9 24q-7 16 -9 24
t-1 24t-1 25l-12 33q-2 6 1 21t3 24l-13 90l6 80l-4 39q2 12 12 37t7 53q-2 28 19 80q20 53 28 62t32 62q24 52 31 64q8 12 28 32t25 36t16 30t65 51q4 4 19 21t38 25q22 8 30 13t41 32q32 27 76 43q55 19 110 31t74 23t36 6q18 -5 24 -5l41 16q16 2 51 -5t47 -5t20 7
q7 5 15 8t15 -7t15 -26t22 1q13 17 21 17zM848 1305q-16 -1 -53 -17t-52 -16q-16 0 -29 -12t-41 -32q-29 -18 -47 -34t-37 -26q-42 -23 -67 -97q-2 -2 -3 -12q-2 -20 -23 -41q-16 -37 -29 -103q-6 -10 -4 -57t2 -57l-10 -49q0 -9 10 -29v-18q0 -19 13 -53q13 -35 13 -45
q2 -25 29 -72t38 -66q10 -19 26 -28t81 -58t93 -61q6 0 16 1t21 -6q12 -8 17 -10t15 -1t18 -2t29 -11l37 10l52 -6q78 10 93 15q15 6 27 14q11 8 17 11t16 5t17 6t21 18t20 15q4 6 18 11t20 9q74 63 127 177q1 6 13 18t12 31v35q0 2 8 79l10 33l-6 43q-2 35 -8 65t-5 44
q1 17 -7 30t-18 54q-9 41 -17 57q-4 4 -14 12t-12 17q-1 10 -17 34t-29 36q-14 12 -24 18l-15 10t-22 18q-75 66 -121 66q-13 0 -23 9t-15 10t-39 1t-52 6q-19 6 -29 5l-27 -9zM637 1837q0 17 4 23t8 20t10 20t15 32q8 26 13 34t7 18t6 15q2 4 7 19q4 15 10 22q2 8 18 5
q17 -3 25 -1t17 0t25 1t23 3q9 0 13 -2t19 -1t23 0t20 1t22 2h18q12 2 19 -1t12 -3l33 4q14 0 29 -3t25 -1t17 0q9 -2 25 1t18 -5q6 -6 10 -22t8 -19q4 -4 5 -14q2 -11 7 -19t13 -34q9 -26 15 -32t10 -20t8 -20t4 -22t3 -21t11 -19t12 -19t3 -14l20 -73q-5 -19 -37 -14
t-44 4t-28 2q-16 2 -24 0t-21 2t-20 2l-29 -11q-26 0 -40 44q-4 13 -8 19t-9 22q-6 18 -8 22t-14 14q-13 10 -19 26t-10 22t-8 14l-6 15t-6 0t-8 -14q-5 -9 -9 -15t-10 -22q-7 -16 -19 -26t-14 -13t-7 -21t-12 -26t-13 -28t-19 -29q-10 -4 -14 -4t-18 7t-29 2q-15 -4 -23 -1
q-7 3 -23 -1t-28 -2q-12 1 -45 -4t-37 14l20 73q0 12 14 34t15 38z" />
    <glyph glyph-name="Odieresis" unicode="&#xd6;" 
d="M813 1630q6 0 20 8q24 14 74 3t61 -1q11 9 19 12t15 -7q6 -9 12 -21t13 -11t16 12t17 11t16 -3q7 -3 20 -8t84 -21t137 -54q21 -9 63 -45q4 -2 10 -3t10 -2q11 -2 20 -14t30 -20t41 -43q4 -4 21 -14t23 -23q5 -14 8 -18t43 -53t83 -172q1 -6 11 -27t10 -42t10 -45t10 -32
v-12q14 -53 16 -65l-2 -56l7 -71l-7 -31q-2 -10 2 -33t3 -35l-13 -35q-2 -8 -1 -24q1 -17 0 -23t-2 -10t-2 -7t-3 -6t-3 -6t-5 -12t-4 -36q-12 -41 -23 -54q-12 -14 -14 -18q-63 -137 -133 -215q-18 -20 -55 -50t-64 -56t-62 -41t-39 -18l-26 -17q-26 -18 -85 -32
q-61 -12 -71 -16t-22 -11t-19 -9l-34 2q-60 -12 -70 -12l-23 4q-40 -10 -47 -10l-35 6q-4 2 -12 0t-12 -2t-29 10h-33l-22 10l-21 -6l-30 10l-21 -2q-6 2 -18 11t-37 8q-23 0 -33 3t-24 15t-22 15t-17 3q-9 -1 -21 5t-38 26t-32 24t-26 12q-21 7 -46 36q-25 30 -63 61
q-38 30 -57 68q-4 6 -32 45t-39 72q-15 45 -24 56t-16 42q-9 47 -19 68t-8 41q1 20 -1 28l-12 33q-2 6 1 21t3 24l-13 90l6 80l-4 39q2 12 12 37t7 53q-2 28 19 80q20 53 28 62q8 8 32 62t31 65q8 11 28 31t27 44t43 49q35 25 54 44q18 20 40 27q21 7 29 12t47 39
q42 37 187 69q52 12 69 22q17 9 34 5q18 -5 24 -5zM744 1288q-12 0 -18 -3q-5 -3 -15 -12t-38 -27q-29 -18 -47 -36q-18 -16 -37 -26q-41 -22 -67 -97q-2 -2 -3 -12q-1 -14 -23 -41q-16 -37 -29 -102q-6 -10 -4 -58t2 -57l-10 -49q0 -4 10 -29v-18q0 -21 13 -54t13 -44
q1 -11 2 -15t19 -38t30 -57q12 -24 22 -36q9 -12 32 -27q23 -14 72 -54t90 -58q6 0 15 1t22 -6q12 -7 17 -9t15 -1t26 -5q15 -7 21 -9l37 10l52 -6q78 9 93 15t27 14q11 8 17 11t16 5t14 7q10 4 24 17t20 15q4 5 18 11t20 10q74 63 127 176q1 6 13 18t12 31v35q0 2 8 80
l10 33l-6 43q-2 36 -8 66t-5 43q1 18 -7 30q-9 12 -19 59q-11 47 -26 59t-16 22q-1 9 -17 33q-22 34 -46 50q-24 15 -42 31t-26 22q-8 5 -36 25q-27 20 -49 20t-26 2q-3 2 -11 10t-13 8q-5 1 -39 1t-52 6q-19 6 -29 4l-27 -8l-34 4q-18 -2 -55 -18q-37 -15 -49 -15z
M496 1822v27q6 6 6 23l-6 31l6 39q0 4 -4 33t-3 41q1 13 2 27t15 30q20 14 36 12t45 -9q27 -7 57 -4t84 0t64 -1t19 2q8 0 17 -7q10 -3 10 -17v-26q8 -25 0 -88t-6 -81t12 -42t2 -50t-31 -33q-4 -2 -63 -3l-156 7q-2 0 -41 -4t-39 2q-18 5 -25 25t-4 34t3 32zM985 1757v12
q-12 43 -4 119q2 6 6 16t3 16t-8 24t-5 30q0 78 18 92q0 5 41 5l33 8l31 -8q8 -2 30 -1t41 -3q19 -5 27 -5l51 11q44 0 70 -17q6 -6 11 -22t12 -33q7 -16 -5 -48t-14 -41q-2 -8 6 -18t8 -16l-14 -33q0 -11 8 -27q18 -37 -4 -62q-23 -26 -81 -30l-89 7l-70 -7q-4 0 -48 -2
q-54 -2 -54 33z" />
    <glyph glyph-name="Oslash" unicode="&#xd8;" horiz-adv-x="1949" 
d="M894 1630q8 0 24 11q17 11 67 1q50 -11 62 -2t22 12t15 -7q5 -11 9 -22t12 -10q9 1 18 12t17 11q9 0 32 -10q102 -45 231 -53q11 0 15 16t26 34t46 60q24 43 40 58q12 8 42 44t50 48t32 11q16 -1 23 -16q6 -15 20 -19q13 -3 17 -7q2 -4 5 -14t12 -15q12 -6 16 -24t46 -36
q42 -17 52 -23q43 -31 29 -67t-51 -70q-37 -35 -55 -54t-34 -34q-14 -15 -26 -37t-20 -31l-20 -20q-11 -11 -25 -21t-11 -19q2 -9 17 -26q16 -19 22 -29t13 -33t34 -58t30 -45t8 -20q16 -30 14 -54q-2 -23 20 -66v-10q0 -8 7 -36t9 -37t0 -32t-2 -27l6 -71l-6 -31l4 -68
q0 -6 -7 -18t-6 -36q2 -33 -8 -51q-9 -19 -9 -49t-18 -51q-18 -22 -21 -26q-63 -137 -133 -215q-16 -20 -57 -53t-65 -56q-23 -23 -58 -38q-44 -20 -68 -36q-24 -17 -83 -31q-61 -12 -71 -16t-22 -11t-19 -9l-35 2q-60 -12 -69 -12l-23 4q-40 -10 -47 -10l-35 6q-4 2 -13 0
t-13 -2t-25 10q-35 0 -43 4t-12 5t-11 -2t-12 -3l-28 10l-23 -2q-6 2 -16 9t-16 9t-27 1q-21 0 -29 3t-19 13t-21 20q-10 11 -16 13q-5 2 -22 18t-41 10q-23 -13 -34 -34t-17 -29t-23 -30t-23 -31t-20 -19l-18 -15t-35 -46t-50 -60q-22 -18 -52 -14t-59 43t-40 49t-45 26
t-49 27q-34 31 -20 68t94 119q8 10 31 23t32 23t23 29l18 27t23 22q18 16 25 45q7 28 0 35q-8 7 -16 12t-9 10q-2 5 -21 26q-18 20 -20 24q-35 96 -39 110t-13 35q-9 20 -8 40t-1 28l-13 33q-2 7 2 22q5 15 3 23l-13 90l6 80l-4 39q2 15 12 41q9 26 7 51t19 77q20 52 28 62
q8 9 32 63t31 65t23 27l22 21q4 7 8 21q8 24 51 58t54 47q12 14 34 21q21 7 29 12t41 34t67 40q33 11 55 17q22 7 39 11t42 9t34 8q8 3 20 9t19 8t22 -2t23 -4zM824 1288q-12 0 -17 -3q-6 -3 -16 -12t-38 -27q-29 -18 -47 -36q-18 -16 -37 -26q-41 -22 -67 -97q-2 -2 -3 -12
q-2 -19 -24 -41q-16 -37 -28 -102q-6 -10 -3 -58t1 -57l-10 -49l10 -29q2 -6 1 -22t10 -45t13 -37l-4 -35q-2 -10 4 -8q11 4 17 26t12 28t22 16t23 17q6 7 14 22q7 15 13 23t20 17q14 11 20 17t11 19q10 21 64 77t77 93q22 37 47 57q25 21 38 41t44 47t48 56q17 30 59 58
q49 55 63 88q0 2 -14 1t-23 8q-10 10 -14 11q-6 1 -40 1t-50 7t-31 3l-27 -8l-34 4q-39 -7 -66 -20q-26 -13 -38 -13zM1433 979q-11 19 -9 41q7 55 -23 63q-15 0 -25 -19q-10 -20 -21 -32t-46 -58t-58 -67t-34 -42q-11 -22 -42 -45q-30 -23 -61 -70q-102 -102 -120 -130
l-22 -36l-10 -16q-6 -8 -22 -21t-22 -21t-52 -59t-57 -63t-21 -16t-14 -2q-4 1 -6 -6t-2 -30q0 -12 33 -12h67q4 -2 12 -7t14 -7q5 -2 15 -1t26 -5q15 -7 21 -9l37 10l51 -6q80 9 96 15t26 14q18 13 32 16t38 24q23 21 38 26q14 6 20 10q74 63 127 176q2 6 16 20t11 36
q-2 22 -2 26t8 82l10 33l-6 43q-2 34 -7 66t-5 46t-11 33z" />
    <glyph glyph-name="Ugrave" unicode="&#xd9;" horiz-adv-x="1558" 
d="M1427 1583q19 -26 13 -77q-8 -68 -8 -226v-179l2 -69l-4 -55q4 -2 2 -137q-2 -136 -2 -184t-2 -84t4 -53q5 -18 -6 -36q-10 -19 -8 -43t-13 -53q-34 -113 -45 -125q-10 -12 -26 -27t-18 -31t-9 -24t-23 -18t-20 -17q-6 -4 -16 -18q-10 -13 -22 -23q-11 -10 -54 -30
t-54 -30q-11 -9 -19 -9h-16q-99 -35 -114 -35h-21q-16 -8 -37 -14h-106q-141 0 -169 4t-58 14q-31 10 -64 10t-59 16q-27 16 -47 21q-21 6 -39 16t-45 39t-32 35t-22 14t-29 33q-11 25 -31 43t-25 29q-5 12 -10 26t-9 30t-7 24q-3 10 -11 24q-8 16 -12 28q-5 13 -4 33
q1 19 0 25q-2 11 -7 31q-6 20 -6 29l8 106l-10 32l6 26l-4 35q12 36 12 49l-10 47l6 41q2 14 0 88l-4 30l4 37l-10 41l6 43q2 27 2 76v76l-8 106l10 80q0 46 -7 60t-7 18l4 33l-2 22q0 17 18 35q20 10 60 7q41 -3 43 -5l34 9l36 -11l32 6q6 0 14 -1l16 -2t15 0q6 1 21 4
t26 4q47 -6 55 -48q2 -14 -10 -57q-4 -84 -4 -92l6 -39l-6 -33v-229l10 -57q0 -5 -10 -25l4 -53q0 -48 -4 -72l-6 -25q6 -24 6 -57l-6 -27l6 -24l-6 -21v-63l6 -45l-6 -60q5 -48 17 -65t11 -30t1 -18t6 -10t10 -12t22 -36q17 -28 26 -34q10 -6 24 -14q22 -10 32 -19
q40 -36 197 -28q14 0 29 -6q27 1 49 15q31 20 48 22t34 22q16 19 21 25q4 5 16 19t14 17t14 15t16 20t3 17q0 9 2 15t10 25t10 27t4 76l4 25q-10 40 -10 49l6 51l-6 28l10 32q0 43 -4 153l-6 37q-2 7 3 19t5 20l-8 46l8 40l-8 31q0 16 5 51q5 34 -1 152t-6 147l-6 23
q-6 33 10 59q4 12 21 15t23 8q5 4 34 -1t37 -4l29 7l47 -11q15 0 30 11l33 -7q4 -1 9 1q6 2 10 3l8 2t10 -1l12 -4q8 -5 25 -5q18 0 22 -12zM506 1964l84 4h18q12 2 20 -1t11 -3l33 4q14 0 30 -3t24 -1q9 2 17 0q9 -2 25 1t18 -5q6 -6 10 -22t8 -19q3 -4 5 -14q2 -11 7 -19
t13 -34q9 -26 15 -32t10 -20t8 -20t4 -22t3 -21q26 -35 26 -51l20 -74q-5 -20 -37 -14t-44 5t-28 2t-24 0t-21 1t-20 2l-28 -11q-29 6 -41 44q-4 13 -7 19t-11 26q-8 21 -20 32q-14 10 -20 26t-11 22t-10 16t-14 23t-13 25t-15 26q-12 14 -17 24t-23 29t-16 37q1 18 4 18h7z
" />
    <glyph glyph-name="Uacute" unicode="&#xda;" horiz-adv-x="1558" 
d="M1427 1583q19 -26 13 -77q-8 -68 -8 -226v-179l2 -69l-4 -55q4 -2 2 -137q-2 -136 -2 -184t-2 -84t4 -53q5 -18 -6 -36q-10 -19 -8 -43t-13 -53q-34 -113 -45 -125q-10 -12 -26 -27t-18 -31t-9 -24t-23 -18t-20 -17q-6 -4 -16 -18q-10 -13 -22 -23q-11 -10 -54 -30
t-54 -30q-11 -9 -19 -9h-16q-99 -35 -114 -35h-21q-16 -8 -37 -14h-106q-141 0 -169 4t-58 14q-31 10 -64 10t-59 16q-27 16 -47 21q-21 6 -39 16t-45 39t-32 35t-22 14t-29 33q-11 25 -31 43t-25 29q-5 12 -10 26t-9 30t-7 24q-3 10 -11 24q-8 16 -12 28q-5 13 -4 33
q1 19 0 25q-2 11 -7 31q-6 20 -6 29l8 106l-10 32l6 26l-4 35q12 36 12 49l-10 47l6 41q2 14 0 88l-4 30l4 37l-10 41l6 43q2 27 2 76v76l-8 106l10 80q0 46 -7 60t-7 18l4 33l-2 22q0 17 18 35q20 10 60 7q41 -3 43 -5l34 9l36 -11l32 6q6 0 14 -1l16 -2t15 0q6 1 21 4
t26 4q47 -6 55 -48q2 -14 -10 -57q-4 -84 -4 -92l6 -39l-6 -33v-229l10 -57q0 -5 -10 -25l4 -53q0 -48 -4 -72l-6 -25q6 -24 6 -57l-6 -27l6 -24l-6 -21v-63l6 -45l-6 -60q5 -48 17 -65t11 -30t1 -18t6 -10t10 -12t22 -36q17 -28 26 -34q10 -6 24 -14q22 -10 32 -19
q40 -36 197 -28q14 0 29 -6q27 1 49 15q31 20 48 22t34 22q16 19 21 25q4 5 16 19t14 17t14 15t16 20t3 17q0 9 2 15t10 25t10 27t4 76l4 25q-10 40 -10 49l6 51l-6 28l10 32q0 43 -4 153l-6 37q-2 7 3 19t5 20l-8 46l8 40l-8 31q0 16 5 51q5 34 -1 152t-6 147l-6 23
q-6 33 10 59q4 12 21 15t23 8q5 4 34 -1t37 -4l29 7l47 -11q15 0 30 11l33 -7q4 -1 9 1q6 2 10 3l8 2t10 -1l12 -4q8 -5 25 -5q18 0 22 -12zM936 2003l84 -4h6q4 0 5 -12t-6 -25t-17 -25t-16 -22q-6 -11 -17 -25t-15 -25t-13 -25t-14 -22l-10 -16t-11 -24t-20 -26
q-13 -11 -20 -31q-8 -21 -11 -26t-9 -27t-25 -32q-10 -4 -14 -4l-29 10q-6 2 -19 -2t-21 -1t-24 0t-28 -2t-44 -4t-38 14l21 73q0 18 25 51q3 5 3 21q1 16 5 22t8 21q4 14 10 20t14 32t14 34t7 18q2 11 5 15t7 19t10 22q3 8 19 5t24 -1t18 0t24 1q15 3 30 3l33 -4q2 0 10 3
q7 3 17 2t22 -1z" />
    <glyph glyph-name="Ucircumflex" unicode="&#xdb;" horiz-adv-x="1558" 
d="M1427 1583q19 -26 13 -77q-8 -68 -8 -226v-179l2 -69l-4 -55q4 -2 2 -137q-2 -136 -2 -184t-2 -84t4 -53q5 -18 -6 -36q-10 -19 -8 -43t-13 -53q-34 -113 -45 -125q-10 -12 -26 -27t-18 -31t-9 -24t-23 -18t-20 -17q-6 -4 -16 -18q-10 -13 -22 -23q-11 -10 -54 -30
t-54 -30q-11 -9 -19 -9h-16q-99 -35 -114 -35h-21q-16 -8 -37 -14h-106q-141 0 -169 4t-58 14q-31 10 -64 10t-59 16q-27 16 -47 21q-21 6 -39 16t-45 39t-32 35t-22 14t-29 33q-11 25 -31 43t-25 29q-5 12 -10 26t-9 30t-7 24q-3 10 -11 24q-8 16 -12 28q-5 13 -4 33
q1 19 0 25q-2 11 -7 31q-6 20 -6 29l8 106l-10 32l6 26l-4 35q12 36 12 49l-10 47l6 41q2 14 0 88l-4 30l4 37l-10 41l6 43q2 27 2 76v76l-8 106l10 80q0 46 -7 60t-7 18l4 33l-2 22q0 17 18 35q20 10 60 7q41 -3 43 -5l34 9l36 -11l32 6q6 0 14 -1l16 -2t15 0q6 1 21 4
t26 4q47 -6 55 -48q2 -14 -10 -57q-4 -84 -4 -92l6 -39l-6 -33v-229l10 -57q0 -5 -10 -25l4 -53q0 -48 -4 -72l-6 -25q6 -24 6 -57l-6 -27l6 -24l-6 -21v-63l6 -45l-6 -60q5 -48 17 -65t11 -30t1 -18t6 -10t10 -12t22 -36q17 -28 26 -34q10 -6 24 -14q22 -10 32 -19
q40 -36 197 -28q14 0 29 -6q27 1 49 15q31 20 48 22t34 22q16 19 21 25q4 5 16 19t14 17t14 15t16 20t3 17q0 9 2 15t10 25t10 27t4 76l4 25q-10 40 -10 49l6 51l-6 28l10 32q0 43 -4 153l-6 37q-2 7 3 19t5 20l-8 46l8 40l-8 31q0 16 5 51q5 34 -1 152t-6 147l-6 23
q-6 33 10 59q4 12 21 15t23 8q5 4 34 -1t37 -4l29 7l47 -11q15 0 30 11l33 -7q4 -1 9 1q6 2 10 3l8 2t10 -1l12 -4q8 -5 25 -5q18 0 22 -12zM502 1855q0 17 4 23t8 20t10 20t15 33q8 26 13 34t7 18t6 14q2 3 6 19t11 22q2 8 18 5t24 -1t18 0q8 -2 24 1t24 3t12 -2t20 -1
t23 0t19 1t22 2h19q12 2 19 -1t12 -3l32 4q14 0 30 -3t24 -1q10 2 18 0t24 1t19 -5q6 -6 10 -21t7 -19q4 -4 6 -15q2 -10 7 -18t13 -34t14 -32q6 -7 10 -21t9 -20q4 -6 4 -22t8 -28q18 -25 21 -44l20 -74q-4 -18 -37 -13t-45 4t-28 2t-23 0t-21 1t-20 2l-29 -10
q-25 0 -41 44q-4 13 -7 18q-3 4 -9 22t-8 22t-14 14t-19 26q-6 16 -10 22l-17 32q0 2 -3 -3t-8 -14t-9 -15t-10 -22t-18 -25t-15 -13q-2 -4 -7 -22t-12 -26q-8 -8 -14 -27q-6 -20 -18 -29q-10 -4 -15 -4l-28 10q-5 2 -19 -2t-22 -1t-24 0t-27 -2q-12 1 -45 -4t-37 13l20 74
q0 8 3 13t11 19q7 14 11 19q4 4 4 20z" />
    <glyph glyph-name="Udieresis" unicode="&#xdc;" horiz-adv-x="1558" 
d="M1427 1583q19 -26 13 -77q-8 -68 -8 -226v-179l2 -69l-4 -55q4 -2 2 -137q-2 -136 -2 -184t-2 -84t4 -53q5 -18 -6 -36q-10 -19 -8 -43t-13 -53q-34 -113 -45 -125q-10 -12 -26 -27t-18 -31t-9 -24t-23 -18t-20 -17q-6 -4 -16 -18q-10 -13 -22 -23q-11 -10 -54 -30
t-54 -30q-11 -9 -19 -9h-16q-99 -35 -114 -35h-21q-16 -8 -37 -14h-106q-141 0 -169 4t-58 14q-31 10 -64 10t-59 16q-27 16 -47 21q-21 6 -39 16t-45 39t-32 35t-22 14t-29 33q-11 25 -31 43t-25 29q-5 12 -10 26t-9 30t-7 24q-3 10 -11 24q-8 16 -12 28q-5 13 -4 33
q1 19 0 25q-2 11 -7 31q-6 20 -6 29l8 106l-10 32l6 26l-4 35q12 36 12 49l-10 47l6 41q2 14 0 88l-4 30l4 37l-10 41l6 43q2 27 2 76v76l-8 106l10 80q0 46 -7 60t-7 18l4 33l-2 22q0 17 18 35q20 10 60 7q41 -3 43 -5l34 9l36 -11l32 6q6 0 14 -1l16 -2t15 0q6 1 21 4
t26 4q47 -6 55 -48q2 -14 -10 -57q-4 -84 -4 -92l6 -39l-6 -33v-229l10 -57q0 -5 -10 -25l4 -53q0 -48 -4 -72l-6 -25q6 -24 6 -57l-6 -27l6 -24l-6 -21v-63l6 -45l-6 -60q5 -48 17 -65t11 -30t1 -18t6 -10t10 -12t22 -36q17 -28 26 -34q10 -6 24 -14q22 -10 32 -19
q40 -36 197 -28q14 0 29 -6q27 1 49 15q31 20 48 22t34 22q16 19 21 25q4 5 16 19t14 17t14 15t16 20t3 17q0 9 2 15t10 25t10 27t4 76l4 25q-10 40 -10 49l6 51l-6 28l10 32q0 43 -4 153l-6 37q-2 7 3 19t5 20l-8 46l8 40l-8 31q0 16 5 51q5 34 -1 152t-6 147l-6 23
q-6 33 10 59q4 12 21 15t23 8q5 4 34 -1t37 -4l29 7l47 -11q15 0 30 11l33 -7q4 -1 9 1q6 2 10 3l8 2t10 -1l12 -4q8 -5 25 -5q18 0 22 -12zM371 1822v27q6 6 6 23l-6 31l6 39q0 4 -4 33t-3 41q1 13 2 27t15 30q21 14 37 12t44 -9t58 -4t83 0q55 -3 65 -1t18 2t17 -7
q10 -3 10 -17v-26q8 -25 0 -88t-6 -81t12 -42t2 -50t-31 -33q-4 -2 -63 -3l-156 7q-2 0 -41 -4t-39 2q-18 5 -25 25t-4 34t3 32zM860 1757v12q-12 43 -4 119q2 6 6 16q6 14 -3 35t-7 35q0 78 18 92q0 5 41 5l33 8l31 -8q8 -2 30 -1t41 -3q19 -5 27 -5l51 11q47 0 70 -17
q6 -6 11 -22t14 -36q9 -19 -10 -54q-19 -34 -8 -47t11 -19l-14 -33q0 -11 8 -27q18 -37 -4 -62q-23 -26 -81 -30l-89 7l-69 -7q-4 0 -48 -2q-55 -2 -55 33z" />
    <glyph glyph-name="agrave" unicode="&#xe0;" horiz-adv-x="1161" 
d="M640 641q14 0 32 -4q19 -4 30 25q26 44 -35 64q-9 3 -25 7t-20 7q-5 3 -28 0t-27 -3q-96 0 -166 -30q-79 -53 -125 -46q-45 7 -81 95q0 25 -16 37q-16 13 -22 26q-5 11 3 29q13 28 57 43q55 31 203 49q12 2 52 12t72 6t40 -4l94 4q4 0 49 -13t74 -14t40 -12
q11 -10 15 -13t9 -7t9 -6q80 -49 113 -105q4 -6 4 -20q1 -14 15 -28q14 -15 16 -21t1 -14t-1 -11l10 -53l-8 -35l8 -45v-119l6 -22l-10 -47l4 -152l4 -37l-4 -39q0 -4 5 -43t-5 -71q-10 -18 -84 -19q-194 0 -217 17q-10 6 -14 37q-26 3 -62 -17q-37 -20 -51 -24
q-19 0 -57 -19h-31q-40 -20 -53 -18l-24 4q-23 4 -48 3t-34 1t-27 8q-20 7 -47 11t-37 12t-22 21q-12 12 -20 18q-6 6 -20 18q-13 12 -26 20q-12 9 -16 14t-9 19q-4 13 -6 19q-3 9 -16 26q-13 16 -13 90l-6 33l14 43q14 61 32 88t75 74q2 4 10 10q9 6 15 12t22 7q3 9 43 24
q39 15 46 14t15 1t34 12t57 19t59 13q28 5 56 8t42 7t28 4zM717 376q0 6 3 20t-1 28t-28 19t-37 2t-23 -6q-9 -3 -19 -5t-44 -7t-48 -11q-16 -6 -40 -30t-38 -50q-14 -24 4 -50t40 -33t27 -8t11 0t16 1t19 4q49 2 51 2l29 14l24 8q9 0 15 6t12 8q6 3 9 6l11 11t13 22
q4 15 -1 29t-5 20zM324 1409l84 4h18q12 2 20 -1t11 -3l32 4q13 0 29 -3t26 -1t17 0q9 -2 25 1t18 -5q6 -5 10 -21t8 -20t5 -14q2 -10 7 -18t13 -35q9 -25 15 -31t10 -20t8 -21t4 -23t3 -20t11 -18t12 -20q4 -5 3 -14l20 -73q-5 -20 -37 -14t-44 5t-28 2t-24 0t-21 1t-20 2
l-29 -11q-20 5 -28 18t-13 26q-4 12 -7 18t-9 23t-8 21t-14 15q-13 10 -19 26q-6 17 -11 23t-10 16t-15 22t-12 24q-4 12 -16 26t-17 25q-5 10 -11 17q-6 8 -14 20t-12 17t-2 17q1 12 4 13h8z" />
    <glyph glyph-name="aacute" unicode="&#xe1;" horiz-adv-x="1161" 
d="M640 641q14 0 32 -4q19 -4 30 25q26 44 -35 64q-9 3 -25 7t-20 7q-5 3 -28 0t-27 -3q-96 0 -166 -30q-79 -53 -125 -46q-45 7 -81 95q0 25 -16 37q-16 13 -22 26q-5 11 3 29q13 28 57 43q55 31 203 49q12 2 52 12t72 6t40 -4l94 4q4 0 49 -13t74 -14t40 -12
q11 -10 15 -13t9 -7t9 -6q80 -49 113 -105q4 -6 4 -20q1 -14 15 -28q14 -15 16 -21t1 -14t-1 -11l10 -53l-8 -35l8 -45v-119l6 -22l-10 -47l4 -152l4 -37l-4 -39q0 -4 5 -43t-5 -71q-10 -18 -84 -19q-194 0 -217 17q-10 6 -14 37q-26 3 -62 -17q-37 -20 -51 -24
q-19 0 -57 -19h-31q-40 -20 -53 -18l-24 4q-23 4 -48 3t-34 1t-27 8q-20 7 -47 11t-37 12t-22 21q-12 12 -20 18q-6 6 -20 18q-13 12 -26 20q-12 9 -16 14t-9 19q-4 13 -6 19q-3 9 -16 26q-13 16 -13 90l-6 33l14 43q14 61 32 88t75 74q2 4 10 10q9 6 15 12t22 7q3 9 43 24
q39 15 46 14t15 1t34 12t57 19t59 13q28 5 56 8t42 7t28 4zM717 376q0 6 3 20t-1 28t-28 19t-37 2t-23 -6q-9 -3 -19 -5t-44 -7t-48 -11q-16 -6 -40 -30t-38 -50q-14 -24 4 -50t40 -33t27 -8t11 0t16 1t19 4q49 2 51 2l29 14l24 8q9 0 15 6t12 8q6 3 9 6l11 11t13 22
q4 15 -1 29t-5 20zM796 1411l84 -4h7q4 0 5 -12t-7 -26t-17 -25q-10 -11 -15 -21t-17 -24q-12 -13 -16 -25t-12 -26q-9 -14 -14 -22q-4 -8 -10 -16t-12 -23t-20 -27t-20 -32q-7 -20 -10 -25t-9 -27t-25 -32q-10 -4 -14 -4l-29 11q-6 2 -19 -2q-14 -4 -22 -1q-9 3 -43 -4
q-20 2 -52 -3t-38 14l21 73q0 14 14 35t14 37t4 22t8 21t10 21t15 32q8 26 13 33q6 9 8 19t6 14q2 4 6 19t10 22q2 8 18 5t24 -1t18 0q8 -2 24 1t31 3l33 -4q2 0 10 3t17 2t21 -1z" />
    <glyph glyph-name="acircumflex" unicode="&#xe2;" horiz-adv-x="1157" 
d="M344 578q4 0 7 -1t11 1t34 12t57 19t58 13q29 5 57 8t42 7t28 4t32 -4q19 -4 30 25q26 44 -35 64q-9 3 -25 7t-20 7q-6 3 -28 0t-27 -3q-96 0 -166 -30q-41 -28 -78 -37q-36 -10 -51 -8q-41 6 -77 94q0 29 -25 46t-6 52q7 22 53 37q55 31 203 49q12 2 51 12t72 6t41 -4
l94 4q4 0 49 -13t72 -14t48 -18q21 -16 27 -20q80 -49 113 -105q4 -6 4 -19q1 -13 15 -27t16 -22q2 -7 1 -15t-1 -11l10 -53l-8 -35l8 -45v-119l6 -22l-10 -47l4 -152l4 -37l-4 -39q0 -4 5 -43t-5 -71q-10 -18 -84 -19q-194 0 -217 17q-10 6 -14 37q-26 3 -62 -17
q-37 -20 -51 -24q-19 0 -57 -19h-31q-40 -20 -53 -18l-24 4q-23 4 -48 3t-34 1t-27 8q-20 7 -47 11t-37 12t-22 21q-12 12 -20 18q-6 6 -20 18t-26 21q-12 8 -16 13t-9 19q-4 13 -7 19t-10 17q-6 11 -12 23t-6 76l-6 33l14 43q14 61 32 88q18 26 48 52q31 26 37 32
q19 19 37 19q3 9 43 24q39 15 43 15zM715 376q0 6 3 20t-1 28t-28 19t-36 2t-18 -4t-11 -3q-4 -2 -10 -3l-12 -2t-38 -6t-46 -11q-16 -6 -40 -30t-36 -45q-24 -39 14 -70t66 -26q6 1 16 1t19 4q49 2 51 2l29 14l23 8q10 0 16 6t12 8q6 3 9 6l11 11t13 22q4 15 -1 29t-5 20z
M297 1202q0 16 4 22t8 21t10 21q7 6 15 32t13 33q5 9 7 19t6 14q2 4 7 19q4 15 10 22q2 8 18 5q17 -3 25 -1t17 0t25 1t24 3t12 -2t19 -1t23 0t20 1t22 2h18q12 2 20 -1t11 -3l33 4q14 0 29 -3t25 -1t17 0q9 -2 25 1t18 -5q6 -5 10 -21t8 -20t5 -14q2 -10 7 -18t13 -35
q9 -25 15 -31t10 -20t8 -21t4 -23t3 -20t11 -18t12 -20q4 -5 3 -14l20 -73q-5 -20 -37 -14t-44 5t-28 2t-24 0t-21 1t-20 2l-28 -11q-27 0 -41 44q-4 12 -8 18t-9 23q-6 17 -8 21t-14 15q-13 10 -19 26q-6 15 -10 21t-8 16t-6 14q-2 5 -5 0t-9 -14q-6 -10 -9 -16
q-4 -6 -10 -21q-7 -15 -19 -25t-14 -14t-7 -22t-12 -25t-13 -27t-19 -29q-10 -4 -14 -5l-29 11q-6 2 -20 -2t-21 -1t-23 0t-28 -2t-45 -4t-37 13l20 73q0 12 14 34t15 38z" />
    <glyph glyph-name="adieresis" unicode="&#xe4;" horiz-adv-x="1161" 
d="M640 641q14 0 32 -4q19 -4 30 25q26 44 -35 64q-9 3 -25 7t-20 7q-5 3 -28 0t-27 -3q-96 0 -166 -30q-79 -53 -125 -46q-45 7 -81 95q0 25 -16 37q-16 13 -22 26q-5 11 3 29q13 28 57 43q55 31 203 49q12 2 52 12t72 6t40 -4l94 4q4 0 49 -13t74 -14t40 -12
q11 -10 15 -13t9 -7t9 -6q80 -49 113 -105q4 -6 4 -20q1 -14 15 -28q14 -15 16 -21t1 -14t-1 -11l10 -53l-8 -35l8 -45v-119l6 -22l-10 -47l4 -152l4 -37l-4 -39q0 -4 5 -43t-5 -71q-10 -18 -84 -19q-194 0 -217 17q-10 6 -14 37q-26 3 -62 -17q-37 -20 -51 -24
q-19 0 -57 -19h-31q-40 -20 -53 -18l-24 4q-23 4 -48 3t-34 1t-27 8q-20 7 -47 11t-37 12t-22 21q-12 12 -20 18q-6 6 -20 18q-13 12 -26 20q-12 9 -16 14t-9 19q-4 13 -6 19q-3 9 -16 26q-13 16 -13 90l-6 33l14 43q14 61 32 88t75 74q2 4 10 10q9 6 15 12t22 7q3 9 43 24
q39 15 46 14t15 1t34 12t57 19t59 13q28 5 56 8t42 7t28 4zM717 376q0 6 3 20t-1 28t-28 19t-37 2t-23 -6q-9 -3 -19 -5t-44 -7t-48 -11q-16 -6 -40 -30t-38 -50q-14 -24 4 -50t40 -33t27 -8t11 0t16 1t19 4q49 2 51 2l29 14l24 8q9 0 15 6t12 8q6 3 9 6l11 11t13 22
q4 15 -1 29t-5 20zM451 1042q-41 0 -109 2t-106 -2t-39 2q-17 6 -25 26t-5 35t3 36t4 31t3 15t-4 14t-3 16l6 40q0 2 -4 32t-3 42t2 25t15 33q23 12 38 11t43 -8t42 -8q45 4 148 0l35 4q26 -3 26 -26v-25q10 -23 1 -87t-7 -81q2 -16 12 -41q10 -26 2 -52t-30 -32
q-4 -2 -45 -2zM744 1395q10 0 32 -11h52l44 -8l52 13q8 -3 34 -6q25 -3 34 -11t18 -37l10 -30q0 -14 -10 -42t-12 -37q-2 -10 6 -18t8 -14l-15 -35q1 -10 9 -25q20 -36 -10 -69t-162 -18q-10 3 -32 -1t-33 -4t-35 -2q-72 -6 -72 25l-3 20q-12 43 -2 119l9 29q-2 11 -10 27
t-5 28q0 79 19 92q0 6 20 5l21 -1q23 11 33 11z" />
    <glyph glyph-name="ccedilla" unicode="&#xe7;" horiz-adv-x="1126" 
d="M559 -362l-59 6l-23 8q-19 3 -25 9q-6 7 -8 7t-9 4t-10 8q-5 9 -23 18t-15 21q2 13 5 17q2 4 20 12t43 28q24 19 31 12l12 -14q5 -7 11 -9q5 -1 17 -11q16 -6 38 0t25 13q3 6 9 9t9 10q3 8 7 20t4 18t-5 30t-23 38q-18 16 -37 17q-20 1 -30 9q-9 8 -6 16t3 12q0 5 4 13
l11 25q0 6 -4 6l-21 -4q-18 0 -59 13t-59 36q-17 22 -39 22q-39 0 -51 18t-26 27q-17 10 -30 29t-34 38q-21 18 -25 37t-19 33q-14 13 -16 22t-4 17t-3 11q-2 4 -10 14t-11 18t-1 38q3 44 -10 78q-13 33 -13 57l4 53q2 6 1 37t7 44t17 50t19 51t30 33q2 6 8 27t36 51
q31 31 39 35q7 4 14 9t13 8t15 16q10 13 25 17q14 5 18 8t14 11t16 11t17 4t34 15t77 21q53 6 62 4t16 0q207 12 338 -100q4 -4 42 -30q38 -27 39 -55q0 -29 -26 -46l-18 -12q-16 -11 -25 -27q-10 -16 -38 -32q-47 -26 -56 -48q-12 -12 -43 -28q-14 -2 -27 -6t-33 23t-22 32
q-18 18 -47 28q-2 4 -18 3t-18 -1q-4 0 -12 4t-14 3q-61 -2 -141 -74q-27 -27 -27 -68q-16 -70 -16 -90t10 -43q10 -22 14 -39q6 -27 22 -38q16 -10 24 -20q26 -32 55 -32q98 -35 138 5q8 8 20 10t19 8q6 6 26 34q39 55 82 9q10 -11 16 -15t48 -35t68 -40q97 -35 63 -95
q-11 -20 -23 -31t-21 -19t-23 -17q-14 -11 -19 -15t-12 -12t-11 -12t-15 -8q-10 -4 -31 -22q-27 -23 -50 -26q-23 -2 -48 -14t-72 -12q-6 0 -10 -8l-2 -11l-4 -10q22 -26 25 -33q2 -6 10 -14l16 -47q2 -2 1 -12t-1 -13l2 -28l-8 -25v-31q-8 -8 -8 -12l-4 -12q0 -2 -5 -6
t-6 -10q0 -7 -2 -9t-10 -9t-11 -11t-4 -6t-6 -5t-9 -10l-7 -6l-14 -2q-2 -2 -8 -4t-9 -6t-18 -10q-16 -6 -24 -6l-11 2z" />
    <glyph glyph-name="egrave" unicode="&#xe8;" horiz-adv-x="1202" 
d="M111 613q0 9 2 14l32 86q2 2 4 12q6 33 54 82l37 37q4 4 12 22t28 25q21 7 50 31q30 24 59 28t82 20t82 17l88 -6q74 -4 76 -5q33 -17 62 -24q27 -8 55 -20t64 -42t49 -48q20 -27 38 -41q18 -13 25 -38q6 -25 24 -67t22 -53q3 -10 16 -39t14 -67q2 -38 4 -45t3 -13t3 -14
t2 -14q0 -29 -30 -29h-17q-70 -14 -96 -4t-33 10l-48 -8l-81 6q-6 2 -25 0q-18 -2 -58 -1t-53 -3l-24 -8q-11 -2 -29 6t-33 2q-10 -8 -48 -5t-49 2t-22 -10t-10 -18q0 -39 52 -83t65 -50q12 -6 29 -6q109 -39 195 6t109 73q23 29 49 2q6 -6 21 -17t29 -28q18 -22 54 -50
q36 -29 48 -54t5 -38q-8 -13 -16 -21t-17 -14q-10 -7 -17 -11t-26 -11t-36 -22t-25 -22q-10 -4 -50 -14t-80 -24t-55 -12q-19 1 -43 -11q-31 -2 -42 -2l-83 6l-41 -4q-30 10 -93 18t-73 22q-12 16 -45 24q-32 8 -40 18q-9 10 -16 20t-26 17q-20 7 -26 13t-11 16
q-5 11 -10 18q-16 8 -26 18l-3 12q-3 14 -22 30q-18 16 -18 34q-10 5 -16 29q-7 23 -16 37t-10 24t0 22t-7 46t-11 49l4 41v43q-6 24 -6 30l15 35v13zM721 642v22q-2 34 -6 38q-3 4 -13 10t-14 11q-55 55 -113 47t-74 -35q-8 -13 -20 -16q-12 -2 -22 -8t-16 -48
q-7 -41 1 -51q16 -12 35 -10q20 2 43 0t25 -2l26 10l33 -6q8 -2 25 2l24 6l35 -6q26 4 28 18q3 13 3 18zM303 1409l84 4h19q12 2 20 -1t10 -3l33 4q13 0 29 -3t25 -1t17 0t25 1q16 3 19 -5q6 -5 10 -21t7 -20t5 -14t7 -18t13 -35q8 -25 15 -31q6 -6 10 -20t8 -21q5 -7 5 -23
t3 -20q25 -33 25 -47q0 -13 3 -17t5 -21t13 -40q-5 -20 -37 -14t-44 5t-28 2t-24 0t-22 1t-19 2l-29 -11q-30 7 -41 44q-4 12 -7 18t-9 23q-7 17 -9 21t-14 15q-12 10 -18 26q-6 17 -12 23t-10 16q-5 10 -14 22t-12 24q-4 12 -16 26t-17 25q-5 10 -23 29t-16 37q1 18 4 18h7
z" />
    <glyph glyph-name="eacute" unicode="&#xe9;" horiz-adv-x="1202" 
d="M111 613q0 9 2 14l32 86q2 2 4 12q6 33 54 82l37 37q4 4 12 22t28 25q21 7 50 31q30 24 59 28t82 20t82 17l88 -6q74 -4 76 -5q33 -17 62 -24q27 -8 55 -20t64 -42t49 -48q20 -27 38 -41q18 -13 25 -38q6 -25 24 -67t22 -53q3 -10 16 -39t14 -67q2 -38 4 -45t3 -13t3 -14
t2 -14q0 -29 -30 -29h-17q-70 -14 -96 -4t-33 10l-48 -8l-81 6q-6 2 -25 0q-18 -2 -58 -1t-53 -3l-24 -8q-11 -2 -29 6t-33 2q-10 -8 -48 -5t-49 2t-22 -10t-10 -18q0 -39 52 -83t65 -50q12 -6 29 -6q109 -39 195 6t109 73q23 29 49 2q6 -6 21 -17t29 -28q18 -22 54 -50
q36 -29 48 -54t5 -38q-8 -13 -16 -21t-17 -14q-10 -7 -17 -11t-26 -11t-36 -22t-25 -22q-10 -4 -50 -14t-80 -24t-55 -12q-19 1 -43 -11q-31 -2 -42 -2l-83 6l-41 -4q-30 10 -93 18t-73 22q-12 16 -45 24q-32 8 -40 18q-9 10 -16 20t-26 17q-20 7 -26 13t-11 16
q-5 11 -10 18q-16 8 -26 18l-3 12q-3 14 -22 30q-18 16 -18 34q-10 5 -16 29q-7 23 -16 37t-10 24t0 22t-7 46t-11 49l4 41v43q-6 24 -6 30l15 35v13zM721 642v22q-2 34 -6 38q-3 4 -13 10t-14 11q-55 55 -113 47t-74 -35q-8 -13 -20 -16q-12 -2 -22 -8t-16 -48
q-7 -41 1 -51q16 -12 35 -10q20 2 43 0t25 -2l26 10l33 -6q8 -2 25 2l24 6l35 -6q26 4 28 18q3 13 3 18zM758 1411l84 -4h6q4 0 5 -12t-7 -26t-17 -25q-10 -11 -15 -21t-17 -24q-11 -13 -15 -25t-13 -26t-14 -22t-11 -16t-11 -23q-6 -15 -20 -27t-20 -32q-7 -20 -10 -25
t-9 -27t-25 -32q-10 -4 -14 -4l-29 11q-6 2 -19 -2t-21 -1t-44 -4q-20 2 -52 -3t-38 14l21 73q0 14 14 35t14 37t4 22t9 21q4 15 10 21t14 32t13 33q5 9 7 19t7 14q2 4 6 19t10 22q3 8 19 5t24 -1t18 0t24 1q15 3 30 3l33 -4q4 0 11 3t16 2q10 -1 22 -1z" />
    <glyph glyph-name="ecircumflex" unicode="&#xea;" horiz-adv-x="1202" 
d="M111 613q0 9 2 14l32 86q2 2 4 12q6 33 54 82l37 37q4 4 12 22t28 25q21 7 50 31q30 24 59 28t82 20t82 17l88 -6q74 -4 76 -5q33 -17 62 -24q27 -8 55 -20t64 -42t49 -48q20 -27 38 -41q18 -13 25 -38q6 -25 24 -67t22 -53q3 -10 16 -39t14 -67q2 -38 4 -45t3 -13t3 -14
t2 -14q0 -29 -30 -29h-17q-70 -14 -96 -4t-33 10l-48 -8l-81 6q-6 2 -25 0q-18 -2 -58 -1t-53 -3l-24 -8q-11 -2 -29 6t-33 2q-10 -8 -48 -5t-49 2t-22 -10t-10 -18q0 -39 52 -83t65 -50q12 -6 29 -6q109 -39 195 6t109 73q23 29 49 2q6 -6 21 -17t29 -28q18 -22 54 -50
q36 -29 48 -54t5 -38q-8 -13 -16 -21t-17 -14q-10 -7 -17 -11t-26 -11t-36 -22t-25 -22q-10 -4 -50 -14t-80 -24t-55 -12q-19 1 -43 -11q-31 -2 -42 -2l-83 6l-41 -4q-30 10 -93 18t-73 22q-12 16 -45 24q-32 8 -40 18q-9 10 -16 20t-26 17q-20 7 -26 13t-11 16
q-5 11 -10 18q-16 8 -26 18l-3 12q-3 14 -22 30q-18 16 -18 34q-10 5 -16 29q-7 23 -16 37t-10 24t0 22t-7 46t-11 49l4 41v43q-6 24 -6 30l15 35v13zM721 642v22q-2 34 -6 38q-3 4 -13 10t-14 11q-55 55 -113 47t-74 -35q-8 -13 -20 -16q-12 -2 -22 -8t-16 -48
q-7 -41 1 -51q16 -12 35 -10q20 2 43 0t25 -2l26 10l33 -6q8 -2 25 2l24 6l35 -6q26 4 28 18q3 13 3 18zM293 1202q0 16 4 22t8 21t10 21q7 6 15 32t13 33q5 9 7 19t6 14q2 4 6 19t11 22q2 8 18 5q17 -3 25 -1t17 0t25 1t23 3q9 0 13 -2t19 -1t23 0t20 1t22 2h18q12 2 19 -1
t12 -3l32 4q13 0 29 -3t26 -1t17 0q9 -2 25 1t18 -5q6 -5 10 -21t8 -20t5 -14q2 -10 7 -18t13 -35q9 -25 15 -31t10 -20t8 -21t4 -23t3 -20t11 -18t12 -20q4 -5 3 -14l20 -73q-5 -20 -37 -14t-44 5t-28 2t-24 0t-21 1t-20 2l-29 -11q-24 0 -41 44q-4 12 -7 18t-9 23t-8 21
t-14 15q-13 10 -19 26q-6 15 -10 21t-9 17t-6 15q-2 3 -5 -2t-8 -14q-5 -10 -9 -16t-10 -21q-7 -15 -19 -25t-14 -14t-7 -22t-12 -25t-13 -27t-19 -29q-10 -4 -15 -5l-28 11q-6 2 -20 -2t-21 -1t-23 0t-28 -2t-45 -4t-37 13l20 73q0 12 14 34t15 38z" />
    <glyph glyph-name="edieresis" unicode="&#xeb;" horiz-adv-x="1202" 
d="M111 613q0 9 2 14l32 86q2 2 4 12q6 33 54 82l37 37q4 4 12 22t28 25q21 7 50 31q30 24 59 28t82 20t82 17l88 -6q74 -4 76 -5q33 -17 62 -24q27 -8 55 -20t64 -42t49 -48q20 -27 38 -41q18 -13 25 -38q6 -25 24 -67t22 -53q3 -10 16 -39t14 -67q2 -38 4 -45t3 -13t3 -14
t2 -14q0 -29 -30 -29h-17q-70 -14 -96 -4t-33 10l-48 -8l-81 6q-6 2 -25 0q-18 -2 -58 -1t-53 -3l-24 -8q-11 -2 -29 6t-33 2q-10 -8 -48 -5t-49 2t-22 -10t-10 -18q0 -39 52 -83t65 -50q12 -6 29 -6q109 -39 195 6t109 73q23 29 49 2q6 -6 21 -17t29 -28q18 -22 54 -50
q36 -29 48 -54t5 -38q-8 -13 -16 -21t-17 -14q-10 -7 -17 -11t-26 -11t-36 -22t-25 -22q-10 -4 -50 -14t-80 -24t-55 -12q-19 1 -43 -11q-31 -2 -42 -2l-83 6l-41 -4q-30 10 -93 18t-73 22q-12 16 -45 24q-32 8 -40 18q-9 10 -16 20t-26 17q-20 7 -26 13t-11 16
q-5 11 -10 18q-16 8 -26 18l-3 12q-3 14 -22 30q-18 16 -18 34q-10 5 -16 29q-7 23 -16 37t-10 24t0 22t-7 46t-11 49l4 41v43q-6 24 -6 30l15 35v13zM721 642v22q-2 34 -6 38q-3 4 -13 10t-14 11q-55 55 -113 47t-74 -35q-8 -13 -20 -16q-12 -2 -22 -8t-16 -48
q-7 -41 1 -51q16 -12 35 -10q20 2 43 0t25 -2l26 10l33 -6q8 -2 25 2l24 6l35 -6q26 4 28 18q3 13 3 18zM452 1042q-42 0 -109 2q-66 2 -105 -2t-39 2q-17 6 -25 26t-5 35t3 36t4 31t3 15t-4 14t-3 16l6 40q0 2 -4 32t-3 42t2 25t15 33q23 12 38 11t43 -8t42 -8q45 4 148 0
l35 4q26 -3 26 -26v-25q10 -23 1 -87t-7 -81q2 -16 12 -41q10 -26 2 -52t-30 -32q-4 -2 -46 -2zM771 1042q-11 0 -35 -2q-67 -6 -70 16q-4 21 -4 29q-12 43 -3 119l9 29q-2 11 -10 27t-5 28q0 79 19 92q0 6 20 5l21 -1l32 11q11 0 33 -11h53l43 -8l52 13q6 -2 33 -4t36 -15
q8 -6 17 -35l10 -30q0 -14 -10 -42t-12 -37q-2 -10 6 -18t8 -14l-15 -35q1 -10 9 -25q20 -36 -9 -68t-123 -23l-40 4q-10 3 -32 -1t-33 -4z" />
    <glyph glyph-name="igrave" unicode="&#xec;" horiz-adv-x="643" 
d="M174 105q0 11 2 14l17 57q-2 4 -8 12q-5 8 -5 15l4 33l-4 38l13 50l-13 43q-2 39 3 115t5 108l-8 100l8 37q0 75 -4 103t-4 58t36 41q3 1 12 0t16 -1l24 4q8 0 27 -5t34 -2t20 3l30 -6q4 0 96 12q27 2 39 -20t6 -48l-10 -41q0 -7 3 -33t-3 -68t1 -72q7 -31 1 -108
t-6 -112l4 -92q0 -143 4 -164l-4 -55q0 -6 2 -28q6 -61 -15 -77q-20 -16 -44 -16l-31 4q-8 2 -22 -1t-23 -3q-24 8 -35 8l-86 -6q-6 0 -29 -1t-37 11q-20 20 -16 80v13zM85 1411l83 4h20q12 2 20 -1t11 -3l33 4q14 0 30 -3t24 -1q10 2 18 0t24 1q23 4 27 -19t7 -27t5 -9
t3 -11t6 -12t13 -34q8 -27 15 -33q6 -5 9 -19t8 -21t5 -23t13 -37t15 -32q1 -11 4 -15t4 -17t8 -23q6 -10 6 -21q-4 -18 -38 -13t-46 4t-26 2t-23 0q-7 -3 -21 1t-20 2l-30 -11q-29 10 -56 85q-8 24 -22 35q-13 11 -19 27q-5 17 -11 23t-11 16t-14 22t-13 24t-16 26
q-11 14 -16 25q-4 11 -10 17t-10 12t-12 17t-7 25q1 13 5 13h5z" />
    <glyph glyph-name="iacute" unicode="&#xed;" horiz-adv-x="649" 
d="M455 121q0 -6 1 -28q3 -62 -16 -78q-19 -15 -43 -15l-32 4q-6 2 -22 -2t-34 1t-24 5l-86 -6l-34 -2q-52 0 -46 92v27q0 4 10 25t7 29q-3 7 -7 15t-6 15l4 33l-4 38l12 50l-12 43l8 223l-8 100l8 37q0 75 -4 103t-4 58t36 41q3 1 13 0t14 -1l27 4q6 0 20 -4q15 -4 21 -5
t19 2t20 3l29 -6q4 0 96 12q27 2 39 -20t6 -48l-10 -41q0 -7 3 -33t-1 -62t-2 -66l8 -52q-10 -145 -10 -180l4 -92q0 -144 2 -158t0 -34t-2 -27zM473 1411l83 -4h7q4 0 5 -12t-6 -25t-17 -25q-9 -12 -15 -22t-18 -24q-12 -13 -15 -25t-13 -26t-14 -22l-10 -16q-6 -8 -12 -23
t-19 -26t-20 -32t-11 -26t-7 -19q-13 -44 -41 -44l-28 11q-6 2 -20 -2t-23 -1q-10 3 -41 -4q-20 2 -52 -3t-39 14l21 73q0 20 26 52q4 4 3 20q0 16 4 22t8 21t10 21t14 32q7 26 13 33q6 9 8 19t6 14q2 4 6 19t10 22q2 8 18 5t25 -1q7 2 17 0t25 1t30 3l33 -4q2 0 10 3t18 2
t21 -1z" />
    <glyph glyph-name="icircumflex" unicode="&#xee;" horiz-adv-x="813" 
d="M567 121q0 -6 1 -28q3 -62 -15 -77q-18 -16 -43 -16l-33 4q-6 2 -20 -2t-33 1q-20 5 -27 5l-84 -6q-6 0 -29 -2q-58 -4 -53 92q0 2 -1 13t11 33t7 38l-10 27q-2 6 0 17q2 10 2 16t-2 21t5 36q7 20 5 31l-12 43l8 223l-8 100l8 37q0 75 -4 103q-12 85 31 99q3 1 13 0
t15 -1l26 4l44 -8q6 -2 19 1t19 3l29 -6q4 0 94 12q27 2 41 -24t4 -51t-10 -34l6 -71q-8 -59 -6 -90l8 -52q-10 -145 -10 -180l4 -92q0 -144 2 -158t0 -34t-2 -27zM123 1202q0 16 5 22t8 21t10 21q6 6 14 32t13 33q5 9 7 19t6 14t8 19q3 15 9 22q2 8 18 5q17 -3 25 -1t17 0
t25 1t24 3h11q1 0 4 -3t17 -1t22 1t20 1t22 2h19l30 -4l32 4q13 0 29 -3t26 -1t18 0q10 -2 26 1t16 -5q8 -5 11 -21t7 -20t5 -14q2 -10 8 -18t13 -35q8 -25 14 -31t10 -20t8 -21t4 -23t3 -20t11 -18t12 -20q4 -5 3 -14l8 -30q0 -6 2 -10q13 -25 10 -34q-5 -19 -37 -13t-44 5
t-28 2t-24 0t-20 1t-21 2l-28 -11q-23 0 -43 49q-3 9 -6 14t-8 22q-7 22 -21 34t-21 28q-6 15 -10 21t-8 16t-5 13q-1 4 -3 4q-22 -31 -29 -50q-8 -19 -14 -25q-7 -5 -15 -13q-8 -9 -13 -27t-12 -25t-13 -27t-19 -29q-10 -4 -13 -5l-30 11q-6 2 -20 -2t-21 -1q-9 3 -23 0
t-26 -2t-46 -4t-38 13q0 13 5 21t6 12t2 14t4 14t4 15t13 28q11 17 13 21t2 20z" />
    <glyph glyph-name="idieresis" unicode="&#xef;" horiz-adv-x="1024" 
d="M332 830q-4 28 -4 50t14 34q14 14 26 14h23l25 4l43 -8q4 -2 14 1t25 3l28 -6q5 0 97 12q27 2 39 -20t6 -48l-11 -41q0 -7 3 -33t-3 -71t2 -73q7 -27 7 -36q-12 -145 -13 -180l6 -92q0 -143 3 -164l-3 -55q0 -6 1 -28q3 -63 -17 -78q-19 -15 -46 -15l-28 4q-8 2 -22 -1
t-23 -3q-24 8 -35 8l-86 -6q-6 0 -29 -2t-39 15q-17 17 -14 48t2 42q-1 12 9 39q10 26 8 31t-7 15t-5 13l4 33l-4 38l12 50l-12 43l8 223l-8 100l8 37q0 75 -4 103zM86 1146v25q6 12 6 24l-6 30l6 41q0 2 -2 15t-3 21t-2 20q-1 13 0 21t2 21t15 33q20 12 36 11t45 -8
q27 -7 57 -5t84 0t70 1q15 3 27 -4q13 -7 13 -21v-25q8 -23 0 -88t-6 -81q2 -17 12 -41t2 -50t-30 -33q-4 -2 -64 -2l-155 4q-2 0 -41 -4t-39 2q-17 5 -25 25t-5 35t3 33zM658 1403q12 0 32 -10h53l45 -9l52 13q4 -2 30 -3t37 -12q10 -10 19 -39l10 -30q0 -12 -14 -49
t-4 -46t10 -16l-15 -35q1 -8 9 -25q19 -38 -9 -69t-123 -21q-30 3 -42 3l-70 -4q-4 0 -28 -2q-66 -5 -73 24q-1 4 -2 10v11q-16 58 0 131q9 18 -1 38q-9 21 -7 33q0 81 19 93q0 6 20 5l21 -1q19 10 31 10z" />
    <glyph glyph-name="ograve" unicode="&#xf2;" horiz-adv-x="1230" 
d="M756 6q-14 0 -58 -14t-53 -12l-24 4l-31 -4l-29 10l-33 -4l-39 14q-4 0 -16 -4t-36 10q-25 14 -39 15q-13 2 -32 17t-49 28q-20 14 -72 70t-59 67t-16 41q-2 4 -14 12t-11 22v21q-27 40 -25 59q1 19 -1 27t-10 32t-11 36q-25 246 160 419q61 59 74 63q21 8 78 38t211 37
l32 -6l45 6q16 0 31 -11q6 -2 22 -1t37 -10q20 -11 44 -19t32 -23q33 -2 42 -11l16 -16q6 -7 8 -10q6 -6 28 -26q22 -21 28 -29t18 -19q19 -18 24 -33q5 -14 17 -24t19 -21q8 -11 18 -42t22 -66t11 -58q-1 -24 -1 -30l8 -43l-4 -56l4 -40l-16 -72q0 -48 -25 -59l2 -8
q-5 -5 -12 -24q-23 -58 -108 -148q-7 -9 -27 -17q-35 -15 -53 -37q-5 -4 -19 -8q-14 -5 -46 -21t-40 -19t-22 -3zM694 698h-20q-6 0 -16 8t-15 8q-6 1 -16 -3q-11 -4 -15 -4t-18 5t-32 0q-18 -6 -44 -28t-36 -28t-16 -11q-4 -6 -24 -51t-21 -54t4 -39t7 -36l6 -41
q2 -6 9 -14q13 -15 17 -35q8 -42 72 -70q40 -18 59 -18t31 4t17 5q4 1 16 0t15 1q47 18 88 70t35 112q-2 23 -2 28l6 30l-17 57q0 8 -2 12q-4 4 -13 10t-26 37t-24 38q-9 7 -25 7zM297 1438l83 4h19q11 2 19 -1t12 -3l33 4q13 0 29 -3t25 -1t17 0t25 1q16 3 19 -5
q6 -6 10 -22t7 -19q3 -5 5 -15t7 -18t13 -34t15 -32q6 -6 10 -20t8 -20t4 -23q-1 -17 3 -21q26 -33 26 -46t3 -17q3 -3 5 -21t13 -41q-4 -18 -37 -13q-34 5 -46 4t-27 2t-23 0t-22 1t-20 2l-28 -10q-27 0 -41 44q-4 13 -7 19t-11 26q-8 21 -20 32q-13 10 -19 26t-12 22
q-6 7 -10 16q-5 8 -14 22q-8 14 -12 26t-16 25q-12 15 -17 25t-23 29t-16 37q1 18 4 18h7z" />
    <glyph glyph-name="oacute" unicode="&#xf3;" horiz-adv-x="1232" 
d="M1124 422l-16 -72q0 -48 -25 -59l2 -8q-6 -7 -13 -25q-21 -55 -107 -147q-7 -9 -27 -17q-35 -15 -53 -37q-5 -4 -19 -8q-14 -5 -46 -21t-40 -19t-22 -3t-58 -14t-53 -12l-24 4l-31 -4l-29 10l-33 -4l-38 14q-4 0 -16 -4t-37 10t-39 15q-13 2 -32 17t-49 28q-20 14 -72 70
q-51 56 -57 64t-8 16q-2 7 -5 14q-3 6 -5 12t-14 14t-11 43q-27 40 -25 59q1 19 -1 27t-10 32t-11 36q-25 246 160 419q61 58 75 64q15 6 21 8t42 22q70 37 225 44l32 -6l45 6q16 0 31 -11q6 -2 22 -1t37 -10q20 -11 44 -19t32 -23q33 -2 42 -11l16 -16q6 -7 8 -10
q6 -6 28 -26q22 -21 28 -29t18 -19q19 -18 24 -33q5 -14 17 -24t19 -21q8 -11 18 -42t22 -66t11 -58q-1 -24 -1 -30l8 -43l-4 -56zM696 698h-20q-6 0 -16 8t-15 8q-6 1 -16 -3q-11 -4 -15 -4t-18 5t-32 0q-18 -6 -44 -28t-36 -28t-16 -11q-4 -6 -24 -51t-21 -54t4 -39t7 -36
l6 -41q2 -6 10 -14q11 -12 16 -33t18 -37q14 -17 54 -35t59 -18t35 5t29 4t15 1q47 18 88 70t35 112q-2 23 -2 28l6 30l-17 57q0 8 -2 12q-4 4 -13 10q-10 7 -24 36q-15 29 -32 42q-3 4 -19 4zM813 1425l83 -4h7q3 0 5 -18q2 -19 -16 -37t-22 -28q-6 -10 -18 -25
q-12 -13 -15 -25t-13 -26t-14 -22q-5 -9 -10 -16q-6 -6 -12 -22t-18 -26t-14 -14t-8 -22q-6 -16 -10 -22t-7 -19q-14 -44 -41 -44l-28 10q-6 2 -20 -2t-22 -1t-23 0t-27 -2t-44 -4t-39 13l21 74q0 8 3 13q3 6 11 20t11 18t4 20q0 16 4 22t8 21t10 21t14 32q7 26 13 34t8 18
t6 14q2 4 6 20t10 21q2 8 18 5t25 -1q7 2 17 0t25 1t30 3l33 -4q2 0 10 3t18 2t21 -1z" />
    <glyph glyph-name="ocircumflex" unicode="&#xf4;" horiz-adv-x="1230" 
d="M756 6q-14 0 -58 -14t-53 -12l-24 4l-31 -4l-29 10l-33 -4l-39 14q-4 0 -16 -4t-36 10q-25 14 -39 15q-13 2 -32 17t-49 28q-20 14 -72 70t-59 67t-16 41q-2 4 -14 12t-11 22v21q-27 40 -25 59q1 19 -1 27t-10 32t-11 36q-25 246 160 419q61 59 74 63q21 8 78 38t211 37
l32 -6l45 6q16 0 31 -11q6 -2 22 -1t37 -10q20 -11 44 -19t32 -23q33 -2 42 -11l16 -16q6 -7 8 -10q6 -6 28 -26q22 -21 28 -29t18 -19q19 -18 24 -33q5 -14 17 -24t19 -21q8 -11 18 -42t22 -66t11 -58q-1 -24 -1 -30l8 -43l-4 -56l4 -40l-16 -72q0 -48 -25 -59l2 -8
q-5 -5 -12 -24q-23 -58 -108 -148q-7 -9 -27 -17q-35 -15 -53 -37q-5 -4 -19 -8q-14 -5 -46 -21t-40 -19t-22 -3zM694 698h-20q-6 0 -16 8t-15 8q-6 1 -16 -3q-11 -4 -15 -4t-18 5t-32 0q-18 -6 -44 -28t-36 -28t-16 -11q-4 -6 -24 -51t-21 -54t4 -39t7 -36l6 -41
q2 -6 9 -14q13 -15 17 -35q8 -42 72 -70q40 -18 59 -18t31 4t17 5q4 1 16 0t15 1q47 18 88 70t35 112q-2 23 -2 28l6 30l-17 57q0 8 -2 12q-4 4 -13 10t-26 37t-24 38q-9 7 -25 7zM344 1220q0 16 4 23t8 21t10 20t15 32q8 26 13 34t7 18t7 14q2 4 6 20t10 21q2 8 18 5t24 -1
t18 0q9 -3 25 1t24 4t12 -2t19 -1q16 1 24 -1t19 2q11 2 21 2h19q16 3 31 -5l33 5q14 0 29 -4q14 -4 24 -1q10 2 18 0t24 1t19 -5q7 -6 11 -21q4 -16 7 -20t5 -14t7 -18t13 -34t14 -32t11 -20q4 -14 8 -20t4 -23q1 -16 15 -38t14 -34l20 -74q-4 -18 -37 -13t-45 4t-27 2
t-23 0t-22 1q-13 4 -20 2l-28 -10q-28 0 -41 44q-3 13 -7 18t-11 26t-20 32t-19 27t-11 21q-4 6 -16 33q0 2 -3 -4q-2 -6 -8 -14l-10 -15q-4 -5 -10 -21t-18 -26t-14 -14t-8 -21q-5 -17 -12 -25q-8 -8 -14 -28t-18 -29q-10 -4 -14 -4l-29 10q-6 2 -19 -2q-14 -4 -22 -1
t-24 0t-27 -2q-12 1 -45 -4t-37 13l20 74q0 8 3 13l12 20q8 14 11 18t3 20z" />
    <glyph glyph-name="odieresis" unicode="&#xf6;" horiz-adv-x="1228" 
d="M756 6q-14 0 -58 -14t-53 -12l-24 4l-31 -4l-29 10l-33 -4l-39 14q-4 0 -16 -4t-36 10q-25 14 -39 15q-13 2 -32 17t-49 28q-20 14 -72 70t-59 67t-16 41q-2 4 -14 12t-11 22v21q-27 40 -25 59q1 19 -1 27t-10 32t-11 36q-25 246 160 419q61 59 74 63q21 8 78 38t211 37
l32 -6l45 6q16 0 31 -11q6 -2 22 -1t37 -10q20 -11 44 -19t32 -23q33 -2 42 -11l16 -16q6 -7 8 -10q6 -6 28 -26q22 -21 28 -29t18 -19q19 -18 24 -33q5 -14 17 -24t19 -21q8 -11 18 -42t22 -66t11 -58q-1 -24 -1 -30l8 -43l-4 -56l4 -40l-16 -72q0 -48 -25 -59l2 -8
q-5 -5 -12 -24q-23 -58 -108 -148q-7 -9 -27 -17q-35 -15 -53 -37q-5 -4 -19 -8q-14 -5 -46 -21t-40 -19t-22 -3zM694 698h-20q-6 0 -16 8t-15 8q-6 1 -16 -3q-11 -4 -15 -4t-18 5t-32 0q-18 -6 -44 -28t-36 -28t-16 -11q-4 -6 -24 -51t-21 -54t4 -39t7 -36l6 -41
q2 -6 9 -14q13 -15 17 -35q8 -42 72 -70q40 -18 59 -18t31 4t17 5q4 1 16 0t15 1q47 18 88 70t35 112q-2 23 -2 28l6 30l-17 57q0 8 -2 12q-4 4 -13 10t-26 37t-24 38q-9 7 -25 7zM202 1113q3 15 3 36t4 31t3 15t-4 14t-3 16l6 41q0 2 -2 15t-3 21t-2 20q-1 13 0 21t2 21
t15 33q23 12 38 11t43 -8t58 -5t84 0t68 1t27 -4q14 -7 14 -21v-25q10 -23 1 -88t-7 -81q2 -17 12 -41t2 -50t-31 -33q-4 -2 -63 -2l-156 4q-2 0 -41 -4t-39 2q-18 5 -25 25t-4 35zM778 1403q3 0 33 -10h52l44 -9l51 13q4 -2 31 -3t37 -12q10 -10 18 -39l11 -30
q-1 -12 -11 -41t-12 -38t6 -17t9 -15l-15 -35l17 -53q-8 -51 -52 -59t-82 -4q-37 4 -47 4l-71 -4q-4 0 -28 -2q-73 -6 -73 24l-2 21q-12 43 -2 118l8 29q-2 11 -9 27t-5 28q0 78 19 93q0 6 40 4q30 10 33 10z" />
    <glyph glyph-name="oslash" unicode="&#xf8;" horiz-adv-x="1376" 
d="M840 506q0 4 1 11t-5 7q-25 -10 -38 -31q-13 -20 -53 -57t-51 -57q-12 -20 -17 -25l-18 -18q-14 -12 -26 -20t-15 -12q-1 -3 3 -11q24 -10 46 -3q23 7 35 6t17 1q47 18 80 61t41 93q4 3 2 27t-2 28zM799 6q-15 0 -57 -14t-54 -12l-22 4l-33 -4l-29 10q-6 0 -16 -3t-17 -1
l-36 14q-4 0 -17 -4t-34 8t-28 14q-6 2 -12 8t-10 9q-4 2 -9 18t-13 8q-30 -15 -42 -41q-12 -25 -27 -37q-23 -17 -52 -57q-30 -40 -56 -39q-26 2 -47 27q-20 24 -28 32t-31 16q-61 24 -45 63q10 20 45 54t57 48q21 13 35 27q13 14 21 34q10 27 -7 36q-18 10 -21 17t-15 16
t-10 22q2 19 -12 40t-12 40q1 18 -1 26t-10 32t-11 36q-25 242 158 419q59 56 77 64q19 8 32 12q68 37 94 43q94 16 162 19l30 -6l45 6q18 0 33 -11q6 -2 21 -1t36 -10t25 -12q45 -11 51 -30q1 0 17 -6t18 0q12 6 22 24t13 22q2 3 7 10t7 10q5 4 13 10t14 12t18 29t23 31
t39 40q28 31 51 27q6 0 12 -10t15 -12q8 -3 10 -5t3 -7t2 -7t4 -3t6 -3t4 -4t3 -8t7 -12t29 -13q24 -8 30 -12q28 -19 22 -35q-13 -30 -39 -54q-27 -23 -40 -40q-13 -18 -19 -24t-22 -17q-20 -12 -31 -30q-11 -17 -14 -20t-11 -13q-13 -17 -29 -25q-15 -7 -11 -12
q2 -5 12 -13t16 -19t16 -42t23 -63q12 -32 11 -58q-1 -27 -1 -33q8 -24 8 -43l-2 -56l2 -40l-14 -72q-2 -4 -3 -17q-3 -33 -22 -42l2 -8q-8 -7 -15 -25q-20 -53 -105 -147q-10 -9 -30 -17q-25 -11 -39 -25q-15 -15 -30 -19q-15 -6 -47 -22t-40 -19t-23 -3zM481 453
q2 -4 6 -4t12 12q7 12 9 14t4 6q8 15 49 55q42 40 48 51q5 11 11 17t12 14q7 8 14 13q7 6 11 9q3 3 7 8t7 10q3 4 7 8t21 12t19 17q5 18 -32 18l-29 -6q-6 0 -19 5t-31 0q-18 -6 -45 -28q-26 -22 -36 -28t-15 -11q-5 -6 -25 -51t-19 -49q-6 -55 14 -92z" />
    <glyph glyph-name="ugrave" unicode="&#xf9;" horiz-adv-x="1179" 
d="M1042 591q0 -19 7 -28v-67l-7 -45l7 -54q-7 -42 -7 -102l-2 -98q0 -9 6 -30t5 -59v-57q0 -30 -21 -41q-6 -10 -37 -6t-53 1t-123 3l-33 -6q-16 -2 -43 4t-33 29q-6 22 -18 22q-2 -1 -32 -21q-83 -56 -124 -51q-9 1 -16 1l-61 -11q-25 0 -70 15l-22 -4q-3 0 -21 8t-39 12
t-30 8t-33 22t-35 34t-15 20t-11 10t-11 12t-8 11q-4 6 -5 19q-1 16 -15 36q-14 19 -12 51t-4 45q-5 13 -7 22t0 38t0 41l-6 26l6 25l-6 29l6 34l-6 27q0 6 6 20t4 32q-2 20 -2 75t-2 78l-6 33l12 47l-12 77q0 13 10 35q11 17 35 17t60 -4t72 0t56 4l39 -6l29 2h14
q37 0 37 -33l-6 -35q-4 -20 -6 -80l-4 -73l6 -66l-6 -31l4 -28l-4 -41l4 -45l-9 -45q0 -3 5 -48q-2 -39 0 -43q37 -80 88 -86q9 0 37 2t36 -2q6 0 14 -20t21 -12q12 8 10 13t-8 14t-2 15q3 6 25 28t22 38q21 21 18 66t-2 51t4 14q3 9 2 13t-4 15t-1 19l8 25l-6 39l8 33
l-10 53q-2 12 -1 70t-5 82q-6 23 -11 51q-4 27 4 33t49 14t97 2t90 0q81 14 110 -17q8 -8 9 -43l-2 -114q0 -32 -5 -92l5 -31q-7 -21 -7 -40zM305 1374l84 4h19q12 2 19 -1t11 -3l33 4q13 0 29 -3t25 -1t17 0t25 1q16 3 19 -5q6 -6 10 -21t7 -19t5 -15t7 -19t13 -34t15 -31
q6 -7 10 -21t8 -20q5 -6 5 -22t3 -21q25 -33 25 -51l21 -74q-5 -18 -37 -13t-44 4t-28 2t-24 0t-22 1t-19 2l-29 -10q-28 0 -41 44q-4 13 -7 18q-3 4 -9 22q-7 18 -9 22t-14 14t-18 26t-12 23t-10 16q-5 9 -14 22t-12 25q-4 12 -16 26t-17 24t-18 26t-17 24q-5 10 -4 22
t4 12h7z" />
    <glyph glyph-name="uacute" unicode="&#xfa;" horiz-adv-x="1179" 
d="M1042 591q0 -19 7 -28v-67l-7 -45l7 -54q-7 -42 -7 -102l-2 -98q0 -9 6 -30t5 -59v-57q0 -30 -21 -41q-6 -10 -37 -6t-53 1t-123 3l-33 -6q-16 -2 -43 4t-33 29q-6 22 -18 22q-2 -1 -32 -21q-83 -56 -124 -51q-9 1 -16 1l-61 -11q-25 0 -70 15l-22 -4q-3 0 -21 8t-39 12
t-30 8t-33 22t-35 34t-15 20t-11 10t-11 12t-8 11q-4 6 -5 19q-1 16 -15 36q-14 19 -12 51t-4 45q-5 13 -7 22t0 38t0 41l-6 26l6 25l-6 29l6 34l-6 27q0 6 6 20t4 32q-2 20 -2 75t-2 78l-6 33l12 47l-12 77q0 13 10 35q11 17 35 17t60 -4t72 0t56 4l39 -6l29 2h14
q37 0 37 -33l-6 -35q-4 -20 -6 -80l-4 -73l6 -66l-6 -31l4 -28l-4 -41l4 -45l-9 -45q0 -3 5 -48q-2 -39 0 -43q37 -80 88 -86q9 0 37 2t36 -2q6 0 14 -20t21 -12q12 8 10 13t-8 14t-2 15q3 6 25 28t22 38q21 21 18 66t-2 51t4 14q3 9 2 13t-4 15t-1 19l8 25l-6 39l8 33
l-10 53q-2 12 -1 70t-5 82q-6 23 -11 51q-4 27 4 33t49 14t97 2t90 0q81 14 110 -17q8 -8 9 -43l-2 -114q0 -32 -5 -92l5 -31q-7 -21 -7 -40zM754 1382l84 -4h6q4 0 5 -12t-10 -30q-11 -17 -17 -24q-6 -8 -12 -18q-5 -10 -17 -24q-11 -14 -15 -26t-13 -24q-9 -14 -14 -23
t-11 -16t-11 -23q-6 -16 -18 -25q-13 -11 -15 -15t-8 -21t-9 -23t-9 -26q-11 -36 -39 -36l-29 10q-6 2 -19 -2t-21 -1t-24 0t-28 -2t-44 -4t-38 13l21 74q0 8 3 13t11 19t11 19q3 4 3 20q0 17 4 23t8 20q5 14 11 20t14 33q8 26 13 34t8 18q2 10 6 14q2 3 6 19t10 22
q2 8 18 5q17 -3 25 -1t17 0t25 1t30 3l33 -4q4 0 11 3t16 2q10 -1 22 -1z" />
    <glyph glyph-name="ucircumflex" unicode="&#xfb;" horiz-adv-x="1179" 
d="M1042 591q0 -19 7 -28v-67l-7 -45l7 -54q-7 -42 -7 -102l-2 -98q0 -9 6 -30t5 -59v-57q0 -30 -21 -41q-6 -10 -37 -6t-53 1t-123 3l-33 -6q-16 -2 -43 4t-33 29q-6 22 -18 22q-2 -1 -32 -21q-83 -56 -124 -51q-9 1 -16 1l-61 -11q-25 0 -70 15l-22 -4q-3 0 -21 8t-39 12
t-30 8t-33 22t-35 34t-15 20t-11 10t-11 12t-8 11q-4 6 -5 19q-1 16 -15 36q-14 19 -12 51t-4 45q-5 13 -7 22t0 38t0 41l-6 26l6 25l-6 29l6 34l-6 27q0 6 6 20t4 32q-2 20 -2 75t-2 78l-6 33l12 47l-12 77q0 13 10 35q11 17 35 17t60 -4t72 0t56 4l39 -6l29 2h14
q37 0 37 -33l-6 -35q-4 -20 -6 -80l-4 -73l6 -66l-6 -31l4 -28l-4 -41l4 -45l-9 -45q0 -3 5 -48q-2 -39 0 -43q37 -80 88 -86q9 0 37 2t36 -2q6 0 14 -20t21 -12q12 8 10 13t-8 14t-2 15q3 6 25 28t22 38q21 21 18 66t-2 51t4 14q3 9 2 13t-4 15t-1 19l8 25l-6 39l8 33
l-10 53q-2 12 -1 70t-5 82q-6 23 -11 51q-4 27 4 33t49 14t97 2t90 0q81 14 110 -17q8 -8 9 -43l-2 -114q0 -32 -5 -92l5 -31q-7 -21 -7 -40zM299 1202q0 16 4 22t8 21t10 21q7 6 15 32t13 33q5 9 7 19t6 14q2 4 7 19q4 15 10 22q2 8 18 5q17 -3 25 -1t17 0t25 1t24 3t12 -2
t19 -1t23 0t20 1t22 2h18q12 2 20 -1t11 -3l33 4q14 0 29 -3t25 -1t17 0q9 -2 25 1t18 -5q6 -5 10 -21t8 -20q3 -4 5 -14t7 -18t13 -35q9 -25 15 -31t10 -20t8 -21t4 -23t3 -20t11 -18t12 -20q4 -5 3 -14l20 -73q-5 -20 -37 -14t-44 5t-28 2t-24 0t-21 1t-20 2l-28 -11
q-27 0 -41 44q-4 12 -8 18t-9 23q-6 17 -8 21t-14 15q-13 10 -19 26q-6 15 -10 21t-8 16t-6 14q-2 5 -5 0t-9 -14q-6 -10 -9 -16q-4 -6 -10 -21q-7 -15 -19 -25t-14 -14t-7 -22t-12 -25t-13 -27t-19 -29q-10 -4 -14 -5l-29 11q-6 2 -20 -2t-21 -1t-23 0t-28 -2t-45 -4
t-37 13l20 73q0 12 14 34t15 38z" />
    <glyph glyph-name="udieresis" unicode="&#xfc;" horiz-adv-x="1177" 
d="M1042 591q0 -19 7 -28v-67l-7 -45l7 -54q-7 -42 -7 -102l-2 -98q0 -9 6 -30t5 -59v-57q0 -30 -21 -41q-6 -10 -37 -6t-53 1t-123 3l-33 -6q-16 -2 -43 4t-33 29q-6 22 -18 22q-2 -1 -32 -21q-83 -56 -124 -51q-9 1 -16 1l-61 -11q-25 0 -70 15l-22 -4q-3 0 -21 8t-39 12
t-30 8t-33 22t-35 34t-15 20t-11 10t-11 12t-8 11q-4 6 -5 19q-1 16 -15 36q-14 19 -12 51t-4 45q-5 13 -7 22t0 38t0 41l-6 26l6 25l-6 29l6 34l-6 27q0 6 6 20t4 32q-2 20 -2 75t-2 78l-6 33l12 47l-12 77q0 13 10 35q11 17 35 17t60 -4t72 0t56 4l39 -6l29 2h14
q37 0 37 -33l-6 -35q-4 -20 -6 -80l-4 -73l6 -66l-6 -31l4 -28l-4 -41l4 -45l-9 -45q0 -3 5 -48q-2 -39 0 -43q37 -80 88 -86q9 0 37 2t36 -2q6 0 14 -20t21 -12q12 8 10 13t-8 14t-2 15q3 6 25 28t22 38q21 21 18 66t-2 51t4 14q3 9 2 13t-4 15t-1 19l8 25l-6 39l8 33
l-10 53q-2 12 -1 70t-5 82q-6 23 -11 51q-4 27 4 33t49 14t97 2t90 0q81 14 110 -17q8 -8 9 -43l-2 -114q0 -32 -5 -92l5 -31q-7 -21 -7 -40zM443 1042q-40 0 -109 2q-68 2 -107 -2t-39 2q-18 6 -25 26t-4 35t3 36t4 31t3 15t-4 14t-3 16l6 40q0 2 -4 32t-3 42t2 25t15 33
q23 12 38 11t43 -8t42 -8q45 4 148 0l34 4q27 -3 27 -26v-25q10 -23 1 -87t-7 -81q2 -16 12 -41q10 -26 2 -52t-31 -32q-4 -2 -44 -2zM702 1384l33 11q11 0 33 -11h52l44 -8l51 13q4 -2 31 -4t37 -12q10 -9 18 -38l11 -30q0 -14 -10 -42t-13 -37q-2 -10 6 -18t9 -14l-15 -35
l17 -53q-8 -51 -54 -59t-82 -5l-45 5q-11 2 -35 -1q-24 -4 -32 -4t-52 -4t-52 21q-3 18 -3 26q-12 43 -2 119l8 29q-2 11 -9 27t-5 28q0 79 19 92q0 6 40 4z" />
    <glyph glyph-name="uni2000" unicode="&#x2000;" horiz-adv-x="1024" 
 />
    <glyph glyph-name="uni2001" unicode="&#x2001;" horiz-adv-x="2048" 
 />
    <glyph glyph-name="uni2002" unicode="&#x2002;" horiz-adv-x="1024" 
 />
    <glyph glyph-name="uni2003" unicode="&#x2003;" horiz-adv-x="2048" 
 />
    <glyph glyph-name="uni2004" unicode="&#x2004;" horiz-adv-x="681" 
 />
    <glyph glyph-name="uni2005" unicode="&#x2005;" horiz-adv-x="512" 
 />
    <glyph glyph-name="uni2006" unicode="&#x2006;" horiz-adv-x="339" 
 />
    <glyph glyph-name="uni2009" unicode="&#x2009;" horiz-adv-x="409" 
 />
    <glyph glyph-name="uni200A" unicode="&#x200a;" horiz-adv-x="339" 
 />
    <glyph glyph-name="uni200B" unicode="&#x200b;" horiz-adv-x="0" 
 />
    <glyph glyph-name="quotedblleft" unicode="&#x201c;" horiz-adv-x="1062" 
d="M590 1032v53q0 1 5 13t3 20l2 111l-6 28l8 37q2 4 0 23t27 65v10l2 19q4 8 9 13t11 14t18 28q11 20 17 30t10 26t21 33l20 20q25 29 35 32t18 3t13 -2q6 -2 12 -3t13 -5q6 -4 12 -7q6 -2 13 -7t12 -6t61 -34q24 0 40 -21t3 -45q-11 -24 -27 -49t-16 -42v-25q0 -2 -8 -33
t-7 -47q15 -184 15 -198t4 -39q4 -26 -10 -46t-68 -16l-145 -10l-35 4q-6 0 -32 -3t-37 10q-11 14 -12 20t-1 26zM444 1546q45 0 45 -44q-1 -22 -23 -60t-22 -54v-24q-14 -56 -14 -80q14 -184 14 -198t4 -40q4 -27 -10 -46t-67 -15l-151 -10l-30 4q-6 0 -23 -2t-29 0t-19 12
q-10 12 -10 43v53l8 33l2 111l-6 28l8 37q2 4 1 19t25 69v10q1 16 13 32q12 15 23 36t18 29q8 11 12 29t22 36l21 21q25 29 39 33q4 4 25 0t40 -15q19 -12 26 -13q6 -1 58 -34z" />
    <glyph glyph-name="uni202F" unicode="&#x202f;" horiz-adv-x="409" 
 />
    <glyph glyph-name="uni205F" unicode="&#x205f;" horiz-adv-x="450" 
 />
    <glyph glyph-name="uniFEFF" unicode="&#xfeff;" horiz-adv-x="0" 
 />
  </font>
</defs>
</svg>
